<svg width="32" height="30" viewBox="0 0 32 30" fill="none" xmlns="http://www.w3.org/2000/svg">
<path d="M31.4896 1.9082C31.4498 0.866153 30.2964 0.223813 29.3643 0.647423L1.34714 13.9187C0.309665 14.3724 0.195415 15.9403 1.16935 16.5311L7.73582 20.8243V27.9874C7.6974 29.2788 9.40377 30.0009 10.298 29.0485L14.2583 25.0887L19.8008 28.7124C20.0481 28.8741 20.3344 28.9572 20.6226 28.9572C21.239 28.9622 21.8228 28.5579 22.0307 27.9756L31.4154 2.52301C31.4858 2.32231 31.5183 2.11499 31.4896 1.9082ZM22.8189 7.06957L10.7073 19.1808L5.05351 15.4846L22.8189 7.06957ZM10.7377 24.3641V22.7869L11.6914 23.4105L10.7377 24.3641ZM19.8663 25.1687L13.274 20.8589L26.2336 7.89967L19.8663 25.1687Z" fill="#FF5E14"/>
</svg>
