<svg width="35" height="33" viewBox="0 0 35 33" fill="none" xmlns="http://www.w3.org/2000/svg">
<g filter="url(#filter0_d_220_64)">
<path d="M10.4963 12.4221C10.4942 12.0245 10.6501 11.6424 10.9297 11.3597C11.2094 11.0771 11.5898 10.9171 11.9874 10.9149L28.4783 10.8265C28.8759 10.8243 29.2581 10.9802 29.5408 11.2599C29.8234 11.5395 29.9834 11.92 29.9855 12.3176C29.9877 12.7152 29.8318 13.0974 29.5521 13.38C29.2725 13.6627 28.892 13.8227 28.4944 13.8248L12.0035 13.9133C11.6059 13.9154 11.2238 13.7595 10.9411 13.4799C10.6584 13.2002 10.4985 12.8197 10.4963 12.4221ZM4.55592 22.9485C4.55379 22.5509 4.70969 22.1687 4.98933 21.8861C5.26898 21.6034 5.64945 21.4434 6.04705 21.4413L28.5346 21.3207C28.9322 21.3185 29.3144 21.4744 29.5971 21.7541C29.8797 22.0337 30.0397 22.4142 30.0418 22.8118C30.044 23.2094 29.8881 23.5916 29.6084 23.8742C29.3288 24.1569 28.9483 24.3169 28.5507 24.319L6.06314 24.4396C5.66553 24.4418 5.28336 24.2859 5.00071 24.0062C4.71805 23.7266 4.55806 23.3461 4.55592 22.9485ZM16.4367 1.89578C16.4346 1.49817 16.5905 1.11601 16.8701 0.833349C17.1498 0.550692 17.5302 0.390698 17.9278 0.388565L28.422 0.332276C28.8197 0.330143 29.2018 0.486046 29.4845 0.765687C29.7671 1.04533 29.9271 1.4258 29.9293 1.82341C29.9314 2.22101 29.7755 2.60318 29.4959 2.88584C29.2162 3.16849 28.8357 3.32849 28.4381 3.33062L17.9439 3.38691C17.5463 3.38904 17.1642 3.23314 16.8815 2.9535C16.5988 2.67386 16.4388 2.29338 16.4367 1.89578Z" fill="white"/>
</g>
<defs>
<filter id="filter0_d_220_64" x="0.555908" y="0.332031" width="33.4858" height="32.1074" filterUnits="userSpaceOnUse" color-interpolation-filters="sRGB">
<feFlood flood-opacity="0" result="BackgroundImageFix"/>
<feColorMatrix in="SourceAlpha" type="matrix" values="0 0 0 0 0 0 0 0 0 0 0 0 0 0 0 0 0 0 127 0" result="hardAlpha"/>
<feOffset dy="4"/>
<feGaussianBlur stdDeviation="2"/>
<feComposite in2="hardAlpha" operator="out"/>
<feColorMatrix type="matrix" values="0 0 0 0 0 0 0 0 0 0 0 0 0 0 0 0 0 0 0.25 0"/>
<feBlend mode="normal" in2="BackgroundImageFix" result="effect1_dropShadow_220_64"/>
<feBlend mode="normal" in="SourceGraphic" in2="effect1_dropShadow_220_64" result="shape"/>
</filter>
</defs>
</svg>
