<svg xmlns="http://www.w3.org/2000/svg" data-name="Layer 1" viewBox="0 0 512 512" id="builder"><path fill="#f66366" d="M461.56 501.999V377.835a80 80 0 0 0-54.873-75.951l-86.108-28.488a20 20 0 0 1-13.718-18.987v-25.27H205.14v25.27a20 20 0 0 1-13.718 18.987l-86.108 28.488a80 80 0 0 0-54.873 75.951V502a10 10 0 0 0 10 10h391.12a10 10 0 0 0 10-10Z"></path><path fill="#fcba63" d="M249 512V376.83a60.001 60.001 0 0 1 18.494-43.327l65.467-56.01 57.918 19.162v.373a173.943 173.943 0 0 0-2.268 128.933 34.87 34.87 0 0 1 2.268 12.355V512Z"></path><path fill="#fc7b55" d="M249 449.65h141.88v42H249zM249 428.646h140.5a35.138 35.138 0 0 0-.889-2.685 174.657 174.657 0 0 1-9.834-39.315H249Z"></path><path fill="#e58e41" d="M263 338.324a59.995 59.995 0 0 0-14 38.507V512h28V376.83a59.995 59.995 0 0 0-14-38.506Z"></path><path fill="#ee5034" d="M249 449.65h27.999v42H249zM249 386.646h27.999v42H249z"></path><path fill="#fcba63" d="M262.999 512V376.83a60.001 60.001 0 0 0-18.494-43.327l-65.467-56.01-57.918 19.162v.373a174.23 174.23 0 0 1 13.55 67.481 174.237 174.237 0 0 1-11.282 61.452 34.871 34.871 0 0 0-2.268 12.355V512Z"></path><path fill="#fc7b55" d="M123.388 425.96c-.335.884-.627 1.781-.889 2.686h140.5v-42H133.222a174.655 174.655 0 0 1-9.834 39.315Z"></path><circle cx="234.999" cy="407.646" r="7" fill="#343c49"></circle><path fill="#fc7b55" d="M121.12 449.65h141.879v42H121.12z"></path><circle cx="234.999" cy="470.646" r="7" fill="#343c49"></circle><path fill="#f7bdad" d="M197.946 269.758a76.971 76.971 0 0 0 116.108 0 19.99 19.99 0 0 1-7.193-15.35v-25.27H205.14v25.27a19.99 19.99 0 0 1-7.193 15.35zM121.12 511.999H60.44a10 10 0 0 1-10-10V465.85h70.68zM390.88 465.85h70.68V502a10 10 0 0 1-10 10h-60.68z"></path><path fill="#e2897d" d="M329.181 150.808v-41.05h5.73a17.66 17.66 0 0 1 17.66 17.66 23.39 23.39 0 0 1-23.39 23.39ZM182.436 150.808a23.39 23.39 0 0 1-23.39-23.39 17.66 17.66 0 0 1 17.66-17.66h5.73v41.05ZM205.139 229.138v7.633a67.3 67.3 0 0 0 19.517 21.913l9.207 6.62A61.902 61.902 0 0 0 270 276.945a61.902 61.902 0 0 0 36.137-11.643l2.813-2.022a19.906 19.906 0 0 1-2.089-8.872v-25.27Z"></path><path fill="#f7bdad" d="M329.372 163.602v19.408a67.338 67.338 0 0 1-28.028 54.673l-9.207 6.62A61.903 61.903 0 0 1 256 255.946a61.903 61.903 0 0 1-36.137-11.643l-9.207-6.62a67.338 67.338 0 0 1-28.028-54.672V106.495l146.744-4.436Z"></path><path fill="#343c49" d="m290.138 207.726-24.024-4.204a58.672 58.672 0 0 0-20.228 0l-24.024 4.204A5 5 0 0 1 216 202.8v-10.848a5 5 0 0 1 4.138-4.926l25.748-4.505a58.672 58.672 0 0 1 20.228 0l25.748 4.505a5 5 0 0 1 4.138 4.926V202.8a5 5 0 0 1-5.862 4.925Z"></path><path fill="#e2897d" d="M268.704 171.285v4.707a12.701 12.701 0 0 1-12.7 12.701h-.007a12.701 12.701 0 0 1-12.701-12.7v-4.708a4 4 0 0 1 4-4h17.408a4 4 0 0 1 4 4Z"></path><path fill="#fcba63" d="M256 3.499a85.603 85.603 0 0 1 85.603 85.603v8.969H170.397v-8.969A85.603 85.603 0 0 1 256 3.499Z"></path><path fill="#cce3fd" d="m324.922 149.402-44.023 11.767a7 7 0 0 1-6.758-1.813l-13.898-13.9a6 6 0 0 0-8.486 0l-13.901 13.9a7 7 0 0 1-6.758 1.813l-44.02-11.767a6 6 0 0 1-4.45-5.796v-32.771h146.744v32.77a6 6 0 0 1-4.45 5.797Z"></path><rect width="183" height="21" x="164.5" y="89.835" fill="#e58e41" rx="4"></rect></svg>