<svg width="60" height="52" viewBox="0 0 60 52" fill="none" xmlns="http://www.w3.org/2000/svg">
<path d="M34.9169 25.6798L58.2794 5.49938C58.9777 4.89524 59.37 4.07585 59.37 3.22146C59.37 2.36708 58.9777 1.54769 58.2794 0.943544C57.5811 0.339403 56.634 0 55.6465 0C54.659 0 53.7119 0.339403 53.0136 0.943544L29.6882 21.156L6.36275 0.943544C5.66446 0.339403 4.71737 7.58561e-07 3.72984 7.64926e-07C2.7423 7.71292e-07 1.79521 0.339403 1.09692 0.943544C0.398626 1.54769 0.00632953 2.36708 0.00632953 3.22146C0.00632952 4.07585 0.398626 4.89524 1.09692 5.49938L24.4594 25.6798L1.09692 45.8602C0.749342 46.1585 0.473465 46.5133 0.285197 46.9043C0.0969302 47.2952 0 47.7146 0 48.1381C0 48.5617 0.0969302 48.981 0.285197 49.372C0.473465 49.7629 0.749342 50.1178 1.09692 50.416C1.44166 50.7168 1.8518 50.9554 2.3037 51.1183C2.75559 51.2812 3.24029 51.3651 3.72984 51.3651C4.21938 51.3651 4.70408 51.2812 5.15597 51.1183C5.60787 50.9554 6.01801 50.7168 6.36275 50.416L29.6882 30.2035L53.0136 50.416C53.3583 50.7168 53.7685 50.9554 54.2204 51.1183C54.6723 51.2812 55.157 51.3651 55.6465 51.3651C56.136 51.3651 56.6207 51.2812 57.0726 51.1183C57.5245 50.9554 57.9347 50.7168 58.2794 50.416C58.627 50.1178 58.9029 49.7629 59.0911 49.372C59.2794 48.981 59.3763 48.5617 59.3763 48.1381C59.3763 47.7146 59.2794 47.2952 59.0911 46.9043C58.9029 46.5133 58.627 46.1585 58.2794 45.8602L34.9169 25.6798Z" fill="white"/>
</svg>
