<svg xmlns="http://www.w3.org/2000/svg" data-name="Layer 1" viewBox="0 0 512 512" id="cricketer"><path fill="#57aafe" d="M447.56 501.999v-154.68a60 60 0 0 0-38.01-55.824l-97.019-38.217a20 20 0 0 1-12.67-18.608v-18.907H212.14v18.907a20 20 0 0 1-12.67 18.608l-97.019 38.217a60 60 0 0 0-38.01 55.825v154.679a10 10 0 0 0 10 10h363.12a10 10 0 0 0 10-10Z"></path><path fill="#f9beac" d="M312.531 253.278a20 20 0 0 1-12.67-18.608v-18.907H212.14v18.907a20 20 0 0 1-12.67 18.608L256 276.986Z"></path><path fill="#416bd0" d="M264.956 397.432h-17.911a6 6 0 0 1-6-6V279.604L256 276.986l14.956 2.618v111.828a6 6 0 0 1-6 6Z"></path><path fill="#416bd0" d="M302.894 245.25 256 276.987l23.689 25.435a15 15 0 0 0 23.627-2.163l14.576-44.85zm-93.79 0L256 276.986l-23.689 25.435a15 15 0 0 1-23.627-2.163l-14.576-44.85z"></path><circle cx="256" cy="316.402" r="3.5" fill="#343c4a"></circle><circle cx="256" cy="344.402" r="3.5" fill="#343c4a"></circle><circle cx="256" cy="372.402" r="3.5" fill="#343c4a"></circle><path fill="#416bd0" d="M376.88 511.999a3.5 3.5 0 0 1-3.5-3.5v-73.174a3.5 3.5 0 0 1 7 0V508.5a3.5 3.5 0 0 1-3.5 3.5zm-241.76 0a3.5 3.5 0 0 1-3.5-3.5v-73.174a3.5 3.5 0 0 1 7 0V508.5a3.5 3.5 0 0 1-3.5 3.5z"></path><path fill="#ffbc5b" d="M171.469 393.517a27.21 27.21 0 0 1-12.969-22.993V346.97a53.301 53.301 0 0 0 14.58-2.914 52.344 52.344 0 0 0 11.39-5.623 50.759 50.759 0 0 0 11.643 5.79 51.753 51.753 0 0 0 14.387 2.79v23.51a27.211 27.211 0 0 1-12.969 22.994l-13.031 8.228Z"></path><path fill="#e58a7b" d="M212.139 215.763v18.122a74.402 74.402 0 0 0 12.83 7.821 88.19 88.19 0 0 0 76.062 0l.1-.05a19.96 19.96 0 0 1-1.27-6.986v-18.907Z"></path><path fill="#f9beac" d="M336.372 153.54a74.444 74.444 0 0 1-42.34 67.166h-.001a88.19 88.19 0 0 1-76.062 0 74.444 74.444 0 0 1-42.341-67.166v-18.886l7-33.155h146.744l7 33.155Z"></path><path fill="#596381" d="M350.252 97.999a3.5 3.5 0 0 0-3.5 3.5v48.838H165.248V101.5a3.5 3.5 0 0 0-7 0v80.338a3.52 3.52 0 0 0 .077.725c.01.05.033.098.046.148a3.476 3.476 0 0 0 .175.532c.005.011.006.024.012.035a108.663 108.663 0 0 0 12.77 21.335 3.501 3.501 0 0 0 .573.74 108.977 108.977 0 0 0 59.634 38.84 3.472 3.472 0 0 0 1.734.471c.052 0 .104-.006.155-.008a103.417 103.417 0 0 0 22.865 2.571q2.678 0 5.37-.141a103.827 103.827 0 0 0 17.71-2.482l.035-.007a105.981 105.981 0 0 0 36.842-16.351 108.622 108.622 0 0 0 24.369-23.38c.023-.033.05-.063.071-.096a109.674 109.674 0 0 0 12.76-21.5c.005-.01.006-.02.01-.03a3.491 3.491 0 0 0 .182-.557c.01-.042.029-.08.037-.122a3.506 3.506 0 0 0 .077-.723V101.5a3.5 3.5 0 0 0-3.5-3.5Zm-3.5 80.338h-58.196l2.11-21h56.086Zm-10.743 21.002h-49.563l1.407-14.002h56.822a102.582 102.582 0 0 1-8.666 14.002Zm-168.664-14.002h56.802l1.407 14.002h-49.441a101.867 101.867 0 0 1-8.768-14.002Zm63.837 0h49.636l-1.407 14.002H232.59Zm-.703-7-2.11-21h55.262l-2.11 21Zm-9.145-21 2.11 21h-58.196v-21Zm-39.529 49.002h44.452l3.016 30.015a101.869 101.869 0 0 1-47.468-30.015Zm79.486 33.756a96.115 96.115 0 0 1-24.802-1.942l-3.197-31.814h45.416l-3.209 31.934a96.715 96.715 0 0 1-14.208 1.822Zm50.956-17.595a99.195 99.195 0 0 1-29.536 14.012l3.032-30.173h44.62a101.446 101.446 0 0 1-18.116 16.16Z"></path><path fill="#343c4a" d="M336.372 134.654h-4a10 10 0 0 1-10-10v-23.155h14zm-160.744 0h4a10 10 0 0 0 10-10v-23.155h-14zm41.636 9.112a3.5 3.5 0 0 1-3.5-3.5v-8.974a3.5 3.5 0 0 1 7 0v8.974a3.5 3.5 0 0 1-3.5 3.5zm77.472 0a3.5 3.5 0 0 1-3.5-3.5v-8.974a3.5 3.5 0 0 1 7 0v8.974a3.5 3.5 0 0 1-3.5 3.5z"></path><path fill="#57aafe" d="M256 3.499a83.872 83.872 0 0 1 83.872 83.872v1.454H172.128V87.37A83.872 83.872 0 0 1 256 3.5Z"></path><path fill="#416bd0" d="M162.91 98.08a3.967 3.967 0 0 0 1.541 6.862c16.152 4.608 56.798 15.137 91.1 15.19 34.72.052 75.769-10.565 92.006-15.193a3.965 3.965 0 0 0 1.531-6.86l-10.901-9.254H173.813l-10.902 9.255Z"></path></svg>