<svg width="1346" height="1929" viewBox="0 0 1346 1929" fill="none" xmlns="http://www.w3.org/2000/svg">
<g clip-path="url(#clip0_230_221)">
<path d="M347.57 1003.84C285.1 1146.07 298.37 1243.58 271.85 1326.84C232.73 1450.09 122.01 1433.99 122.01 1433.99C122.01 1433.99 138.48 1325.89 142.68 1183.85C143.545 1156.92 151.977 1130.79 167.01 1108.43C182.043 1086.08 203.07 1068.41 227.68 1057.45L347.57 1003.84Z" fill="#FF5E14"/>
<path d="M222.88 1185.8C260 1099.38 259.24 995.08 328.46 855.33C334.23 843.42 340.58 831.33 347.57 818.92L305.45 833.07L202.11 867.67C194.115 870.374 186.333 873.673 178.83 877.54V1251.99C195.25 1236.04 210.52 1214.63 222.88 1185.8Z" fill="#FF5E14"/>
<path d="M178.85 877.52V1251.99C116.18 1312.85 36.6201 1293.28 36.6201 1293.28C36.6201 1293.28 38.8601 1281.46 42.4201 1262.54C48.9201 1228.15 59.8001 1170.29 69.4801 1117.63C78.8301 1066.4 87.0901 1020.08 89.0101 1004.99C96.0101 949.81 130.24 902.51 178.85 877.52Z" fill="#FFC6A7"/>
<g style="mix-blend-mode:soft-light">
<path d="M271.24 635.46C322.84 613.35 445.24 551.77 451.83 548.21C430 534.45 206.83 371.32 178.83 348.09V553.55C196.56 570.65 259.54 624.85 271.24 635.46Z" fill="#FF5E14"/>
</g>
<path d="M138.63 314.55C138.63 314.55 56.0999 407.68 146.78 519.14C156.756 531.249 167.459 542.74 178.83 553.55V348.11C155.89 329.1 138.63 314.55 138.63 314.55Z" fill="#FFC6A7"/>
<path d="M176.36 673.91C118.94 695.94 0 734.46 0 734.46C0 734.46 35.05 853.75 177.6 836.21C178.01 836.16 178.42 836.06 178.83 836.01V673.01L176.36 673.91Z" fill="#FFC6A7"/>
<path d="M365.02 735.96C333.17 694.7 301.36 662.89 271.24 635.46L269.05 636.46C237.36 650.01 207.05 662.16 178.83 672.98V835.98C239.83 828.17 299.27 801.87 378.68 782.98C384.34 781.64 390.21 780.37 396.08 779.11C385.787 763.637 375.453 749.257 365.08 735.97L365.02 735.96Z" fill="#FF5E14"/>
<path d="M1186.56 1894.46C1185.04 1906.17 1181.9 1917.62 1177.22 1928.46H647.07C645.94 1925.46 644.86 1922.51 643.78 1919.46C643.37 1918.46 643.06 1917.46 642.71 1916.58C637.06 1901.34 631.77 1885.53 626.23 1869.72C625.77 1868.48 625.35 1867.15 624.89 1865.92C622.02 1857.6 619.14 1849.29 616.17 1840.92C615.95 1840.44 615.76 1839.94 615.6 1839.43C610.78 1826.14 605.8 1813.05 600.46 1800.37C599.28 1797.44 598.05 1794.46 596.76 1791.59C596.585 1791.21 596.431 1790.81 596.3 1790.41C576.03 1744.31 551.3 1705.51 515.15 1688.16C409.25 1637.49 350.42 1546.16 323.89 1493.87C311.77 1469.95 306.38 1454.29 306.38 1454.29C306.38 1454.29 315.16 1453.29 330.82 1451.78C423.16 1442.78 755.63 1413.33 944.07 1439.25C960.96 1441.46 976.67 1444.25 990.89 1447.47C1044.48 1459.63 1077.89 1478.83 1076.76 1507.73C1075.02 1554.73 1089.7 1595.73 1109.05 1635.73C1109.05 1635.83 1109.05 1635.88 1109.15 1636.04C1110.49 1638.76 1111.82 1641.53 1113.15 1644.25C1118.28 1654.52 1123.62 1664.73 1129.01 1675.05C1129.08 1675.21 1129.17 1675.36 1129.26 1675.51C1134.19 1685.01 1139.26 1694.61 1144.2 1704.41C1144.77 1705.64 1145.38 1706.72 1145.95 1707.95C1152.06 1720.07 1157.95 1732.44 1163.25 1745.12C1163.86 1746.55 1164.53 1748.04 1165.15 1749.53C1182.61 1792.23 1193.64 1838.89 1186.56 1894.46Z" fill="#FFC6A7"/>
<path d="M944.09 1439.25C931.497 1450.15 915.403 1456.14 898.75 1456.15H354.91C346.675 1456.18 338.503 1454.71 330.79 1451.83C315.12 1453.33 306.39 1454.27 306.39 1454.27C306.39 1454.27 311.74 1470.04 323.84 1493.88C331.886 1495.89 340.148 1496.89 348.44 1496.88H905.23C922.591 1496.89 939.65 1492.34 954.693 1483.67C969.736 1475.01 982.234 1462.54 990.93 1447.51C976.66 1444.32 960.98 1441.46 944.09 1439.25Z" fill="#FF5E14"/>
<path d="M98.4699 1197.14L91.7399 1248.33C91.1383 1252.84 88.8636 1256.95 85.3677 1259.86C81.8718 1262.77 77.4105 1264.25 72.8699 1264.02L42.4199 1262.54C48.9199 1228.15 59.7999 1170.29 69.4799 1117.63C80.363 1127.56 88.6829 1139.98 93.7307 1153.83C98.7784 1167.67 100.404 1182.53 98.4699 1197.14Z" fill="#FFE1D5"/>
<path d="M931.96 1928.46H599.59L556.36 1813.79L600.45 1800.39L675.8 1777.39L793.97 1741.39L842.68 1774.91C868.028 1792.27 889.192 1815.06 904.635 1841.62C920.078 1868.18 929.412 1897.84 931.96 1928.46Z" fill="#7474F7"/>
<path d="M1345.59 1928.46H931.96C929.411 1897.85 920.077 1868.19 904.636 1841.63C889.195 1815.07 868.034 1792.29 842.69 1774.93L793.98 1741.46L1113.16 1644.34L1159.1 1630.34L1345.59 1928.46Z" fill="#615ED1"/>
<path d="M882.99 30.3301H319.62C310.508 30.334 301.487 32.1334 293.071 35.6253C284.656 39.1172 277.011 44.2333 270.573 50.6811C264.135 57.1289 259.032 64.7821 255.553 73.2034C252.074 81.6246 250.289 90.6487 250.3 99.7601V1423.31C267.969 1437.91 290.182 1445.87 313.1 1445.82H889.51C912.424 1445.85 934.632 1437.89 952.31 1423.31L931.78 942.12V921.9L952.36 99.7601C952.37 90.6445 950.584 81.6163 947.102 73.1918C943.62 64.7673 938.512 57.1119 932.069 50.6634C925.626 44.2149 917.975 39.0999 909.554 35.6109C901.132 32.1219 892.105 30.3274 882.99 30.3301Z" fill="#FAFAFF"/>
<path d="M774.36 595.14C768.038 595.146 761.731 595.742 755.52 596.92C752.751 562.875 738.194 530.862 714.357 506.398C690.52 481.933 658.896 466.55 624.935 462.897C590.974 459.245 556.802 467.553 528.309 486.39C499.815 505.227 478.784 533.412 468.84 566.09C452.932 562.8 436.513 562.856 420.628 566.256C404.743 569.655 389.739 576.323 376.571 585.836C363.403 595.349 352.359 607.499 344.142 621.511C335.924 635.524 330.713 651.094 328.839 667.231C326.965 683.367 328.47 699.717 333.259 715.24C338.047 730.763 346.013 745.119 356.651 757.397C367.289 769.674 380.365 779.602 395.049 786.551C409.732 793.5 425.701 797.318 441.94 797.76C442.94 797.81 443.89 797.84 444.88 797.84H774.36C801.24 797.84 827.018 787.162 846.025 768.155C865.032 749.148 875.71 723.37 875.71 696.49C875.71 669.61 865.032 643.831 846.025 624.825C827.018 605.818 801.24 595.14 774.36 595.14Z" fill="#615ED1"/>
<path d="M567.82 371.55H315.68C312.633 371.55 309.71 370.339 307.555 368.185C305.401 366.03 304.19 363.107 304.19 360.06C304.189 358.551 304.485 357.056 305.062 355.661C305.639 354.267 306.485 353 307.552 351.932C308.62 350.865 309.887 350.019 311.281 349.442C312.676 348.865 314.171 348.569 315.68 348.57H567.82C569.333 348.562 570.833 348.854 572.234 349.428C573.634 350.002 574.907 350.847 575.98 351.915C577.052 352.983 577.903 354.252 578.483 355.65C579.063 357.048 579.361 358.546 579.36 360.06C579.36 361.573 579.061 363.071 578.481 364.469C577.9 365.866 577.049 367.135 575.977 368.202C574.905 369.27 573.632 370.115 572.232 370.69C570.832 371.264 569.333 371.557 567.82 371.55Z" fill="#615ED1"/>
<path d="M888.14 371.55H622.66C619.613 371.55 616.69 370.339 614.535 368.185C612.38 366.03 611.17 363.107 611.17 360.06C611.169 358.551 611.465 357.056 612.042 355.661C612.619 354.267 613.465 352.999 614.532 351.932C615.599 350.865 616.867 350.019 618.261 349.442C619.656 348.865 621.151 348.569 622.66 348.57H888.14C889.649 348.569 891.144 348.865 892.538 349.442C893.933 350.019 895.2 350.865 896.267 351.932C897.335 352.999 898.181 354.267 898.758 355.661C899.335 357.056 899.631 358.551 899.63 360.06C899.63 363.107 898.419 366.03 896.265 368.185C894.11 370.339 891.187 371.55 888.14 371.55Z" fill="#FF5E14"/>
<path d="M888.14 320.27H315.68C312.633 320.27 309.71 319.06 307.555 316.905C305.401 314.75 304.19 311.827 304.19 308.78C304.189 307.271 304.485 305.776 305.062 304.381C305.639 302.987 306.485 301.72 307.552 300.652C308.62 299.585 309.887 298.739 311.281 298.162C312.676 297.585 314.171 297.289 315.68 297.29H888.14C889.649 297.289 891.144 297.585 892.539 298.162C893.933 298.739 895.2 299.585 896.268 300.652C897.335 301.72 898.181 302.987 898.758 304.381C899.335 305.776 899.631 307.271 899.63 308.78C899.63 310.289 899.333 311.783 898.755 313.177C898.178 314.571 897.332 315.838 896.265 316.905C895.198 317.972 893.931 318.818 892.537 319.395C891.143 319.973 889.649 320.27 888.14 320.27Z" fill="#7474F7"/>
<path d="M888.14 268.99H505.44C503.928 268.989 502.432 268.689 501.036 268.109C499.639 267.529 498.372 266.679 497.304 265.608C496.237 264.537 495.392 263.266 494.816 261.868C494.24 260.47 493.946 258.972 493.95 257.46C493.95 254.413 495.161 251.49 497.316 249.336C499.47 247.181 502.393 245.97 505.44 245.97H888.14C889.649 245.969 891.144 246.265 892.539 246.842C893.933 247.419 895.201 248.265 896.268 249.333C897.335 250.4 898.181 251.667 898.758 253.062C899.335 254.456 899.632 255.951 899.63 257.46C899.635 258.972 899.342 260.471 898.767 261.87C898.192 263.268 897.346 264.54 896.279 265.611C895.212 266.682 893.943 267.532 892.546 268.112C891.15 268.692 889.652 268.99 888.14 268.99Z" fill="#615ED1"/>
<path d="M454.24 268.99H315.68C314.168 268.99 312.67 268.692 311.274 268.112C309.877 267.532 308.609 266.682 307.541 265.611C306.474 264.54 305.628 263.268 305.053 261.87C304.478 260.471 304.185 258.972 304.19 257.46C304.189 255.951 304.485 254.456 305.062 253.062C305.639 251.667 306.485 250.4 307.552 249.333C308.62 248.265 309.887 247.419 311.281 246.842C312.676 246.265 314.171 245.969 315.68 245.97H454.24C455.749 245.969 457.244 246.265 458.639 246.842C460.033 247.419 461.3 248.265 462.368 249.333C463.435 250.4 464.281 251.667 464.858 253.062C465.435 254.456 465.731 255.951 465.73 257.46C465.735 258.972 465.442 260.471 464.867 261.87C464.292 263.268 463.446 264.54 462.379 265.611C461.311 266.682 460.043 267.532 458.646 268.112C457.25 268.692 455.752 268.99 454.24 268.99Z" fill="#FF5E14"/>
<path d="M952.36 145.76H249.79V86.12C249.79 78.1426 251.361 70.2434 254.415 62.8734C257.468 55.5035 261.943 48.8071 267.584 43.1668C273.225 37.5264 279.922 33.0525 287.293 30.0006C294.663 26.9487 302.563 25.3786 310.54 25.3799H891.54C899.524 25.3681 907.431 26.9306 914.81 29.9778C922.19 33.0251 928.895 37.4975 934.544 43.139C940.193 48.7806 944.675 55.4806 947.732 62.8557C950.789 70.2308 952.361 78.1364 952.36 86.12V145.76Z" fill="#615ED1"/>
<path d="M889.51 0H313.1C300.095 0.0104979 287.219 2.58327 275.209 7.57132C263.198 12.5594 252.288 19.8649 243.102 29.0707C233.916 38.2764 226.633 49.2019 221.671 61.2229C216.708 73.2439 214.163 86.1249 214.18 99.13V1357.13C214.161 1370.14 216.706 1383.02 221.668 1395.04C226.63 1407.06 233.912 1417.99 243.098 1427.2C252.285 1436.4 263.195 1443.71 275.206 1448.7C287.217 1453.69 300.094 1456.26 313.1 1456.27H889.51C902.521 1456.26 915.403 1453.69 927.42 1448.71C939.437 1443.72 950.355 1436.42 959.548 1427.21C968.742 1418 976.031 1407.08 981.001 1395.05C985.97 1383.03 988.522 1370.14 988.51 1357.13V99.13C988.52 86.1201 985.968 73.2355 980.998 61.2122C976.028 49.1889 968.738 38.2625 959.545 29.057C950.351 19.8516 939.435 12.5474 927.418 7.56174C915.401 2.57607 902.52 0.00656312 889.51 0ZM952.36 1346.06C952.372 1355.17 950.588 1364.2 947.11 1372.63C943.633 1381.05 938.53 1388.71 932.092 1395.16C925.655 1401.61 918.01 1406.73 909.594 1410.23C901.177 1413.73 892.154 1415.53 883.04 1415.54H319.62C310.506 1415.53 301.483 1413.73 293.066 1410.23C284.65 1406.73 277.004 1401.61 270.567 1395.16C264.13 1388.71 259.027 1381.05 255.549 1372.63C252.072 1364.2 250.288 1355.17 250.3 1346.06V110.18C250.289 101.069 252.074 92.0454 255.553 83.6248C259.032 75.2041 264.136 67.5516 270.574 61.1046C277.011 54.6575 284.657 49.5424 293.072 46.0516C301.488 42.5608 310.509 40.7626 319.62 40.76H882.99C892.105 40.7561 901.131 42.5493 909.553 46.0372C917.974 49.5251 925.625 54.6392 932.068 61.0869C938.511 67.5346 943.62 75.1893 947.102 83.6132C950.584 92.0371 952.37 101.065 952.36 110.18V1346.06Z" fill="#2E2044"/>
<path d="M611.43 942.65C618.969 942.65 625.08 936.53 625.08 928.98C625.08 921.43 618.969 915.31 611.43 915.31C603.892 915.31 597.78 921.43 597.78 928.98C597.78 936.53 603.892 942.65 611.43 942.65Z" fill="#615ED1"/>
<path d="M509.33 942.65C516.869 942.65 522.98 936.53 522.98 928.98C522.98 921.43 516.869 915.31 509.33 915.31C501.791 915.31 495.68 921.43 495.68 928.98C495.68 936.53 501.791 942.65 509.33 942.65Z" fill="#FF5E14"/>
<path d="M560.38 942.65C567.919 942.65 574.03 936.53 574.03 928.98C574.03 921.43 567.919 915.31 560.38 915.31C552.841 915.31 546.73 921.43 546.73 928.98C546.73 936.53 552.841 942.65 560.38 942.65Z" fill="#615ED1"/>
<path d="M662.47 942.65C670.008 942.65 676.12 936.53 676.12 928.98C676.12 921.43 670.008 915.31 662.47 915.31C654.931 915.31 648.82 921.43 648.82 928.98C648.82 936.53 654.931 942.65 662.47 942.65Z" fill="#615ED1"/>
<path d="M552.86 998.45H472.98C463.072 998.45 455.04 1006.48 455.04 1016.39V1096.27C455.04 1106.18 463.072 1114.21 472.98 1114.21H552.86C562.768 1114.21 570.8 1106.18 570.8 1096.27V1016.39C570.8 1006.48 562.768 998.45 552.86 998.45Z" fill="#7474F7"/>
<path d="M844.79 998.45H764.91C755.002 998.45 746.97 1006.48 746.97 1016.39V1096.27C746.97 1106.18 755.002 1114.21 764.91 1114.21H844.79C854.698 1114.21 862.73 1106.18 862.73 1096.27V1016.39C862.73 1006.48 854.698 998.45 844.79 998.45Z" fill="#7474F7"/>
<path d="M698.82 998.45H618.94C609.032 998.45 601 1006.48 601 1016.39V1096.27C601 1106.18 609.032 1114.21 618.94 1114.21H698.82C708.728 1114.21 716.76 1106.18 716.76 1096.27V1016.39C716.76 1006.48 708.728 998.45 698.82 998.45Z" fill="#FF5E14"/>
<path d="M406.89 998.45H327.01C317.102 998.45 309.07 1006.48 309.07 1016.39V1096.27C309.07 1106.18 317.102 1114.21 327.01 1114.21H406.89C416.798 1114.21 424.83 1106.18 424.83 1096.27V1016.39C424.83 1006.48 416.798 998.45 406.89 998.45Z" fill="#FF5E14"/>
<path d="M552.86 1180.52H472.98C463.072 1180.52 455.04 1188.55 455.04 1198.46V1278.34C455.04 1288.25 463.072 1296.28 472.98 1296.28H552.86C562.768 1296.28 570.8 1288.25 570.8 1278.34V1198.46C570.8 1188.55 562.768 1180.52 552.86 1180.52Z" fill="#FF5E14"/>
<path d="M844.79 1180.52H764.91C755.002 1180.52 746.97 1188.55 746.97 1198.46V1278.34C746.97 1288.25 755.002 1296.28 764.91 1296.28H844.79C854.698 1296.28 862.73 1288.25 862.73 1278.34V1198.46C862.73 1188.55 854.698 1180.52 844.79 1180.52Z" fill="#FC888B"/>
<path d="M698.82 1180.52H618.94C609.032 1180.52 601 1188.55 601 1198.46V1278.34C601 1288.25 609.032 1296.28 618.94 1296.28H698.82C708.728 1296.28 716.76 1288.25 716.76 1278.34V1198.46C716.76 1188.55 708.728 1180.52 698.82 1180.52Z" fill="#FF5E14"/>
<path d="M406.89 1180.52H327.01C317.102 1180.52 309.07 1188.55 309.07 1198.46V1278.34C309.07 1288.25 317.102 1296.28 327.01 1296.28H406.89C416.798 1296.28 424.83 1288.25 424.83 1278.34V1198.46C424.83 1188.55 416.798 1180.52 406.89 1180.52Z" fill="#7474F7"/>
<path d="M311.77 86.9401C303.548 86.9296 295.582 89.795 289.25 95.0401C288.545 95.6414 287.641 95.9566 286.715 95.9233C285.789 95.89 284.91 95.5106 284.25 94.8601L284.19 94.7901C283.827 94.4268 283.545 93.9916 283.361 93.5123C283.177 93.0331 283.095 92.5206 283.122 92.0079C283.148 91.4952 283.282 90.9937 283.514 90.5359C283.746 90.0781 284.072 89.6742 284.47 89.3501C292.142 82.99 301.795 79.5093 311.76 79.5093C321.726 79.5093 331.378 82.99 339.05 89.3501C339.447 89.6751 339.771 90.0794 340.003 90.5371C340.234 90.9949 340.367 91.4959 340.394 92.0081C340.42 92.5203 340.339 93.0325 340.156 93.5115C339.973 93.9906 339.691 94.4261 339.33 94.7901L339.26 94.8601C338.602 95.5127 337.722 95.8935 336.795 95.9269C335.869 95.9602 334.964 95.6436 334.26 95.0401C327.936 89.803 319.981 86.9382 311.77 86.9401Z" fill="#2E2044"/>
<path d="M311.77 101.78C307.39 101.781 303.126 103.183 299.6 105.78C298.887 106.301 298.012 106.55 297.131 106.482C296.251 106.415 295.424 106.034 294.8 105.41C294.423 105.035 294.132 104.584 293.944 104.087C293.757 103.59 293.679 103.058 293.715 102.528C293.751 101.998 293.901 101.482 294.153 101.015C294.406 100.548 294.756 100.14 295.18 99.82C299.988 96.2834 305.801 94.376 311.77 94.376C317.739 94.376 323.551 96.2834 328.36 99.82C328.783 100.141 329.132 100.549 329.384 101.017C329.636 101.484 329.784 102.001 329.819 102.531C329.854 103.061 329.775 103.592 329.587 104.089C329.399 104.585 329.107 105.036 328.73 105.41C328.108 106.035 327.283 106.417 326.404 106.484C325.524 106.552 324.65 106.302 323.94 105.78C320.414 103.183 316.149 101.781 311.77 101.78Z" fill="#2E2044"/>
<path d="M311.77 116.63C311.062 116.627 310.36 116.756 309.7 117.01C309.019 117.289 308.271 117.364 307.549 117.226C306.826 117.087 306.159 116.741 305.63 116.23C305.193 115.79 304.872 115.247 304.698 114.652C304.523 114.056 304.5 113.427 304.63 112.82C304.76 112.214 305.039 111.649 305.443 111.177C305.846 110.706 306.361 110.343 306.94 110.12C310.043 108.894 313.497 108.894 316.6 110.12C317.177 110.345 317.69 110.709 318.092 111.181C318.494 111.652 318.772 112.216 318.902 112.822C319.032 113.428 319.009 114.056 318.836 114.651C318.663 115.246 318.344 115.789 317.91 116.23C317.38 116.741 316.714 117.087 315.991 117.226C315.268 117.364 314.521 117.289 313.84 117.01C313.179 116.756 312.477 116.627 311.77 116.63Z" fill="#2E2044"/>
<path d="M383.31 98.2402H374.58V117.3H383.31V98.2402Z" fill="#2E2044"/>
<path d="M367.99 107.76H359.26V117.29H367.99V107.76Z" fill="#2E2044"/>
<path d="M398.62 88.3101H389.89V117.29H398.62V88.3101Z" fill="#2E2044"/>
<path d="M413.94 79.1802H405.21V117.29H413.94V79.1802Z" fill="#2E2044"/>
<path d="M703.74 80.9199C700.32 80.9199 697.43 82.6699 695.07 86.2199C693.484 89.9631 692.694 93.9951 692.75 98.0599V98.3099C692.704 102.165 693.382 105.995 694.75 109.6C696.89 113.55 699.88 115.55 703.64 115.55H703.93C707.39 115.55 710.28 113.8 712.57 110.23C714.025 106.744 714.789 103.008 714.82 99.2299V97.2299C714.758 93.906 714.175 90.6124 713.09 87.4699C710.95 83.0999 707.81 80.9199 703.74 80.9199ZM699.36 108.64C697.848 105.572 697.116 102.178 697.23 98.7599V97.7599C697.253 94.9893 697.681 92.237 698.5 89.5899C699.67 86.8399 701.42 85.4999 703.87 85.4999C705.87 85.4999 707.51 86.5499 708.8 88.5899C709.941 91.6269 710.524 94.8454 710.52 98.0899C710.497 99.5128 710.38 100.933 710.17 102.34C709.55 108.09 707.48 110.89 703.87 110.89H703.62C702.785 110.868 701.966 110.653 701.227 110.263C700.488 109.873 699.849 109.317 699.36 108.64Z" fill="#2E2044"/>
<path d="M726.36 80.96C724.641 80.9885 722.951 81.4092 721.42 82.19C717.64 84.47 715.72 87.6099 715.72 91.5099C715.747 93.2322 716.167 94.9254 716.95 96.46C719.08 99.99 721.95 101.89 725.75 102.12L721 108.58C718.42 111.72 718.07 112.64 718.07 113.17C718.07 113.89 718.36 115.17 720.45 115.55C720.998 115.522 721.525 115.326 721.96 114.99L733.72 99.24C735.686 97.135 736.823 94.3888 736.92 91.5099C736.856 89.6511 736.341 87.8358 735.42 86.22C733.07 82.73 730.02 80.96 726.36 80.96ZM732.15 91.61C732.161 92.5005 731.951 93.38 731.54 94.17C731.08 95.1499 730.346 95.9756 729.427 96.5471C728.507 97.1185 727.442 97.4113 726.36 97.39C725.545 97.4097 724.736 97.2634 723.98 96.96C721.63 95.67 720.48 94.03 720.48 91.96V91.17C720.511 90.617 720.608 90.0697 720.77 89.5399C722.02 86.9699 723.71 85.7299 725.92 85.7299H726.46C726.971 85.7103 727.483 85.7814 727.97 85.94C730.76 87.01 732.13 88.83 732.13 91.61H732.15Z" fill="#2E2044"/>
<path d="M745.77 107.67H745.36C744.21 107.67 742.72 108.25 742.12 111.1C742.12 112.47 742.73 114.21 745.62 114.71H745.75H745.88C748.59 114.05 749.16 112.54 749.16 111.39V110.79C748.61 108.21 747.01 107.67 745.77 107.67Z" fill="#2E2044"/>
<path d="M745.68 92.1699C744.39 92.1699 742.74 92.7599 742.16 95.6899C742.16 97.0499 742.75 98.7699 745.68 99.2099H746.25H746.36C748.7 98.3799 749.2 97.0099 749.2 96.0099V95.2699V95.0599C748.36 92.6599 746.83 92.1699 745.68 92.1699Z" fill="#2E2044"/>
<path d="M762.18 80.9199C758.76 80.9199 755.86 82.6699 753.52 86.2199C751.926 89.961 751.133 93.994 751.19 98.0599V98.3099C751.144 102.165 751.822 105.995 753.19 109.6C755.33 113.55 758.32 115.55 762.09 115.55H762.36C765.83 115.55 768.72 113.8 771.01 110.23C772.469 106.744 773.236 103.008 773.27 99.2299V97.2299C773.205 93.9055 772.618 90.612 771.53 87.4699C769.36 83.0999 766.25 80.9199 762.18 80.9199ZM768.92 98.1299C768.894 99.5522 768.781 100.972 768.58 102.38C767.94 108.13 765.88 110.93 762.27 110.93H762.02C761.181 110.903 760.36 110.683 759.621 110.285C758.882 109.888 758.245 109.325 757.76 108.64C756.248 105.572 755.516 102.178 755.63 98.7599V97.7599C755.654 94.9893 756.082 92.237 756.9 89.5899C758.07 86.8399 759.83 85.4999 762.27 85.4999C764.27 85.4999 765.91 86.5499 767.2 88.5899C768.346 91.6395 768.929 94.872 768.92 98.1299Z" fill="#2E2044"/>
<path d="M794.48 87.46C792.35 83.14 789.2 80.96 785.13 80.96C781.72 80.96 778.82 82.7099 776.47 86.2599C774.876 90.001 774.083 94.034 774.14 98.1V98.35C774.094 102.205 774.772 106.035 776.14 109.64C778.28 113.59 781.27 115.59 785.04 115.59H785.32C788.79 115.59 791.68 113.84 793.97 110.27C795.421 106.782 796.185 103.047 796.22 99.27V97.27C796.16 93.9287 795.573 90.6179 794.48 87.46ZM780.71 108.68C779.202 105.61 778.471 102.218 778.58 98.8V97.8C778.609 95.0298 779.036 92.2781 779.85 89.63C781.02 86.88 782.78 85.5399 785.22 85.5399C787.22 85.5399 788.86 86.59 790.15 88.63C791.292 91.667 791.874 94.8855 791.87 98.13C791.85 99.5525 791.736 100.972 791.53 102.38C790.9 108.13 788.84 110.93 785.22 110.93H784.97C784.132 110.902 783.311 110.681 782.572 110.283C781.833 109.886 781.196 109.324 780.71 108.64V108.68Z" fill="#2E2044"/>
<path d="M905.86 83.0801H849.67C847.219 83.0801 844.869 84.0536 843.136 85.7864C841.403 87.5192 840.43 89.8695 840.43 92.3201V104.15C840.43 106.601 841.403 108.951 843.136 110.684C844.869 112.417 847.219 113.39 849.67 113.39H905.86C908.31 113.39 910.661 112.417 912.393 110.684C914.126 108.951 915.1 106.601 915.1 104.15V92.3201C915.1 89.8695 914.126 87.5192 912.393 85.7864C910.661 84.0536 908.31 83.0801 905.86 83.0801ZM905.04 107.29H866.43V89.1801H905.07C906.097 89.1854 907.08 89.5979 907.804 90.3271C908.528 91.0563 908.932 92.0428 908.93 93.0701V103.38C908.934 103.893 908.836 104.402 908.642 104.876C908.448 105.351 908.162 105.783 907.8 106.147C907.439 106.51 907.008 106.799 906.535 106.995C906.061 107.191 905.553 107.291 905.04 107.29Z" fill="#2E2044"/>
<g style="mix-blend-mode:multiply">
<path d="M892 688.29C891.4 726.29 897.83 764.08 900.4 801.94C903.62 849.35 901.25 897.2 889.1 943.48C876.58 991.16 853.24 1036.01 822.34 1075.62C806.79 1095.56 788.73 1113.52 772.03 1132.62C754.262 1152.9 737.594 1174.12 722.1 1196.19C720.81 1198.03 719.52 1199.87 718.25 1201.72C716.69 1203.99 715.16 1206.27 713.63 1208.55C712.63 1210 711.63 1211.45 710.63 1212.89C685.08 1251.72 629.22 1377.69 616.53 1415.08C616.752 1415.17 616.966 1415.28 617.17 1415.4H633.02C633.51 1415.4 642.29 1415.4 656.16 1415.4H845.76C857.49 1415.4 866.06 1415.19 869.76 1415.03C886.77 1413.18 902.499 1405.12 913.926 1392.38C925.352 1379.65 931.672 1363.14 931.67 1346.03V1208.53H935.54C935.54 1208.53 936.77 580.53 936.77 565.66C905.54 599.07 892.69 644.61 892 688.29Z" fill="#BEDCFF"/>
</g>
<path d="M1079.56 1550.14C1079.56 1550.14 826.94 1672.62 751.26 1628.81C670.06 1582 658.49 1428.59 732.7 1281.16C754.65 1237.73 780.358 1196.31 809.53 1157.36C855.08 1096.82 907.17 1030.3 916.53 955.11C933.64 817.04 885.74 728.11 893.53 639.48C907.1 483.09 1042.53 472.81 1042.53 472.81C1042.53 472.81 1093.78 873.94 1152.39 1041.19C1179.15 1117.55 1115.89 1310.61 1084.24 1447.05C1075.6 1483.97 1076.23 1512.39 1079.56 1550.14Z" fill="#FFC6A7"/>
<path d="M1071.68 671.59C1041.38 662.59 1012.68 637.4 1006.28 604.05L995.89 549.2C995.032 544.729 995.895 540.099 998.305 536.236C1000.72 532.374 1004.5 529.564 1008.89 528.37L1048.54 517.68C1048.54 517.68 1061.67 608.27 1071.68 671.59Z" fill="#FFE1D5"/>
<path d="M621.677 661.863V566H574.323V661.863H554L597.998 742L642 661.863H621.677Z" fill="#FF5E14"/>
</g>
<defs>
<clipPath id="clip0_230_221">
<rect width="1345.58" height="1928.46" fill="white"/>
</clipPath>
</defs>
</svg>
