<svg width="26" height="47" viewBox="0 0 26 47" fill="none" xmlns="http://www.w3.org/2000/svg">
<path d="M26 13.6536C25.9999 10.6479 25.0081 7.72627 23.1783 5.34176C21.3486 2.95725 18.7831 1.24313 15.8799 0.465229C12.9767 -0.312672 9.89787 -0.110874 7.12101 1.03933C4.34416 2.18952 2.02441 4.22385 0.521552 6.82679C0.0048773 7.72294 -0.134772 8.7876 0.133306 9.78669C0.401384 10.7858 1.05525 11.6375 1.95114 12.1547C2.84703 12.6718 3.91162 12.812 4.91084 12.5444C5.91007 12.2768 6.76215 11.6234 7.27974 10.7278C7.79405 9.83908 8.53278 9.10105 9.42198 8.58758C10.3112 8.07412 11.3197 7.80323 12.3465 7.80204C13.8984 7.80204 15.3867 8.41854 16.4841 9.51591C17.5815 10.6133 18.198 12.1016 18.198 13.6536C18.198 15.2055 17.5815 16.6938 16.4841 17.7912C15.3867 18.8886 13.8984 19.5051 12.3465 19.5051H12.337C12.0864 19.5302 11.839 19.5807 11.5986 19.656C11.3358 19.6833 11.0763 19.7364 10.8238 19.8146C10.609 19.9313 10.4059 20.0683 10.2172 20.2236C9.99312 20.3455 9.78146 20.4889 9.58519 20.6518C9.40978 20.8611 9.25673 21.0882 9.12854 21.3294C8.9864 21.5053 8.86019 21.6935 8.75139 21.8918C8.66661 22.1606 8.61058 22.4378 8.58423 22.7184C8.5163 22.9427 8.46984 23.173 8.44547 23.4061V27.3071L8.45452 27.3513L8.45882 29.2671C8.4615 30.3 8.87366 31.2897 9.60493 32.0192C10.3362 32.7487 11.3269 33.1584 12.3598 33.1586H12.3693C13.4039 33.156 14.3951 32.7426 15.1249 32.0092C15.8547 31.2759 16.2633 30.2827 16.2608 29.2481L16.2549 26.668C19.0619 25.8336 21.5254 24.1172 23.2807 21.7731C25.0359 19.429 25.9894 16.5819 26 13.6536ZM9.60548 40.1414C9.05776 40.6846 8.6834 41.378 8.52972 42.134C8.37604 42.89 8.44994 43.6745 8.74209 44.3885C9.03423 45.1025 9.5315 45.7138 10.171 46.1452C10.8106 46.5766 11.5636 46.8086 12.335 46.8121C13.3696 46.8037 14.3616 46.3988 15.1065 45.6808C15.8306 44.9408 16.236 43.9466 16.236 42.9113C16.236 41.8759 15.8306 40.8817 15.1065 40.1417C14.3597 39.4457 13.3769 39.0587 12.3561 39.0587C11.3352 39.0586 10.3523 39.4455 9.60548 40.1414Z" fill="white"/>
</svg>
