<?xml version="1.0"?>
<svg xmlns:rdf="http://www.w3.org/1999/02/22-rdf-syntax-ns#" xmlns="http://www.w3.org/2000/svg" xmlns:cc="http://web.resource.org/cc/" xmlns:xlink="http://www.w3.org/1999/xlink" xmlns:dc="http://purl.org/dc/elements/1.1/" xmlns:svg="http://www.w3.org/2000/svg" id="Layer_1" xml:space="preserve" viewBox="0 0 264.107 265.59" version="1.1" x="0px" y="0px" enable-background="new 0 0 264.107 265.59">
	<path d="m19.147 132.57l5.333-1.779s11.378-8.176 18.134-9.244c6.756-1.067 30.933-4.979 30.933-4.979s11.021-22.754 14.577-26.31c3.556-3.556 23.466-21.333 27.377-23.821 3.912-2.489 14.224-10.312 20.623-20.267 6.4-9.956 20.977-39.467 24.534-41.6 3.555-2.133 7.464-5.334 12.086-3.2 4.624 2.134 9.957 8.532 4.269 21.688s-18.489 33.421-18.489 33.421l12.801-20.266s19.554-13.512 25.242-17.778c5.689-4.266 17.067-13.156 28.801-3.2 11.733 9.957-7.468 27.377-7.468 27.377l-35.909 33.422s43.73-37.332 45.509-40.177c1.778-2.844 13.156-11.377 23.11-0.711 9.955 10.667-4.618 27.022-9.599 34.489-4.978 7.466-42.31 35.199-42.31 35.199l44.089-32s10.31-7.466 18.486 3.2c8.179 10.667-9.244 31.289-12.442 33.422-3.201 2.133-38.044 27.733-38.044 27.733s-47.289 31.645-52.622 35.911c-5.334 4.266-23.823 10.309-25.955 12.088-2.134 1.778-8.533 6.044-8.533 6.044l-20.266 40.532-3.2 0.355s0.71 5.688-1.067 8.178-6.399 4.622-7.11 2.845c-0.712-1.777-32.71-28.087-49.777-55.82-17.075-27.73-24.895-34.84-23.119-54.75z" fill="#E44145"/>
	<path stroke="#000" stroke-width="1.3392" d="m169.54 37.64s-2.49-2.844-4.621 2.489c-2.135 5.333-17.067 21.688-11.378 25.244s17.423-9.243 31.288-23.821c13.867-14.578 26.312-29.51 28.088-29.866 1.779-0.355 4.622-1.067 4.622-1.067s-12.444-1.066-30.22 14.578c-17.78 15.643-17.78 12.443-17.78 12.443z" fill="#552582"/>
	<path stroke="#000" stroke-width="1.3392" d="m225.01 33.729s-21.332 16-23.466 18.132c-2.132 2.133-20.977 16-22.756 18.844l-1.776 2.845s-4.266 5.689 0 8.889c4.266 3.2 7.465 3.2 10.312 2.133 2.843-1.067 25.954-17.779 31.287-22.4 5.332-4.622 24.887-19.912 25.954-25.245s-3.555-5.688-4.978-5.688c-1.42 0-4.978-1.067-6.044 0-1.065 1.067-9.601 8.179-9.601 8.179l-18.12 15.289s9.958-9.601 12.089-12.089c2.13-2.49 7.11-8.889 7.11-8.889z" fill="#552582"/>
	<path stroke="#000" stroke-width="1.3392" d="m236.03 73.195s-14.224 10.311-18.489 13.511-17.06 13.154-17.06 13.154-4.264 3.2-3.555 6.756c0.711 3.556 0.711 12.445 14.933 3.2 14.223-9.245 30.935-20.267 30.935-20.267l18.486-13.511s-6.044-5.689-8.177-5.333c-2.135 0.356-9.602 1.423-11.733 3.557-2.134 2.133-14.576 9.955-14.576 9.955l9.25-11.026z" fill="#552582"/>
	<path stroke="#000" stroke-width="1.3392" d="m19.147 132.57l5.333-1.779s11.378-8.176 18.134-9.244c6.756-1.067 30.933-4.979 30.933-4.979s11.021-22.754 14.577-26.31c3.556-3.556 23.466-21.333 27.377-23.821 3.912-2.489 14.224-10.312 20.623-20.267 6.4-9.956 20.977-39.467 24.534-41.6 3.555-2.133 7.464-5.334 12.086-3.2 4.624 2.134 9.957 8.532 4.269 21.688s-18.489 33.421-18.489 33.421l12.801-20.266s19.554-13.512 25.242-17.778c5.689-4.266 17.067-13.156 28.801-3.2 11.733 9.957-7.468 27.377-7.468 27.377l-35.909 33.422s43.73-37.332 45.509-40.177c1.778-2.844 13.156-11.377 23.11-0.711 9.955 10.667-4.618 27.022-9.599 34.489-4.978 7.466-42.31 35.199-42.31 35.199l44.089-32s10.31-7.466 18.486 3.2c8.179 10.667-9.244 31.289-12.442 33.422-3.201 2.133-38.044 27.733-38.044 27.733s-47.289 31.645-52.622 35.911c-5.334 4.266-23.823 10.309-25.955 12.088-2.134 1.778-8.533 6.044-8.533 6.044l-20.266 40.532-3.2 0.355s0.71 5.688-1.067 8.178-6.399 4.622-7.11 2.845c-0.712-1.777-32.71-28.087-49.777-55.82-17.075-27.73-24.895-34.84-23.119-54.75z" fill="none"/>
	<path stroke="#000" stroke-width="1.3392" d="m26.092 130.26l1.233 2.662s0.71 2.134 1.066 4.979c0.355 2.844 9.957 22.753 13.511 28.087 3.554 5.333 12.444 19.911 14.932 20.979 2.49 1.067 12.801 15.999 17.778 23.465 4.978 7.467 24.177 20.623 24.177 20.623s2.232 1.223 2.232 3.006c0 1.784 0 6.488-2.432 8.435-2.433 1.945-3.08 2.107-5.514 1.298-2.434-0.811-32.438-27.896-48.008-50.278-15.569-22.383-25.3-38.438-26.761-46.873-1.459-8.434-5.676-14.273 0.811-16.219 6.49-1.95 5.355-2.44 6.976-0.17" fill="#552582"/>
	<polyline stroke="#000" stroke-width=".6696" fill="none" points="120.59 193.42 123.24 186.94 116.76 188.41 119.41 182.52 113.22 182.52 114.99 176.92 107.62 178.1 110.27 173.09 103.79 173.38 105.85 167.49 99.076 168.67 101.43 162.18 93.771 162.18 95.834 156.29 88.172 156.88 91.708 149.22 83.75 150.39 87.583 144.5 81.098 144.5 85.224 139.49 78.151 139.49 82.572 133.6 74.32 133.3 79.92 128.29 72.846 128 77.856 122.69 70.488 122.69 74.91 117.68"/>
	<path d="m244.96 153.24l-5.334-1.779s-11.377-8.176-18.133-9.243c-6.754-1.067-30.933-4.979-30.933-4.979s-11.021-22.754-14.576-26.311c-3.557-3.556-23.467-21.332-27.378-23.821-3.912-2.488-14.223-10.312-20.623-20.267-6.398-9.955-20.977-39.466-24.531-41.599-3.558-2.133-7.465-5.334-12.089-3.2-4.622 2.134-9.955 8.532-4.266 21.688 5.689 13.157 18.487 33.422 18.487 33.422l-12.803-20.27s-19.557-13.512-25.246-17.778-17.064-13.156-28.799-3.2c-11.733 9.956 7.466 27.377 7.466 27.377l35.912 33.421s-43.731-37.332-45.51-40.176c-1.778-2.844-13.156-11.378-23.111-0.711s4.619 27.023 9.599 34.489c4.978 7.466 42.311 35.199 42.311 35.199l-44.09-32s-10.31-7.467-18.487 3.2c-8.179 10.667 9.244 31.29 12.443 33.422 3.201 2.133 38.045 27.732 38.045 27.732s47.287 31.645 52.62 35.91c5.333 4.267 23.823 10.311 25.958 12.089 2.131 1.777 8.531 6.045 8.531 6.045l20.266 40.531 3.201 0.356s-0.711 5.688 1.067 8.178c1.776 2.488 6.398 4.621 7.109 2.844 0.712-1.776 32.71-28.087 49.777-55.82 17.06-27.73 24.88-34.84 23.1-54.75z" fill="#E44145"/>
	<path stroke="#000" stroke-width="1.3392" d="m94.562 58.304s2.49-2.845 4.625 2.488c2.131 5.333 17.066 21.688 11.377 25.244-5.689 3.557-17.422-9.243-31.29-23.821-13.865-14.578-26.31-29.51-28.089-29.866-1.776-0.355-4.622-1.067-4.622-1.067s12.445-1.066 30.223 14.578c17.78 15.644 17.78 12.444 17.78 12.444z" fill="#552582"/>
	<path stroke="#000" stroke-width="1.3392" d="m39.098 54.394s21.333 16 23.465 18.132c2.135 2.133 20.98 16 22.755 18.844l1.779 2.845s4.266 5.689 0 8.889c-4.266 3.2-7.468 3.2-10.311 2.133-2.846-1.067-25.957-17.778-31.29-22.4-5.332-4.622-24.886-19.911-25.953-25.245-1.067-5.333 3.554-5.688 4.977-5.688 1.42 0 4.978-1.067 6.044 0 1.065 1.067 9.6 8.179 9.6 8.179l18.132 15.288s-9.955-9.6-12.089-12.089c-2.13-2.483-7.109-8.881-7.109-8.881z" fill="#552582"/>
	<path stroke="#000" stroke-width="1.3392" d="m28.076 93.859s14.223 10.311 18.488 13.511c4.266 3.2 17.067 13.155 17.067 13.155s4.266 3.201 3.554 6.756c-0.709 3.556-0.709 12.445-14.932 3.2-14.222-9.245-30.934-20.267-30.934-20.267l-18.486-13.507s6.045-5.688 8.177-5.333c2.134 0.356 9.602 1.423 11.733 3.556 2.134 2.133 14.577 9.955 14.577 9.955l-9.244-11.021z" fill="#552582"/>
	<path stroke="#000" stroke-width="1.3392" d="m244.96 153.24l-5.334-1.779s-11.377-8.176-18.133-9.243c-6.754-1.067-30.933-4.979-30.933-4.979s-11.021-22.754-14.576-26.311c-3.557-3.556-23.467-21.332-27.378-23.821-3.912-2.488-14.223-10.312-20.623-20.267-6.398-9.955-20.977-39.466-24.531-41.599-3.558-2.133-7.465-5.334-12.089-3.2-4.622 2.134-9.955 8.532-4.266 21.688 5.689 13.157 18.487 33.422 18.487 33.422l-12.803-20.27s-19.557-13.512-25.246-17.778-17.064-13.156-28.799-3.2c-11.733 9.956 7.466 27.377 7.466 27.377l35.912 33.421s-43.731-37.332-45.51-40.176c-1.778-2.844-13.156-11.378-23.111-0.711s4.619 27.023 9.599 34.489c4.978 7.466 42.311 35.199 42.311 35.199l-44.09-32s-10.31-7.467-18.487 3.2c-8.179 10.667 9.244 31.29 12.443 33.422 3.201 2.133 38.045 27.732 38.045 27.732s47.287 31.645 52.62 35.91c5.333 4.267 23.823 10.311 25.958 12.089 2.131 1.777 8.531 6.045 8.531 6.045l20.266 40.531 3.201 0.356s-0.711 5.688 1.067 8.178c1.776 2.488 6.398 4.621 7.109 2.844 0.712-1.776 32.71-28.087 49.777-55.82 17.06-27.73 24.88-34.84 23.1-54.75z" fill="none"/>
	<path stroke="#000" stroke-width="1.3392" d="m238.02 150.93l-1.231 2.661s-0.711 2.134-1.067 4.979c-0.355 2.844-9.955 22.754-13.512 28.087-3.555 5.334-12.442 19.912-14.933 20.978-2.486 1.067-12.8 16-17.778 23.467-4.977 7.466-24.175 20.622-24.175 20.622s-2.234 1.223-2.234 3.007 0 6.488 2.433 8.434c2.433 1.946 3.081 2.108 5.515 1.297s32.438-27.895 48.009-50.277c15.569-22.383 25.3-38.438 26.76-46.872 1.459-8.434 5.675-14.273-0.812-16.22-6.5-1.95-5.36-2.44-6.98-0.17" fill="#552582"/>
	<polyline stroke="#000" stroke-width=".6696" fill="none" points="143.52 214.09 140.87 207.6 147.35 209.08 144.7 203.18 150.89 203.18 149.12 197.58 156.48 198.76 153.83 193.75 160.32 194.05 158.25 188.15 165.03 189.33 162.68 182.85 170.34 182.85 168.28 176.95 175.94 177.54 172.4 169.88 180.36 171.06 176.53 165.17 183.01 165.17 178.88 160.16 185.96 160.16 181.54 154.26 189.79 153.96 184.19 148.96 191.26 148.66 186.25 143.36 193.62 143.36 189.2 138.34"/>
<metadata><rdf:RDF><cc:Work><dc:format>image/svg+xml</dc:format><dc:type rdf:resource="http://purl.org/dc/dcmitype/StillImage"/><cc:license rdf:resource="http://creativecommons.org/licenses/publicdomain/"/><dc:publisher><cc:Agent rdf:about="http://openclipart.org/"><dc:title>Openclipart</dc:title></cc:Agent></dc:publisher><dc:title>gloves</dc:title><dc:date>2007-08-13T17:48:40</dc:date><dc:description>a pair of gloves or mittens</dc:description><dc:source>http://openclipart.org/detail/4787/gloves-by-johnny_automatic</dc:source><dc:creator><cc:Agent><dc:title>johnny_automatic</dc:title></cc:Agent></dc:creator><dc:subject><rdf:Bag><rdf:li>accessory</rdf:li><rdf:li>apparel</rdf:li><rdf:li>clip art</rdf:li><rdf:li>clipart</rdf:li><rdf:li>clothing</rdf:li><rdf:li>colour</rdf:li><rdf:li>gloves</rdf:li><rdf:li>image</rdf:li><rdf:li>media</rdf:li><rdf:li>mittens</rdf:li><rdf:li>png</rdf:li><rdf:li>public domain</rdf:li><rdf:li>svg</rdf:li></rdf:Bag></dc:subject></cc:Work><cc:License rdf:about="http://creativecommons.org/licenses/publicdomain/"><cc:permits rdf:resource="http://creativecommons.org/ns#Reproduction"/><cc:permits rdf:resource="http://creativecommons.org/ns#Distribution"/><cc:permits rdf:resource="http://creativecommons.org/ns#DerivativeWorks"/></cc:License></rdf:RDF></metadata></svg>
