<svg width="156" height="156" viewBox="0 0 156 156" fill="none" xmlns="http://www.w3.org/2000/svg">
<path fill-rule="evenodd" clip-rule="evenodd" d="M112.578 39.3313C113.202 37.7965 114.952 37.0583 116.487 37.6825C118.022 38.3067 118.76 40.0569 118.136 41.5917C118.113 41.6472 118.089 41.7016 118.064 41.755C126.056 50.6083 130.91 61.8826 131.822 73.8264C132.805 86.6897 129.149 99.4796 121.518 109.881C113.887 120.283 102.784 127.609 90.2189 130.533C78.2432 133.32 65.6935 131.933 54.6382 126.633C53.8152 127.532 52.4892 127.873 51.2939 127.387C49.7592 126.762 49.021 125.012 49.6452 123.477C50.2694 121.943 52.0196 121.204 53.5544 121.829C54.8119 122.34 55.5347 123.608 55.4113 124.893C66.089 130.025 78.2159 131.372 89.7875 128.679C101.91 125.858 112.621 118.79 119.983 108.755C127.346 98.7203 130.872 86.3812 129.924 73.9714C129.048 62.4912 124.396 51.6523 116.737 43.1255C115.984 43.5146 115.073 43.5845 114.227 43.2404C112.692 42.6162 111.954 40.866 112.578 39.3313Z" fill="white"/>
<path fill-rule="evenodd" clip-rule="evenodd" d="M37.6301 110.895C38.2952 110.652 39.0485 110.642 39.7591 110.922C41.3005 111.53 42.0576 113.272 41.4501 114.813C40.8425 116.355 39.1004 117.112 37.559 116.504C36.0175 115.897 35.2605 114.154 35.868 112.613C35.9427 112.423 36.0346 112.246 36.1412 112.081C28.7658 103.048 24.497 91.8465 24.0163 80.1468C23.4989 67.5539 27.4027 55.1767 35.0513 45.1593C42.6999 35.142 53.6116 28.1156 65.896 25.2973C77.2395 22.6949 89.0937 23.8322 99.7012 28.4953C100.49 27.4361 101.918 26.991 103.206 27.4987C104.748 28.1062 105.505 29.8483 104.897 31.3897C104.29 32.9312 102.548 33.6883 101.006 33.0807C99.8339 32.6186 99.1153 31.5003 99.1056 30.313C88.8287 25.7513 77.3261 24.6279 66.3216 27.1525C54.4702 29.8715 43.9432 36.6502 36.5641 46.3144C29.1851 55.9787 25.4189 67.9196 25.9181 80.0686C26.3822 91.3637 30.5058 102.177 37.6301 110.895Z" fill="white"/>
</svg>
