<svg width="156" height="156" viewBox="0 0 156 156" fill="none" xmlns="http://www.w3.org/2000/svg">
<path fill-rule="evenodd" clip-rule="evenodd" d="M120.05 108.342C121.642 108.799 122.563 110.461 122.106 112.054C121.648 113.646 119.987 114.566 118.394 114.109C118.337 114.093 118.28 114.075 118.224 114.055C110.272 122.944 99.5794 128.972 87.8006 131.151C75.1151 133.498 62.0086 131.226 50.8534 124.746C39.6983 118.266 31.2315 108.006 26.9858 95.8241C22.9391 84.2132 22.9817 71.5872 27.0735 60.0304C26.0917 59.3079 25.6122 58.0257 25.9682 56.7854C26.4254 55.1929 28.087 54.2725 29.6795 54.7297C31.2721 55.1868 32.1925 56.8485 31.7353 58.441C31.3607 59.7459 30.1774 60.5995 28.8861 60.6138C24.9203 71.7774 24.873 83.9787 28.7831 95.1976C32.8792 106.95 41.0475 116.848 51.8095 123.1C62.5715 129.351 75.216 131.544 87.4543 129.28C98.7758 127.185 109.058 121.405 116.72 112.881C116.253 112.175 116.087 111.276 116.339 110.398C116.796 108.805 118.457 107.885 120.05 108.342Z" fill="#FF5E14"/>
<path fill-rule="evenodd" clip-rule="evenodd" d="M40.9107 41.4428C41.2233 42.0783 41.3134 42.8262 41.1106 43.5626C40.6706 45.16 39.0191 46.0983 37.4217 45.6584C35.8243 45.2185 34.886 43.5669 35.3259 41.9695C35.7658 40.3721 37.4174 39.4338 39.0148 39.8737C39.2112 39.9278 39.3977 40.0003 39.5729 40.0887C47.7693 31.7932 58.452 26.3556 70.0341 24.6315C82.5002 22.7759 95.2228 25.3391 105.998 31.8773C116.773 38.4155 124.921 48.5167 129.032 60.4311C132.828 71.4329 132.96 83.3408 129.453 94.3846C130.59 95.0566 131.185 96.4291 130.817 97.7637C130.377 99.3611 128.726 100.299 127.128 99.8595C125.531 99.4196 124.593 97.7681 125.032 96.1707C125.367 94.9557 126.402 94.1221 127.582 93.986C131.023 83.2817 130.915 71.7249 127.233 61.0519C123.267 49.5575 115.406 39.8123 105.01 33.5046C94.6152 27.1968 82.3411 24.7239 70.3143 26.5142C59.1329 28.1786 48.8203 33.4305 40.9107 41.4428Z" fill="#FF5E14"/>
</svg>
