<svg width="730" height="459" viewBox="0 0 730 459" fill="none" xmlns="http://www.w3.org/2000/svg">
<g clip-path="url(#clip0_204_2)">
<path d="M424.155 305.392C471.904 257.643 471.904 180.226 424.155 132.476C376.405 84.7271 298.988 84.7271 251.239 132.476C203.489 180.226 203.489 257.643 251.239 305.392C298.988 353.142 376.405 353.142 424.155 305.392Z" fill="#4A559E"/>
<path d="M13.3003 409.76L549.87 331.8" stroke="#FCFCFD" stroke-linecap="round" stroke-linejoin="round"/>
<path d="M107.09 458L630.53 359.82" stroke="#FCFCFD" stroke-linecap="round" stroke-linejoin="round"/>
<path d="M434.32 458L691.12 384.24" stroke="white" stroke-linecap="round" stroke-linejoin="round"/>
<path d="M1.08008 105.84C1.08008 105.84 278.08 179.57 418.13 192.36C558.18 205.15 728.92 142.23 728.92 142.23" stroke="white" stroke-linecap="round" stroke-linejoin="round"/>
<path d="M8.55029 258.29C8.55029 258.29 499.92 220.69 721.45 310.7" stroke="white" stroke-linecap="round" stroke-linejoin="round"/>
<path d="M13.3003 296.32C13.3003 296.32 422.9 241.43 715.15 396.38C717.196 397.277 719.301 398.032 721.45 398.64" stroke="white" stroke-linecap="round" stroke-linejoin="round"/>
<path d="M50.4902 27.2401C45.4902 25.4901 41.4302 19.1101 41.4302 13.0301C41.4302 6.95011 45.5402 3.71011 50.4902 5.74011L54.7002 7.46011V28.7301L50.4902 27.2401Z" fill="#161616"/>
<path d="M63.1598 21.32C63.1598 27.06 59.4198 30.39 54.6998 28.73C49.9798 27.07 45.8398 20.73 45.8398 14.73C45.8398 8.72997 49.8398 5.48997 54.6998 7.46997C59.5598 9.44997 63.1598 15.58 63.1598 21.32Z" fill="white"/>
<path d="M85.8499 39.71C81.7899 38.28 78.4199 32.63 78.4199 27.13C78.4199 21.63 81.7899 18.55 85.8499 20.22L89.3199 21.64V40.94L85.8499 39.71Z" fill="#161616"/>
<path d="M96.3 34C96.3 39.22 93.21 42.36 89.3 41C85.39 39.64 82 34 82 28.51C82 23.02 85.3 20 89.28 21.64C93.26 23.28 96.3 28.73 96.3 34Z" fill="white"/>
<path d="M115.17 50.0501C111.78 48.8601 108.97 43.8001 108.97 38.7701C108.97 33.7401 111.78 30.8301 115.17 32.2201L118.08 33.4101V51.0801L115.17 50.0501Z" fill="#161616"/>
<path d="M123.94 44.4801C123.94 49.2701 121.34 52.2301 118.08 51.0801C114.82 49.9301 112 44.9 112 39.92C112 34.94 114.75 32.0501 118.09 33.4101C121.43 34.7701 123.94 39.6901 123.94 44.4801Z" fill="white"/>
<path d="M139.88 58.7702C137 57.7702 134.62 53.1702 134.62 48.5502C134.62 43.9302 137 41.1602 139.88 42.3402L142.35 43.3402V59.6302L139.88 58.7702Z" fill="#161616"/>
<path d="M147.34 53.4C147.34 57.82 145.12 60.62 142.34 59.64C139.56 58.66 137.17 54.1 137.17 49.53C137.17 44.96 139.5 42.19 142.34 43.35C145.18 44.51 147.34 49 147.34 53.4Z" fill="white"/>
<path d="M50.4902 55.85C45.4902 54.48 41.4302 48.41 41.4302 42.33C41.4302 36.25 45.5402 32.69 50.4902 34.33L54.7002 35.74V57L50.4902 55.85Z" fill="#161616"/>
<path d="M63.1598 49C63.1598 54.74 59.4198 58.36 54.6998 57C49.9798 55.64 45.8398 49.67 45.8398 43.66C45.8398 37.65 49.8398 34.12 54.6998 35.74C59.5598 37.36 63.1598 43.23 63.1598 49Z" fill="white"/>
<path d="M85.8499 65.65C81.7899 64.53 78.4199 59.13 78.4199 53.65C78.4199 48.17 81.7899 44.82 85.8499 46.18L89.3199 47.34V66.63L85.8499 65.65Z" fill="#161616"/>
<path d="M96.3 59.1001C96.3 64.3201 93.21 67.6901 89.3 66.6101C85.39 65.5301 82 60.1801 82 54.7401C82 49.3001 85.3 45.9901 89.28 47.3201C93.26 48.6501 96.3 53.8801 96.3 59.1001Z" fill="white"/>
<path d="M115.17 73.78C111.78 72.84 108.97 67.99 108.97 62.97C108.97 57.95 111.78 54.81 115.17 55.97L118.08 56.97V74.64L115.17 73.78Z" fill="#161616"/>
<path d="M123.94 67.54C123.94 72.33 121.34 75.49 118.08 74.54C114.82 73.59 111.99 68.81 111.99 63.84C111.99 58.87 114.74 55.76 118.08 56.84C121.42 57.92 123.94 62.76 123.94 67.54Z" fill="white"/>
<path d="M139.88 64.2C137 63.2 134.62 66.2 134.62 70.81C134.62 75.42 137 79.81 139.88 80.63L142.35 81.31V65L139.88 64.2Z" fill="#161616"/>
<path d="M147.34 74.6902C147.34 79.1102 145.12 82.0802 142.34 81.3102C139.56 80.5402 137.17 76.1702 137.17 71.5902C137.17 67.0102 139.5 64.0802 142.34 65.0202C145.18 65.9602 147.34 70.2702 147.34 74.6902Z" fill="white"/>
<path d="M50.4902 84.4701C45.4902 83.4701 41.4302 77.7101 41.4302 71.6301C41.4302 65.5501 45.5402 61.6801 50.4902 62.9601L54.7002 64.0501V85.3201L50.4902 84.4701Z" fill="#161616"/>
<path d="M63.1598 76.63C63.1598 82.37 59.4198 86.27 54.6998 85.32C49.9798 84.37 45.8398 78.66 45.8398 72.64C45.8398 66.62 49.8398 62.8001 54.6998 64.0501C59.5598 65.3001 63.1598 70.89 63.1598 76.63Z" fill="white"/>
<path d="M85.8499 91.5901C81.7899 90.7801 78.4199 85.5901 78.4199 80.1401C78.4199 74.6901 81.7899 71.0501 85.8499 72.1401L89.3199 73.0301V92.3301L85.8499 91.5901Z" fill="#161616"/>
<path d="M96.3 84.2502C96.3 89.4702 93.21 93.0802 89.3 92.2502C85.39 91.4202 82 86.4102 82 81.0002C82 75.5902 85.3 72.0002 89.28 73.0002C93.26 74.0002 96.3 79.0002 96.3 84.2502Z" fill="white"/>
<path d="M115.17 79.67C111.78 78.8 108.97 82.14 108.97 87.16C108.97 92.18 111.78 96.82 115.17 97.51L118.08 98.09V80.43L115.17 79.67Z" fill="#161616"/>
<path d="M123.94 90.6101C123.94 95.3901 121.34 98.7501 118.08 98.0901C114.82 97.4301 112 92.8301 112 87.8601C112 82.8901 114.75 79.5601 118.09 80.4301C121.43 81.3001 123.94 85.8201 123.94 90.6101Z" fill="white"/>
<path d="M139.88 102.49C137 101.91 134.62 97.68 134.62 93.06C134.62 88.44 137 85.31 139.88 86.06L142.35 86.7V103L139.88 102.49Z" fill="#161616"/>
<path d="M147.34 96C147.34 100.42 145.12 103.55 142.34 103C139.56 102.45 137.17 98.25 137.17 93.67C137.17 89.09 139.5 85.98 142.34 86.67C145.18 87.36 147.34 91.57 147.34 96Z" fill="white"/>
<path d="M716.7 458L286.25 344.02L8.43018 374.52L185.73 458" stroke="#FCFCFD" stroke-linecap="round" stroke-linejoin="round"/>
<path d="M417.17 438.56C418.76 431.82 567.5 431.56 566.98 438.56C566.46 445.56 415.59 445.29 417.17 438.56Z" fill="#161616"/>
<path d="M94.36 438.56C95.94 431.82 244.69 431.56 244.16 438.56C243.63 445.56 92.78 445.29 94.36 438.56Z" fill="#161616"/>
<path d="M398 213L390.52 213.56L263.12 223.15C268.977 211.258 273.324 198.681 276.06 185.71L233.8 159.22C233.8 159.22 245.24 153.28 258.87 146.54C274.41 138.87 292.77 130.14 300.29 127.95C306.54 126.13 321.74 124.15 337.41 123.22C357.04 122.05 377.41 122.5 381.88 126.94C390 134.93 398 213 398 213Z" fill="#296493"/>
<path d="M390.53 213.58L263.13 223.17C268.986 211.278 273.333 198.7 276.07 185.73C276.07 185.73 333.7 205.9 383.48 211.94C385.902 212.11 388.282 212.664 390.53 213.58Z" fill="#CC3C7E"/>
<path d="M344.87 138.82C344.87 138.82 345.12 148.82 344.87 154.51" stroke="#161616" stroke-linecap="round" stroke-linejoin="round"/>
<path d="M370.22 198.6C370.22 198.6 385.77 199.83 396.8 202.19" stroke="#161616" stroke-linecap="round" stroke-linejoin="round"/>
<path d="M308.8 138.38C307.91 148.38 303.33 159.97 276.07 185.73L233.81 159.24C233.81 159.24 245.25 153.3 258.88 146.56C274.42 138.89 292.78 130.16 300.3 127.97C300.3 128 309.7 128.4 308.8 138.38Z" fill="white"/>
<path d="M243 154.51C243 154.51 267.19 163.92 271.31 168.62C275.43 173.32 268.81 172.48 265.01 168.78" stroke="#161616" stroke-linecap="round" stroke-linejoin="round"/>
<path d="M233.81 159.24C245.1 153.48 276.07 185.73 276.07 185.73C275.43 189.178 274.595 192.586 273.57 195.94C273.57 195.94 219.48 166.54 233.81 159.24Z" fill="#161616"/>
<path d="M263.14 223.17C266.08 208.54 395 198.31 398 213C401 227.69 259.11 243.18 263.14 223.17Z" fill="#161616"/>
<path d="M337.42 123.24C337.22 124.478 336.611 125.612 335.69 126.463C334.769 127.313 333.589 127.83 332.34 127.93C319.69 129.93 306.23 132.4 306.23 132.4C299.52 136.1 281.47 147.52 274.72 149.27C267.97 151.02 258.88 146.56 258.88 146.56C274.42 138.89 292.78 130.16 300.3 127.97C306.55 126.15 321.75 124.17 337.42 123.24Z" fill="#4A559E"/>
<path d="M349.85 127.46C349.85 127.46 358.03 127.7 367.74 128.46C367.74 128.46 357.38 132.46 345.95 147.54C345.95 147.54 361.07 146.46 366.11 145.12C371.15 143.78 381.89 127 381.89 127C381.89 127 378.7 121.74 349.35 122.59C349.35 122.55 346.79 125.36 349.85 127.46Z" fill="#CC3C7E"/>
<path d="M331.38 166.87L382.9 195.94C382.9 195.94 413.9 142.39 381.9 126.94C363 117.83 331.38 166.87 331.38 166.87Z" fill="white"/>
<path d="M382.9 195.94C381.9 197.04 379.97 197.45 377.37 197.29C366.37 196.63 343.94 186.05 334.71 176.66C331.09 172.99 329.5 169.51 331.38 166.87C332.48 165.32 336.33 165.7 341.45 167.29C354.05 171.18 374.45 182.36 381.2 190.05C383.34 192.47 384.13 194.55 382.9 195.94Z" fill="#161616"/>
<path d="M395.68 160.88C395.68 160.88 394 169.36 392.81 172.93C391.62 176.5 366.81 165.53 363.92 166.93C361.03 168.33 377.53 177.22 385.25 184.69" stroke="#161616" stroke-linecap="round" stroke-linejoin="round"/>
<path d="M539 388H477.13L458.57 337.17L447.24 306.17C439.81 301.84 419.44 297.3 343.94 267.69C343.94 267.69 322.31 308.99 307.13 324.69C291.95 340.36 229.66 388.69 229.66 388.69L167.78 388C167.78 388 199.02 347.21 219.35 322.59C226.86 313.5 232.88 306.59 235.28 304.81C240.19 301.12 252.79 274.08 263.1 250.59C271.45 231.53 278.3 214.82 278.3 214.82C331.09 201.25 374.98 207.15 376.3 207.32C376.3 207.32 486.68 265.39 496.91 279.32C498.031 280.946 499.034 282.65 499.91 284.42C512.24 308.49 539 388 539 388Z" fill="#101111"/>
<path d="M376.31 207.31C316.83 221.37 263.93 250.12 263.1 250.57C271.45 231.51 278.3 214.8 278.3 214.8C331.09 201.23 374.98 207.13 376.3 207.3L376.31 207.31Z" fill="#310054"/>
<path d="M539 388H477.13L458.57 337.17C474.93 320.83 491.57 296.99 499.9 284.47C512.24 308.49 539 388 539 388Z" fill="#310054"/>
<path d="M307.13 324.63C291.95 340.3 229.66 388.63 229.66 388.63L167.78 388C167.78 388 199.02 347.21 219.35 322.59C237.68 326.19 271.73 330.78 307.13 324.63Z" fill="#310054"/>
<path d="M343.94 267.64C343.94 267.64 350.27 244.64 357.87 235.07C365.47 225.5 357.87 215.23 357.87 215.23" stroke="#161616" stroke-linecap="round" stroke-linejoin="round"/>
<path d="M447.24 306.12C447.24 306.12 453.69 292.78 458.36 288.12" stroke="#161616" stroke-linecap="round" stroke-linejoin="round"/>
<path d="M240.73 297.24C240.73 297.24 232.34 305.24 235.28 312.08C238.22 318.92 243.28 333.88 242.15 334.81C241.02 335.74 233.15 323.11 230.24 324.14" stroke="white" stroke-linecap="round" stroke-linejoin="round"/>
<path d="M179.57 372.7C179.57 372.7 197.12 369.36 210.51 369.7" stroke="white" stroke-linecap="round" stroke-linejoin="round"/>
<path d="M424.24 233.31L435.93 239.87C437.81 240.93 433.14 264.92 434.38 267.64C435.62 270.36 448.9 247.29 450.94 248.48C452.98 249.67 448.71 261.33 449.33 265.69C449.95 270.05 458.33 259.46 458.33 259.46" stroke="white" stroke-linecap="round" stroke-linejoin="round"/>
<path d="M473.5 378C473.5 378 478.39 370.69 496.66 367.63" stroke="white" stroke-linecap="round" stroke-linejoin="round"/>
<path d="M539 388C538.79 391.85 531.52 394.37 522 395.57C508.92 397.23 491.63 396.4 482.81 393.12C479.27 391.8 477.1 390.12 477.1 388C477.1 386.45 478.72 385.1 481.44 384C489.33 380.77 506.44 379.45 519.94 380.54C530.74 381.38 539.23 383.78 539 388Z" fill="#161616"/>
<path d="M229.65 388C229.45 391.58 223.13 394 214.59 395.31C201.59 397.31 183.59 396.59 174.13 393.31C170.22 391.98 167.78 390.19 167.78 387.97C167.78 385.17 173.1 383.04 180.61 381.7C193.1 379.5 211.67 379.5 222 382.29C226.77 383.58 229.79 385.45 229.65 388Z" fill="#161616"/>
<path d="M222 382.3L219.71 386.3L214.59 395.3L214.05 396.24L207.05 408.55L169.26 402.07L174.14 393.33L175.68 390.58L177.53 387.27L180.62 381.72C193.1 379.51 211.67 379.51 222 382.3Z" fill="#FE8F8C"/>
<path d="M222 382.3L219.71 386.3C199.2 386.57 175.71 390.58 175.71 390.58L177.56 387.27L180.65 381.72C193.1 379.51 211.67 379.51 222 382.3Z" fill="#F56961"/>
<path d="M218.06 324.14L272.62 359.4L261.67 369.68L211.68 331.98L218.06 324.14Z" fill="#CBD4DF"/>
<path d="M208.25 336.24L258.55 373.96L247.6 384.24L201.94 344.15L208.25 336.24Z" fill="#CBD4DF"/>
<path d="M272.11 367.27C236.11 400.35 208.3 421.14 208.3 421.14L194.8 412.39L185.13 406.12C185.13 406.12 256.08 328.68 267.13 318.69C278.18 308.7 319.73 298.93 323.82 310.9C325.63 316.18 300.61 341.1 272.11 367.27Z" fill="white"/>
<path d="M272.11 367.27C236.11 400.35 208.3 421.14 208.3 421.14L194.8 412.39C209.37 395.64 232.67 372.21 272.11 367.27Z" fill="#CBD4DF"/>
<path d="M189.68 409.76C189.68 409.76 262.4 331.44 269.74 324.76C281.81 313.81 306.29 307.2 323.82 310.88" stroke="#161616" stroke-linecap="round" stroke-linejoin="round"/>
<path d="M263.56 331L289.88 350.65" stroke="#161616" stroke-linecap="round" stroke-linejoin="round"/>
<path d="M257.45 337.36L283.22 356.95" stroke="#161616" stroke-linecap="round" stroke-linejoin="round"/>
<path d="M252.54 342.51L276.69 363.04" stroke="#161616" stroke-linecap="round" stroke-linejoin="round"/>
<path d="M254.15 429.45H144.56C142.68 432.344 141.048 435.392 139.68 438.56H224.39C233.62 438.56 252.01 434.5 253.25 434C254.49 433.5 254.15 429.45 254.15 429.45Z" fill="white"/>
<path d="M254.15 429.45C245.181 431.743 235.992 433.06 226.74 433.38C211.66 433.88 144.56 429.45 144.56 429.45C145.46 428.03 146.38 426.65 147.34 425.29C152.861 417.561 159.11 410.378 166 403.84C168.79 401.19 170.57 399.69 170.57 399.69C170.57 399.69 178.5 404.57 184.08 404.08C189.66 403.59 209.6 391.29 213.2 394.49C216.8 397.69 217.07 409.65 225.1 414.9C230.6 418.5 243.97 421.25 250.1 423.2C251.018 423.468 251.906 423.83 252.75 424.28C253.603 424.797 254.225 425.622 254.485 426.585C254.746 427.547 254.626 428.574 254.15 429.45Z" fill="#276293"/>
<path d="M201.07 403.84C201.07 403.84 217.47 400.09 218.5 400.93C219.53 401.77 205.61 407.36 205.41 409.44C205.21 411.52 221.14 406.74 222 407.78C222.86 408.82 212.89 414.78 209.16 416.29" stroke="white" stroke-linecap="round" stroke-linejoin="round"/>
<path d="M194.61 400.07C194.61 400.07 203.11 417.19 212.04 425.29" stroke="#161616" stroke-linecap="round" stroke-linejoin="round"/>
<path d="M250.07 423.22C241.64 431.22 230.19 423.96 227.07 422.72C223.95 421.48 216.54 426.88 210.9 427.72C205.26 428.56 205.37 424.4 205.37 424.4L225.05 414.92C230.55 418.52 243.92 421.27 250.05 423.22H250.07Z" fill="#430071"/>
<path d="M177.19 411.28C177.19 411.28 165.85 422.72 163 423.55C160.15 424.38 159.26 422.9 156.58 421.36C154.49 420.15 149.43 423.69 147.31 425.29C152.84 417.559 159.099 410.377 166 403.84C166 403.84 168 410.62 177.19 411.28Z" fill="white"/>
<path d="M173.49 414.9C173.49 414.9 187.63 418.15 191.94 419.4C196.25 420.65 173.17 431.21 173.17 431.21" stroke="#161616" stroke-linecap="round" stroke-linejoin="round"/>
<path d="M523.72 407.83H485L483.3 396.39L482.82 393.1L481.47 384C489.36 380.77 506.47 379.45 519.97 380.54L520.67 385.68L522.03 395.58L523.72 407.83Z" fill="#FE8F8C"/>
<path d="M520.67 385.65C502.14 389.08 483.32 396.39 483.32 396.39L482.84 393.1L481.47 384C489.36 380.77 506.47 379.45 519.97 380.54L520.67 385.65Z" fill="#F56961"/>
<path d="M461.15 344.38L515.4 310.69L519.76 325.06L464.27 352.91L461.15 344.38Z" fill="#CBD4DF"/>
<path d="M466.31 358.15L522.37 329.84L526.72 344.21L469.78 367.67L466.31 358.15Z" fill="#CBD4DF"/>
<path d="M525 322C538.67 368.95 545 403.08 545 403.08L531.17 411.3L521.26 417.19C521.26 417.19 483.32 319.25 479.26 304.91C475.2 290.57 484.89 249 497.43 250.65C502.92 251.35 514.15 284.83 525 322Z" fill="white"/>
<path d="M525 322C538.67 368.95 545 403.08 545 403.08L531.17 411.3C522.56 390.79 511.9 359.52 525 322Z" fill="#CBD4DF"/>
<path d="M526.48 414.7C526.48 414.7 488.55 314.79 485.83 305.25C481.37 289.57 486.31 264.71 497.38 250.63" stroke="#161616" stroke-linecap="round" stroke-linejoin="round"/>
<path d="M488.67 313.56L517.95 298.68" stroke="#161616" stroke-linecap="round" stroke-linejoin="round"/>
<path d="M491.66 321.85L520.65 307.45" stroke="#161616" stroke-linecap="round" stroke-linejoin="round"/>
<path d="M494.09 328.53L523.2 315.99" stroke="#161616" stroke-linecap="round" stroke-linejoin="round"/>
<path d="M583.34 429.45H473.75C473.415 432.478 473.415 435.533 473.75 438.56H558.46C567.69 438.56 583.9 434.5 584.88 434C585.86 433.5 583.34 429.45 583.34 429.45Z" fill="white"/>
<path d="M583.34 429.45C575.112 431.846 566.608 433.167 558.04 433.38C543.23 433.88 473.75 429.45 473.75 429.45C473.89 428.03 474.08 426.65 474.3 425.29C475.593 417.819 478.01 410.587 481.47 403.84C482.84 401.19 483.82 399.69 483.82 399.69C483.82 399.69 494.37 404.57 499.68 404.08C504.99 403.59 518.35 391.29 523.68 394.49C529.01 397.69 535.68 409.65 546.51 414.9C553.94 418.5 568.78 421.25 575.93 423.2C577.035 423.481 578.118 423.842 579.17 424.28C583.34 426.25 583.34 429.45 583.34 429.45Z" fill="#296493"/>
<path d="M520.54 406C520.54 406 535.4 398.12 536.62 398.66C537.84 399.2 525.84 408.22 526.19 410.28C526.54 412.34 540.68 403.58 541.78 404.36C542.88 405.14 534.78 413.5 531.59 415.92" stroke="white" stroke-linecap="round" stroke-linejoin="round"/>
<path d="M508.07 400.07C508.07 400.07 525.73 417.19 539 425.29" stroke="#161616" stroke-linecap="round" stroke-linejoin="round"/>
<path d="M575.93 423.22C571.76 431.22 556.44 423.96 552.7 422.72C548.96 421.48 544.4 426.88 539.2 427.72C537.787 428.003 536.321 427.835 535.01 427.239C533.698 426.643 532.607 425.65 531.89 424.4L546.49 414.92C553.92 418.52 568.76 421.27 575.91 423.22H575.93Z" fill="#430071"/>
<path d="M496.66 411.28C496.66 411.28 491.44 422.72 489.07 423.55C486.7 424.38 484.98 422.9 481.47 421.36C478.73 420.15 475.56 423.69 474.3 425.29C475.593 417.819 478.011 410.587 481.47 403.84C485.421 408.138 490.843 410.794 496.66 411.28Z" fill="white"/>
<path d="M494.9 414.9C494.9 414.9 510.77 418.15 515.75 419.4C520.73 420.65 503.31 431.21 503.31 431.21" stroke="#161616" stroke-linecap="round" stroke-linejoin="round"/>
<path d="M269.19 209.11C269.19 209.11 298.19 198.6 335.57 199.17C359.2 199.53 358.32 196.73 342.78 195.94C327.24 195.15 308.86 195.94 321.4 188.09" stroke="white" stroke-linecap="round" stroke-linejoin="round"/>
<path d="M210.84 195.11C218.28 199.48 236.84 204.02 236.84 204.02L232.36 166.02C232.36 166.02 216.69 165.02 214 164.28C211.31 163.54 202.36 158.8 197.05 159.92C191.74 161.04 180.42 176.26 180.87 181.28C181.32 186.3 187.59 185.99 187.59 185.99C187.59 185.99 186.24 187.68 186.69 193.1C187.14 198.52 192.97 195.1 192.97 195.1C192.97 195.1 191.23 202.33 194.08 204.01C196.93 205.69 202.62 206.3 202.71 204.01C202.634 202.434 202.015 200.933 200.96 199.76C200.96 199.76 206.57 192.6 210.84 195.11Z" fill="#CBD4DF"/>
<path d="M232.33 166C228.2 166.57 228.47 204.14 236.81 204C245.15 203.86 240.17 164.94 232.33 166Z" fill="#161616"/>
<path d="M231.39 204.45C231.39 204.45 261.66 218.52 276.25 210.64C300.88 197.33 254.42 166.69 254.42 166.69L230.86 167.03C230.86 167.03 227.05 185.88 231.39 204.45Z" fill="white"/>
<path d="M188.58 164.52C188.58 164.52 185.8 162.15 182.73 159.52L175.66 153.52C175.66 153.52 142.95 78.3001 130.54 6.52007C134.786 4.00397 139.456 2.2857 144.32 1.45007C149.46 0.492515 154.746 0.669991 159.81 1.97007C159.81 1.97007 183.48 114.97 197.63 144.97C198.27 146.32 196.85 153.02 198.72 160.65L193.66 162.65L188.58 164.52Z" fill="#FF5E14"/>
<path d="M182.73 159.57L175.66 153.57C175.66 153.57 142.95 78.35 130.54 6.57C134.786 4.0539 139.456 2.33563 144.32 1.5C149.85 25.38 172.98 124.8 179.08 141.83C181.144 147.537 182.373 153.512 182.73 159.57Z" fill="#F05007"/>
<path d="M188.58 164.52L198.73 160.64L224.07 225.17C224.07 225.17 221.07 229.98 213.92 229.05L188.58 164.52Z" fill="#CDF463"/>
<path d="M190.42 197.31C190.42 197.31 183.92 197.88 182.94 191.49C182.94 191.49 177.62 188.77 177.43 185.29L177.38 184.29C176.602 184.206 175.862 183.911 175.24 183.437C174.618 182.963 174.137 182.328 173.85 181.6C172.51 178.92 184.48 162.45 188.79 165.09C189.971 165.701 190.894 166.715 191.393 167.947C191.892 169.18 191.933 170.55 191.51 171.81C191.51 171.81 195.81 170.39 196.7 173.81C196.985 174.71 197.062 175.662 196.925 176.596C196.789 177.53 196.441 178.42 195.91 179.2C195.91 179.2 200.49 178.07 201.16 182.77C201.83 187.47 196.46 196.19 190.42 197.31Z" fill="#CBD4DF"/>
<path d="M177.38 184.33C177.38 184.33 182.22 173.58 191.51 171.85" stroke="#161616" stroke-linecap="round" stroke-linejoin="round"/>
<path d="M182.94 191.49C182.94 191.49 185.29 179.85 195.94 179.19" stroke="#161616" stroke-linecap="round" stroke-linejoin="round"/>
<path d="M214 164.28C214 164.28 204.37 159.11 196.76 158.55C189.15 157.99 192.76 170.75 205.38 170.75C218 170.75 215.55 166.55 214 164.28Z" fill="#CBD4DF"/>
<path d="M202.66 170.53C202.66 170.53 209.66 173.88 215.27 170.75" stroke="#161616" stroke-linecap="round" stroke-linejoin="round"/>
<path d="M219.11 212.43C226.56 216.8 245.11 221.34 245.11 221.34L240.63 183.34C240.63 183.34 224.96 182.34 222.27 181.6C219.58 180.86 210.63 176.12 205.32 177.24C200.01 178.36 188.69 193.58 189.14 198.6C189.59 203.62 195.86 203.31 195.86 203.31C195.86 203.31 194.51 205 194.96 210.42C195.41 215.84 201.24 212.42 201.24 212.42C201.24 212.42 199.49 219.65 202.35 221.33C205.21 223.01 210.89 223.62 210.98 221.38C210.904 219.804 210.285 218.303 209.23 217.13C209.23 217.13 214.84 209.92 219.11 212.43Z" fill="white"/>
<path d="M249.14 216.33C248.56 219.7 247.28 221.78 245.08 221.33C242.88 220.88 241.08 218.33 239.65 214.76C235.41 203.86 235.22 183.38 240.57 183.34H240.62C246 183.41 250.9 206 249.14 216.33Z" fill="#161616"/>
<path d="M195.84 203.31C195.84 203.31 200.84 189.6 204.17 188.09C207.5 186.58 212.91 188.09 212.91 188.09" stroke="#161616" stroke-linecap="round" stroke-linejoin="round"/>
<path d="M201.22 212.43C201.22 212.43 206.02 201.13 209.92 199.43C212.45 198.36 217.44 201.36 218.61 201.08" stroke="#161616" stroke-linecap="round" stroke-linejoin="round"/>
<path d="M209.21 217.14C209.21 217.14 214.75 211.39 218.61 211.14C220.918 210.998 223.225 211.424 225.33 212.38" stroke="#161616" stroke-linecap="round" stroke-linejoin="round"/>
<path d="M381.2 190.05C380.7 191.05 379.95 192.54 378.97 194.37C378.49 195.27 377.97 196.24 377.37 197.29C373.718 203.919 369.442 210.184 364.6 216C360.43 220.81 355.83 224.8 351.18 226.41C347.92 227.54 340.84 227.64 331.68 227.08C308.21 225.66 271.02 219.98 249.14 216.38C245.51 215.79 242.31 215.26 239.65 214.81C235.41 203.91 235.22 183.43 240.57 183.39H240.62L330.62 182.39L334.75 176.66L336.17 174.66L341.49 167.27C354.05 171.18 374.41 182.36 381.2 190.05Z" fill="#FED9B6"/>
<path d="M381.2 190.05C380.7 191.05 379.95 192.54 378.97 194.37C365.374 186.409 351.024 179.814 336.13 174.68L341.45 167.29C354.05 171.18 374.41 182.36 381.2 190.05Z" fill="#F56961"/>
<path d="M364.6 216C360.43 220.81 355.83 224.8 351.18 226.41C347.92 227.54 340.84 227.64 331.68 227.08C333.53 223.5 338.16 217.13 348.58 214.19C351.238 213.422 354.022 213.186 356.771 213.497C359.52 213.807 362.181 214.658 364.6 216Z" fill="#FED9B6"/>
<path d="M330.58 182.39C330.58 182.39 338.17 189.39 342.78 195.94" stroke="#7B1732" stroke-width="0.75" stroke-miterlimit="10" stroke-linecap="round"/>
<path d="M356.77 122.69C355.51 121.02 347.77 118.69 347.77 118.69H333.67C333.67 118.69 325.95 121.06 324.67 122.69C323.39 124.32 325.93 140.3 326.19 141.64C326.45 142.98 338.3 135 338.3 135H343.17C343.17 135 354.97 143 355.24 141.65C355.51 140.3 358 124.35 356.77 122.69Z" fill="white"/>
<path d="M332.34 127.93C331.355 126.299 330.266 124.732 329.08 123.24C328 122.11 334.99 119.13 340.73 119.19C346.47 119.25 349.99 120.6 351.42 121.44C352.85 122.28 349.85 127.44 349.85 127.44L332.34 127.93Z" fill="#161616"/>
<path d="M319.81 106.7C319.81 106.7 321.76 101.7 336.5 98.14C351.24 94.58 368.6 98.5 368.6 98.5C367.12 104.37 363.45 100.09 361.68 106.59C360.68 110.24 361.83 116.31 352.88 118.44C342.56 120.89 324.39 127.22 319.81 106.7Z" fill="#161616"/>
<path d="M350.43 111.24C350.43 111.24 358.06 107.35 358.77 106.68C359.48 106.01 356.52 103.12 356.52 103.12C356.52 103.12 360.35 102.64 360.21 98.96C360.14 97.23 357.59 95.96 357.59 95.96C359.43 87.76 351.45 87.86 348.82 86.57C345.42 84.92 346.31 81.75 345.32 81.42C343.17 80.72 334.56 89.42 334.56 89.42C334.56 89.42 335.81 85.32 334.45 84.87C332.29 84.16 322.39 92.67 321.73 95.56C320.89 99.21 321.1 108.16 328.89 115.88C328.89 115.88 326.76 120.06 327.83 120.58C328.9 121.1 332.33 118.58 332.33 118.58C332.33 118.58 331.97 121.74 332.94 121.79C333.91 121.84 336.37 118.48 336.37 118.48C336.37 118.48 337.95 122.86 340.94 122.53C343.93 122.2 350.43 111.24 350.43 111.24Z" fill="#FEDB62"/>
<path d="M349.85 127.46L348.07 111.72L331.38 110.4L332.38 127.93C332.38 127.93 340.03 138.93 344.91 138.82C346.87 138.77 349.85 127.46 349.85 127.46Z" fill="#FE8F8C"/>
<path d="M340 111.51C340 111.51 335.14 116.72 336.33 119.98C337.52 123.24 345.14 127.13 349.44 123.77L348.08 111.72L340 111.51Z" fill="#F56961"/>
<path d="M340.87 95.8302C347.27 93.7802 352.02 98.4302 354.06 104.83C355.84 110.43 356.58 117.83 347.7 120.04C340.56 121.83 333.62 114.43 332.55 108.46C331.48 102.49 333.83 98.1002 340.87 95.8302Z" fill="#FE8F8C"/>
<path d="M353.07 95.9301C353.07 95.9301 345.23 102.93 336.67 101.58C335.85 101.45 340.97 97.4501 340.97 97.4501C340.97 97.4501 334.63 99.2001 333.18 102.71C332.82 103.58 336.48 107.04 334.04 111.16C334.04 111.16 326.44 114.26 326.22 103.23C326.22 101.01 330.22 93.1701 334.49 91.7001C343.71 88.5401 350.51 90.6301 353.07 95.9301Z" fill="#FEDB62"/>
<path d="M350.14 98.07C350.14 98.07 352.44 96.81 352.7 95.25" stroke="#161616" stroke-width="0.75" stroke-miterlimit="10" stroke-linecap="round"/>
<path d="M339.77 106.87C339.94 107.4 339.83 107.87 339.54 107.99C339.25 108.11 338.86 107.74 338.7 107.21C338.54 106.68 338.63 106.21 338.93 106.08C339.23 105.95 339.6 106.34 339.77 106.87Z" fill="#7B1732"/>
<path d="M349.11 103.91C349.28 104.44 349.18 104.91 348.88 105.04C348.58 105.17 348.21 104.78 348.04 104.25C347.87 103.72 347.98 103.25 348.27 103.12C348.56 102.99 349 103.38 349.11 103.91Z" fill="#7B1732"/>
<path d="M335.57 112.45C335.29 108.6 327.23 108.52 327.4 111.67C327.68 116.8 335.82 115.91 335.57 112.45Z" fill="#FE8F8C"/>
<path d="M329.08 112.26C329.89 112.015 330.753 112.007 331.568 112.235C332.383 112.464 333.115 112.92 333.68 113.55" stroke="#7B1732" stroke-width="0.75" stroke-miterlimit="10" stroke-linecap="round"/>
<path d="M337.7 117C337.7 117 343.13 123 351.18 118.61" stroke="#7B1732" stroke-width="0.75" stroke-miterlimit="10" stroke-linecap="round"/>
<path d="M343.24 102C343.24 102 342.24 102.08 342.62 103.67C343 105.26 346.09 107.67 348.22 108.42C350.35 109.17 349.32 111.78 346.34 110.83" stroke="#7B1732" stroke-width="0.75" stroke-miterlimit="10" stroke-linecap="round"/>
<path d="M342.21 114.52C343.32 115.07 345.03 114.7 345.85 114.52" stroke="#7B1732" stroke-width="0.75" stroke-miterlimit="10" stroke-linecap="round"/>
<path d="M327.4 111.67C327.4 111.67 333.73 118.89 337.4 120.47C341.07 122.05 361.27 118.19 361.92 117.04C363.92 113.55 358.74 98.1001 358.74 98.1001" stroke="white" stroke-linecap="round" stroke-linejoin="round"/>
<path d="M334 98.8C334 98.8 339.11 117.27 343.78 120.8" stroke="white" stroke-linecap="round" stroke-linejoin="round"/>
<path d="M330.59 115.28C330.59 115.28 335.65 114.05 338.5 112.06C338.5 112.06 356.27 110.51 361.5 107.83" stroke="white" stroke-linecap="round" stroke-linejoin="round"/>
<path d="M333.68 118.65C336.06 118.156 338.413 117.542 340.73 116.81C340.73 116.81 358.59 115 362.39 113.55" stroke="white" stroke-linecap="round" stroke-linejoin="round"/>
<path d="M368.6 98.5001C367.6 99.4301 358.6 97.0601 347.6 98.5001C340.23 99.5001 330.25 102.83 324.47 104.94C321.65 105.94 319.83 106.72 319.83 106.72C319.5 93.1301 322.6 85.4901 335.58 81.9801C336.69 81.6801 337.87 81.4101 339.13 81.1701C355.13 78.0901 358.08 93.0701 359.43 93.5301C360.78 93.9901 365.43 95.5301 367.38 95.9501C369.33 96.3701 369.64 97.5701 368.6 98.5001Z" fill="#FF5E14"/>
<path d="M335.56 82C326.79 87.15 324.87 99.36 324.45 105C321.63 106 319.81 106.78 319.81 106.78C319.48 93.11 322.58 85.47 335.56 82Z" fill="#FF5E14"/>
<path d="M319.81 106.7C319.81 106.7 320.88 120.7 327.2 121.46C333.52 122.22 336.34 118.97 331.56 102.46C331.56 102.46 322.75 104.62 319.81 106.7Z" fill="#430071"/>
<path d="M632.466 190.041C648.045 189.614 660.329 176.638 659.902 161.059C659.475 145.479 646.499 133.195 630.919 133.622C615.34 134.049 603.056 147.025 603.483 162.605C603.91 178.185 616.886 190.468 632.466 190.041Z" fill="#FF5E14"/>
<path d="M614 155.32C612.855 150.143 612.94 144.768 614.25 139.63C611.24 142.012 608.748 144.983 606.926 148.361C605.104 151.74 603.99 155.454 603.652 159.278C603.315 163.101 603.761 166.953 604.963 170.599C606.166 174.244 608.099 177.605 610.645 180.478C613.191 183.35 616.297 185.673 619.771 187.304C623.246 188.935 627.017 189.84 630.853 189.964C634.689 190.088 638.511 189.428 642.083 188.024C645.656 186.62 648.904 184.502 651.63 181.8C643.184 182.886 634.636 180.77 627.672 175.869C620.707 170.968 615.83 163.637 614 155.32Z" fill="#FF5E14"/>
<path d="M619.42 136.39C619.42 136.39 625.66 166.91 658.27 171.32" stroke="white" stroke-linecap="round" stroke-linejoin="round"/>
<path d="M607.11 148C607.11 148 610.7 186.08 648.11 184.78" stroke="white" stroke-linecap="round" stroke-linejoin="round"/>
<path d="M614.23 139.63C614.23 139.63 614.34 140.16 614.59 141.08" stroke="white" stroke-linecap="round" stroke-linejoin="round"/>
<path d="M615.47 143.93C618.56 152.93 628.17 173.29 652.82 176.22" stroke="white" stroke-linecap="round" stroke-linejoin="round" stroke-dasharray="2.98 2.98"/>
<path d="M654.3 176.37C654.8 176.37 655.3 176.45 655.8 176.48" stroke="white" stroke-linecap="round" stroke-linejoin="round"/>
<path d="M609.45 144.45C609.45 144.45 609.53 144.98 609.75 145.92" stroke="white" stroke-linecap="round" stroke-linejoin="round"/>
<path d="M610.54 148.83C613.29 157.67 622.26 177.17 648.62 181.4" stroke="white" stroke-linecap="round" stroke-linejoin="round" stroke-dasharray="3.02 3.02"/>
<path d="M650.12 181.62C650.61 181.68 651.12 181.75 651.61 181.8" stroke="white" stroke-linecap="round" stroke-linejoin="round"/>
<path d="M108.21 264.79C107.98 262.63 132.54 261.03 132.73 263.79C132.92 266.55 108.6 268.55 108.21 264.79Z" fill="#FF5E14"/>
<path d="M134.22 263.73C133.99 261.56 157.47 259.59 157.67 262.36C157.87 265.13 134.61 267.48 134.22 263.73Z" fill="#FF5E14"/>
<path d="M118.08 371.18H111.76L107.27 297.75L107.09 294.79L106.63 287.3L106.45 284.33L105.44 267.87L111.99 267.63L112.95 283.95L113.12 286.92L113.56 294.39L113.74 297.37L118.08 371.18Z" fill="#FF5E14"/>
<path d="M112.95 283.95L113.12 286.92L106.63 287.3L106.45 284.33L112.95 283.95Z" fill="white"/>
<path d="M113.56 294.39L113.74 297.37L107.27 297.75L107.09 294.79L113.56 294.39Z" fill="white"/>
<path d="M142.34 369.65H136.02L131.53 296.31L131.35 293.35L130.89 285.88L130.71 282.9L129.7 266.35L136.25 266.12L137.22 282.52L137.39 285.5L137.83 292.96L138 295.94L142.34 369.65Z" fill="#FF5E14"/>
<path d="M137.22 282.52L137.39 285.5L130.89 285.88L130.71 282.9L137.22 282.52Z" fill="white"/>
<path d="M137.83 292.96L138 295.94L131.53 296.31L131.35 293.35L137.83 292.96Z" fill="white"/>
<path d="M166.6 368.13H160.28L155.8 294.89L155.62 291.92L155.16 284.45L154.98 281.48L153.96 264.82L160.51 264.6L161.48 281.1L161.66 284.07L162.09 291.54L162.27 294.51L166.6 368.13Z" fill="#FF5E14"/>
<path d="M161.66 284.07L155.16 284.45L154.98 281.48L161.48 281.1L161.66 284.07Z" fill="white"/>
<path d="M162.27 294.51L155.8 294.89L155.62 291.92L162.09 291.54L162.27 294.51Z" fill="white"/>
<path d="M86.1699 160.15C90.4699 146.24 102.34 132.73 122.1 123.34C141.86 113.95 169.93 109.15 195.73 112.34C224.21 115.86 245.66 127.94 265.9 139.16C306.13 161.46 348.96 182.74 398.08 199.25C447.2 215.76 503.08 227.38 561.14 229C584.03 229.63 607.65 228.64 628.4 223.45C649.15 218.26 666.66 208.34 670.47 196.31" stroke="white" stroke-linecap="round" stroke-linejoin="round"/>
<path d="M615.12 260.12C626.822 257.399 637.856 252.35 647.565 245.273C657.274 238.197 665.458 229.238 671.63 218.93" stroke="#161616" stroke-linecap="round" stroke-linejoin="round"/>
<path d="M244.13 38.7002C251.48 38.8602 258.9 37.1302 264.04 34.0502C268.04 31.6302 271.44 28.2002 277.19 27.8302C283.96 27.3802 289.93 31.5802 296.6 30.8302C304.24 29.9402 305.39 23.8302 310.24 20.3202C313.69 17.7902 319.61 16.5002 325.06 17.0902C330.51 17.6802 335.24 20.0902 336.9 23.2102C338.32 25.8402 338.77 29.5502 343.44 29.9802C348.11 30.4102 352.8 26.4302 356.94 27.9202C359.55 28.8502 359.23 31.2302 361.39 32.5102C364.97 34.6302 383.99 33.3702 389.09 33.2002C394.64 33.0102 421.56 35.2002 420.16 38.3402C418.76 41.4802 341.72 42.0002 335.85 42.1402C318.85 42.5302 301.85 42.3002 284.92 42.5302C276.31 42.6502 226.32 43.1102 226.37 40.5902C226.44 36.6002 240.34 38.6202 244.13 38.7002Z" stroke="white" stroke-linecap="round" stroke-linejoin="round"/>
<path d="M455.53 83.28C455.86 81.91 457.65 81.21 459.25 80.92C467.59 79.42 477.25 82.71 484.25 78.58C487.13 76.88 489.25 74.06 492.6 73.3C497.25 72.3 501.71 75.62 506.51 75.87C513.34 76.22 518.18 70.52 522.02 65.67C525.86 60.82 532 55.6 538.49 57.39C542.83 58.59 545.22 62.39 547.49 65.82C549.76 69.25 553.19 72.82 557.75 72.69C561.23 72.62 564.75 70.37 567.92 71.61C568.998 72.1516 570.005 72.8233 570.92 73.61C575.8 77.05 582.92 76.15 589.19 75.61C595.46 75.07 603.19 75.88 605.89 80.76C606.213 81.2342 606.345 81.8127 606.26 82.38C605.96 83.65 604.12 84.05 602.62 84.21C585.56 86 453.46 92.13 455.53 83.28Z" stroke="white" stroke-linecap="round" stroke-linejoin="round"/>
</g>
<defs>
<clipPath id="clip0_204_2">
<rect width="730" height="459" fill="white"/>
</clipPath>
</defs>
</svg>
