<svg width="21" height="20" viewBox="0 0 21 20" fill="none" xmlns="http://www.w3.org/2000/svg">
<g clip-path="url(#clip0_184_2)">
<path d="M0 0.459046H20.0154V6.81968H0V0.459046Z" fill="#FF9933"/>
<path d="M0 6.81968H20.0154V13.1803H0V6.81968Z" fill="white"/>
<path d="M0 13.1803H20.0154V19.541H0V13.1803Z" fill="#128807"/>
<path d="M10.0077 12.5443C11.1131 12.5443 12.0093 11.4052 12.0093 10C12.0093 8.59485 11.1131 7.45574 10.0077 7.45574C8.90229 7.45574 8.00617 8.59485 8.00617 10C8.00617 11.4052 8.90229 12.5443 10.0077 12.5443Z" fill="#000088"/>
<path d="M10.0077 12.2262C10.975 12.2262 11.7591 11.2295 11.7591 10C11.7591 8.77049 10.975 7.77378 10.0077 7.77378C9.04047 7.77378 8.25636 8.77049 8.25636 10C8.25636 11.2295 9.04047 12.2262 10.0077 12.2262Z" fill="white"/>
<path d="M10.0077 10.4452C10.2012 10.4452 10.358 10.2459 10.358 10C10.358 9.7541 10.2012 9.55476 10.0077 9.55476C9.81426 9.55476 9.65744 9.7541 9.65744 10C9.65744 10.2459 9.81426 10.4452 10.0077 10.4452Z" fill="#000088"/>
<path d="M11.7327 10.4009C11.7806 10.409 11.8246 10.3661 11.8309 10.3051C11.8372 10.2442 11.8035 10.1882 11.7555 10.1802C11.7076 10.1722 11.6636 10.2151 11.6573 10.2761C11.651 10.337 11.6847 10.3929 11.7327 10.4009Z" fill="#000088"/>
<path d="M10.0077 12.2262L10.0678 10.8905L10.0077 10.2544L9.94767 10.8905L10.0077 12.2262Z" fill="#000088"/>
<path d="M11.5955 10.9501C11.6419 10.9762 11.6932 10.9534 11.7099 10.8992C11.7266 10.8451 11.7025 10.7799 11.656 10.7538C11.6096 10.7277 11.5583 10.7504 11.5416 10.8046C11.5249 10.8588 11.549 10.9239 11.5955 10.9501Z" fill="#000088"/>
<path d="M9.56426 12.1459L9.89074 10.8859L9.94608 10.2502L9.75508 10.8375L9.56426 12.1459Z" fill="#000088"/>
<path d="M11.3474 11.4388C11.3877 11.4789 11.4427 11.4739 11.4702 11.4277C11.4977 11.3816 11.4873 11.3117 11.4469 11.2717C11.4066 11.2316 11.3517 11.2366 11.3242 11.2828C11.2967 11.3289 11.3071 11.3988 11.3474 11.4388Z" fill="#000088"/>
<path d="M9.1385 11.9228L9.71361 10.8164L9.90118 10.2255L9.59669 10.7297L9.1385 11.9228Z" fill="#000088"/>
<path d="M11.0075 11.8298C11.0386 11.8808 11.0936 11.8938 11.1303 11.8587C11.1669 11.8236 11.1714 11.7537 11.1403 11.7026C11.1091 11.6515 11.0542 11.6386 11.0175 11.6737C10.9808 11.7088 10.9763 11.7787 11.0075 11.8298Z" fill="#000088"/>
<path d="M8.7734 11.5687L9.55744 10.6911L9.86211 10.1854L9.46438 10.5721L8.7734 11.5687Z" fill="#000088"/>
<path d="M10.5931 12.1044C10.6095 12.1584 10.6607 12.1809 10.7075 12.1545C10.7544 12.1282 10.7791 12.0631 10.7627 12.0091C10.7464 11.9551 10.6952 11.9327 10.6483 11.959C10.6015 11.9853 10.5768 12.0504 10.5931 12.1044Z" fill="#000088"/>
<path d="M8.48732 11.1206L9.42868 10.5011L9.83805 10.1197L9.37599 10.384L8.48732 11.1206Z" fill="#000088"/>
<path d="M10.1454 12.2266C10.1495 12.2849 10.1934 12.3234 10.2437 12.3126C10.2939 12.3019 10.3313 12.246 10.3272 12.1877C10.3232 12.1295 10.2792 12.091 10.229 12.1018C10.1788 12.1125 10.1413 12.1684 10.1454 12.2266Z" fill="#000088"/>
<path d="M8.313 10.5865L9.34462 10.2902L9.81742 10.0555L9.31962 10.1634L8.313 10.5865Z" fill="#000088"/>
<path d="M9.69558 12.1989C9.68745 12.2633 9.71827 12.3193 9.76441 12.3238C9.81054 12.3284 9.85453 12.2799 9.86265 12.2154C9.87078 12.151 9.83996 12.0951 9.79382 12.0906C9.74769 12.086 9.7037 12.1345 9.69558 12.1989Z" fill="#000088"/>
<path d="M8.25896 10.0334L9.30365 10.031L9.80496 9.96658L9.30885 9.94523L8.25896 10.0334Z" fill="#000088"/>
<path d="M9.25777 12.0172C9.23861 12.0756 9.25878 12.1407 9.30281 12.1626C9.34685 12.1845 9.39807 12.1548 9.41723 12.0964C9.43638 12.0379 9.41621 11.9728 9.37218 11.9509C9.32815 11.9291 9.27692 11.9587 9.25777 12.0172Z" fill="#000088"/>
<path d="M8.31711 9.43263L9.31404 9.84894L9.8133 9.92533L9.34728 9.68385L8.31711 9.43263Z" fill="#000088"/>
<path d="M8.86849 11.6936C8.84103 11.7397 8.85148 11.8096 8.89183 11.8497C8.93218 11.8898 8.98715 11.8849 9.01461 11.8388C9.04207 11.7926 9.03162 11.7228 8.99127 11.6827C8.95092 11.6426 8.89595 11.6475 8.86849 11.6936Z" fill="#000088"/>
<path d="M8.48731 8.87934L9.376 9.61599L9.83806 9.88033L9.42867 9.49888L8.48731 8.87934Z" fill="#000088"/>
<path d="M8.56143 11.2621C8.52501 11.2968 8.52093 11.3667 8.55232 11.4181C8.5837 11.4696 8.63867 11.4832 8.6751 11.4484C8.71152 11.4137 8.7156 11.3438 8.68421 11.2924C8.65283 11.2409 8.59786 11.2273 8.56143 11.2621Z" fill="#000088"/>
<path d="M8.76505 8.42003L9.47568 9.42056L9.87045 9.82589L9.55206 9.3242L8.76505 8.42003Z" fill="#000088"/>
<path d="M8.35363 10.7453C8.31034 10.7667 8.29139 10.8318 8.31129 10.8907C8.3312 10.9496 8.38242 10.98 8.42571 10.9586C8.46899 10.9372 8.48794 10.8721 8.46804 10.8132C8.44813 10.7543 8.39691 10.7239 8.35363 10.7453Z" fill="#000088"/>
<path d="M9.12819 8.06838L9.61065 9.26462L9.91148 9.78331L9.70696 9.19559L9.12819 8.06838Z" fill="#000088"/>
<path d="M8.25751 10.1762C8.21088 10.182 8.17928 10.2379 8.18692 10.3011C8.19455 10.3643 8.23854 10.4108 8.28516 10.405C8.33179 10.3992 8.36339 10.3432 8.35575 10.2801C8.34812 10.2169 8.30413 10.1704 8.25751 10.1762Z" fill="#000088"/>
<path d="M9.54923 7.84661L9.77545 9.15766L9.96111 9.75726L9.88104 9.12419L9.54923 7.84661Z" fill="#000088"/>
<path d="M8.27919 9.60468C8.22927 9.59355 8.18528 9.63142 8.18094 9.68927C8.1766 9.74712 8.21356 9.80303 8.26348 9.81416C8.3134 9.82529 8.35739 9.78741 8.36173 9.72957C8.36607 9.67172 8.32911 9.61581 8.27919 9.60468Z" fill="#000088"/>
<path d="M9.98588 7.77828L9.97724 9.10341L10.0295 9.74107L10.0537 9.11241L9.98588 7.77828Z" fill="#000088"/>
<path d="M8.42007 9.04996C8.37367 9.02382 8.32245 9.04654 8.30566 9.10072C8.28887 9.15489 8.31287 9.22001 8.35926 9.24615C8.40566 9.2723 8.45689 9.24957 8.47368 9.1954C8.49047 9.14122 8.46647 9.07611 8.42007 9.04996Z" fill="#000088"/>
<path d="M10.4516 7.85409L10.125 9.11406L10.0689 9.74978L10.2598 9.16248L10.4516 7.85409Z" fill="#000088"/>
<path d="M8.66814 8.56141C8.62787 8.52124 8.5729 8.526 8.54536 8.57202C8.51781 8.61805 8.52813 8.68793 8.56839 8.7281C8.60866 8.76826 8.66363 8.76351 8.69117 8.71748C8.71872 8.67145 8.7084 8.60158 8.66814 8.56141Z" fill="#000088"/>
<path d="M10.8771 8.07752L10.3019 9.18321L10.1141 9.77417L10.4185 9.27052L10.8771 8.07752Z" fill="#000088"/>
<path d="M9.0077 8.17101C8.97642 8.1195 8.92145 8.10585 8.88492 8.14054C8.84839 8.17522 8.84413 8.24509 8.87541 8.29661C8.90669 8.34812 8.96166 8.36176 8.99819 8.32708C9.03472 8.2924 9.03898 8.22252 9.0077 8.17101Z" fill="#000088"/>
<path d="M11.2417 8.43238L10.4578 9.30747L10.1537 9.81353L10.5515 9.42853L11.2417 8.43238Z" fill="#000088"/>
<path d="M9.42231 7.89556C9.40597 7.84156 9.35474 7.81913 9.3079 7.84546C9.26106 7.87179 9.23633 7.9369 9.25268 7.9909C9.26902 8.04489 9.32025 8.06732 9.36709 8.04099C9.41393 8.01466 9.43866 7.94955 9.42231 7.89556Z" fill="#000088"/>
<path d="M11.5281 8.87934L10.5868 9.49888L10.1774 9.88033L10.6394 9.61599L11.5281 8.87934Z" fill="#000088"/>
<path d="M9.87003 7.77337C9.86598 7.71513 9.822 7.67663 9.77178 7.68736C9.72157 7.6981 9.68415 7.75402 9.6882 7.81225C9.69224 7.87049 9.73623 7.90899 9.78644 7.89826C9.83666 7.88752 9.87408 7.8316 9.87003 7.77337Z" fill="#000088"/>
<path d="M11.7024 9.41353L10.6708 9.70972L10.198 9.94443L10.6958 9.83662L11.7024 9.41353Z" fill="#000088"/>
<path d="M10.3193 7.80048C10.3277 7.73574 10.2974 7.67983 10.2516 7.67559C10.2058 7.67136 10.1618 7.7204 10.1533 7.78514C10.1449 7.84988 10.1752 7.90579 10.221 7.91003C10.2669 7.91426 10.3108 7.86522 10.3193 7.80048Z" fill="#000088"/>
<path d="M11.756 9.96498L10.7124 9.97112L10.2109 10.035L10.7063 10.0537L11.756 9.96498Z" fill="#000088"/>
<path d="M10.757 7.98195C10.7765 7.92302 10.757 7.8579 10.7133 7.83652C10.6696 7.81513 10.6184 7.84557 10.5989 7.9045C10.5793 7.96344 10.5989 8.02855 10.6426 8.04994C10.6862 8.07132 10.7374 8.04089 10.757 7.98195Z" fill="#000088"/>
<path d="M11.6977 10.5645L10.7022 10.1492L10.2028 10.0775L10.6677 10.32L11.6977 10.5645Z" fill="#000088"/>
<path d="M11.1417 8.29903C11.172 8.24885 11.1663 8.17897 11.1289 8.14295C11.0914 8.10694 11.0364 8.11841 11.0061 8.16859C10.9757 8.21877 10.9814 8.28864 11.0189 8.32466C11.0563 8.36068 11.1113 8.3492 11.1417 8.29903Z" fill="#000088"/>
<path d="M11.5226 11.1086L10.6469 10.3762L10.1829 10.1317L10.5832 10.5174L11.5226 11.1086Z" fill="#000088"/>
<path d="M11.4488 8.73051C11.4881 8.69168 11.4968 8.6218 11.4683 8.57444C11.4398 8.52708 11.3849 8.52016 11.3456 8.55899C11.3062 8.59783 11.2975 8.6677 11.326 8.71507C11.3545 8.76243 11.4095 8.76934 11.4488 8.73051Z" fill="#000088"/>
<path d="M11.2439 11.5709L10.5485 10.5736L10.1514 10.1832L10.4592 10.6881L11.2439 11.5709Z" fill="#000088"/>
<path d="M11.6576 9.24846C11.7032 9.22359 11.7259 9.15848 11.7083 9.10303C11.6907 9.04757 11.6395 9.02278 11.5939 9.04765C11.5483 9.07252 11.5256 9.13763 11.5432 9.19309C11.5608 9.24854 11.612 9.27333 11.6576 9.24846Z" fill="#000088"/>
<path d="M10.8807 11.9255L10.4136 10.7314L10.1105 10.2228L10.3043 10.8127L10.8807 11.9255Z" fill="#000088"/>
<path d="M11.7539 9.81736C11.8027 9.808 11.838 9.75209 11.8326 9.69247C11.8272 9.63286 11.7832 9.59212 11.7343 9.60147C11.6855 9.61083 11.6502 9.66675 11.6556 9.72636C11.661 9.78598 11.705 9.82672 11.7539 9.81736Z" fill="#000088"/>
<path d="M10.457 12.1484L10.2525 10.8391L10.0635 10.2477L10.1284 10.8825L10.457 12.1484Z" fill="#000088"/>
</g>
<defs>
<clipPath id="clip0_184_2">
<rect width="20.0154" height="19.0819" fill="white" transform="translate(0 0.459046)"/>
</clipPath>
</defs>
</svg>
