<svg width="110" height="123" viewBox="0 0 110 123" fill="none" xmlns="http://www.w3.org/2000/svg">
<g clip-path="url(#clip0_224_21)">
<path d="M71.1145 98.1629C70.268 98.1629 69.4088 98.0415 68.565 97.788L54.2152 93.4795C53.2221 93.1816 52.6589 92.1341 52.9568 91.141C53.2547 90.1478 54.3021 89.5847 55.2952 89.8825L69.645 94.1911C71.7219 94.8149 74.0234 94.0317 74.9984 92.3704C75.4629 91.5801 75.5625 90.6801 75.2791 89.8373C74.9532 88.8667 74.1528 88.0501 73.0764 87.5884L44.1767 77.8993C44.136 77.8857 44.0952 77.8703 44.0554 77.854C42.5507 77.2312 40.7328 77.3987 39.4218 78.2805C39.3838 78.3058 39.3449 78.3303 39.305 78.3529L22.1178 88.1714C21.217 88.6857 20.0708 88.3724 19.5565 87.4725C19.0423 86.5717 19.3556 85.4255 20.2556 84.9112L37.3875 75.1253C39.7224 73.5844 42.7905 73.292 45.4287 74.3594L74.3374 84.0521C74.3782 84.0657 74.419 84.081 74.4589 84.0973C76.5665 84.9701 78.1635 86.6269 78.8398 88.644C79.4735 90.5326 79.259 92.5316 78.2369 94.2735C76.7983 96.7233 74.0315 98.1629 71.1145 98.1629Z" fill="#414042"/>
<path d="M66.9878 116.463C66.1938 116.463 65.3953 116.35 64.6176 116.12L36.3761 107.803C34.8135 107.343 33.0398 107.77 31.9634 108.865C31.6139 109.221 31.1369 109.423 30.638 109.426L30.0259 109.431C30.0214 109.431 30.0169 109.431 30.0124 109.431C28.9812 109.431 28.1419 108.599 28.1346 107.567C28.1274 106.565 28.9051 105.742 29.8919 105.68C31.9353 104.01 34.8098 103.427 37.4371 104.201L65.6787 112.518C66.9081 112.88 68.2797 112.704 69.3481 112.045L104.547 90.3596C105.461 89.7965 106.048 88.9681 106.201 88.0275C106.339 87.1791 106.093 86.3281 105.511 85.631C104.243 84.1145 101.75 83.7696 99.9488 84.8587L81.9089 96.3467C81.0343 96.9035 79.8736 96.6464 79.3168 95.7718C78.76 94.8972 79.0171 93.7366 79.8917 93.1798L97.9489 81.681C97.9588 81.6746 97.9697 81.6683 97.9796 81.6619C99.612 80.667 101.572 80.2731 103.499 80.5529C105.451 80.8363 107.189 81.7851 108.392 83.2228C109.685 84.7691 110.224 86.6894 109.909 88.6304C109.584 90.6349 108.347 92.4302 106.517 93.5573L71.3181 115.243C70.0108 116.048 68.5079 116.463 66.9878 116.463Z" fill="#414042"/>
<path d="M16.8506 121.465C16.1688 121.465 15.5105 121.092 15.1783 120.444L0.267228 91.389C0.0336473 90.9336 -0.00436853 90.4021 0.163121 89.9187C0.330611 89.4352 0.687312 89.0405 1.15266 88.8259L16.1289 81.9272C17.0379 81.508 18.1161 81.8764 18.5788 82.7637L33.4247 111.212C33.6574 111.658 33.7017 112.179 33.5469 112.657C33.393 113.135 33.0527 113.533 32.6036 113.758L17.6924 121.264C17.4226 121.4 17.1339 121.465 16.8506 121.465ZM4.50245 91.4179L17.669 117.073L29.214 111.261L16.0764 86.0863L4.50245 91.4179Z" fill="#414042"/>
<path d="M20.4475 111.453C21.7335 111.453 22.7761 110.445 22.7761 109.2C22.7761 107.955 21.7335 106.947 20.4475 106.947C19.1614 106.947 18.1189 107.955 18.1189 109.2C18.1189 110.445 19.1614 111.453 20.4475 111.453Z" fill="#414042"/>
<path d="M52.5274 13.4791C52.0684 13.4791 51.6094 13.3043 51.259 12.954L41.923 3.6171C41.2223 2.91636 41.2223 1.78105 41.923 1.08122C42.6238 0.380479 43.7591 0.380479 44.4598 1.08122L53.7967 10.4181C54.4974 11.1188 54.4974 12.2541 53.7967 12.954C53.4454 13.3043 52.9864 13.4791 52.5274 13.4791Z" fill="#414042"/>
<path d="M88.1322 13.4791C87.6732 13.4791 87.2143 13.3043 86.8639 12.954C86.1632 12.2532 86.1632 11.1179 86.8639 10.4181L96.2008 1.08122C96.9015 0.380479 98.0368 0.380479 98.7367 1.08122C99.4374 1.78196 99.4374 2.91727 98.7367 3.6171L89.3997 12.954C89.0502 13.3043 88.5912 13.4791 88.1322 13.4791Z" fill="#414042"/>
<path d="M107.04 53.0066C106.687 53.0066 106.331 52.9025 106.019 52.6861L95.3043 45.2469C94.4904 44.6819 94.2894 43.5647 94.8543 42.7508C95.4192 41.9369 96.5364 41.7359 97.3504 42.3009L108.065 49.7401C108.879 50.3051 109.08 51.4223 108.515 52.2362C108.167 52.7378 107.608 53.0066 107.04 53.0066Z" fill="#414042"/>
<path d="M34.0304 53.0066C33.4627 53.0066 32.9041 52.7377 32.5556 52.2362C31.9906 51.4223 32.1925 50.3051 33.0055 49.7401L43.7203 42.3009C44.5342 41.7359 45.6514 41.9378 46.2164 42.7508C46.7813 43.5647 46.5794 44.6819 45.7664 45.2469L35.0516 52.6861C34.7393 52.9025 34.3825 53.0066 34.0304 53.0066Z" fill="#414042"/>
<path d="M70.564 74.6147C69.5735 74.6147 68.7705 73.8117 68.7705 72.8213V60.6597C68.7705 59.6692 69.5735 58.8662 70.564 58.8662C71.5544 58.8662 72.3575 59.6692 72.3575 60.6597V72.8213C72.3575 73.8117 71.5544 74.6147 70.564 74.6147Z" fill="#414042"/>
<path d="M71.4447 5.34367L78.9563 20.5644C79.2071 21.0723 79.6924 21.4254 80.2528 21.5069L97.0498 23.9477C98.4621 24.1532 99.0261 25.8888 98.004 26.8856L85.8497 38.733C85.4441 39.1286 85.2585 39.699 85.3545 40.2576L88.2235 56.9866C88.4652 58.3935 86.9877 59.4664 85.7247 58.8019L70.7005 50.9036C70.1989 50.6401 69.5996 50.6401 69.098 50.9036L54.0737 58.8019C52.8098 59.4664 51.3332 58.3935 51.5749 56.9866L54.444 40.2576C54.54 39.699 54.3544 39.1286 53.9488 38.733L41.7945 26.8856C40.7723 25.8888 41.3363 24.1532 42.7487 23.9477L59.5456 21.5069C60.107 21.4254 60.5913 21.0732 60.8421 20.5644L68.3538 5.34367C68.9875 4.0635 70.8127 4.0635 71.4447 5.34367Z" fill="#FF5E14"/>
<path d="M53.2709 60.7964C52.5448 60.7964 51.8241 60.5692 51.2076 60.121C50.1166 59.3288 49.5807 58.0116 49.8088 56.6825L52.6715 39.9897L40.5435 28.1676C39.5784 27.227 39.2371 25.8454 39.6536 24.5634C40.0701 23.2814 41.1573 22.3643 42.4918 22.1706L59.2516 19.7352L66.747 4.54797C67.3436 3.33933 68.5514 2.58789 69.8994 2.58789C71.2475 2.58789 72.4552 3.33842 73.0519 4.54797L80.5473 19.7352L97.3071 22.1706C98.6407 22.3643 99.7289 23.2814 100.145 24.5634C100.562 25.8454 100.221 27.226 99.2554 28.1676L87.1273 39.9897L89.9901 56.6825C90.2182 58.0116 89.6822 59.3288 88.5913 60.121C87.5013 60.9132 86.0817 61.0155 84.8893 60.389L69.8985 52.5079L54.9096 60.389C54.3908 60.6624 53.8295 60.7964 53.2709 60.7964ZM69.9003 48.9119C70.4626 48.9119 71.0239 49.0468 71.5363 49.3157L86.432 57.147L83.5874 40.56C83.3919 39.4193 83.7694 38.2559 84.5987 37.4484L96.6498 25.7014L79.9959 23.2814C78.8506 23.1149 77.8611 22.396 77.3487 21.3585L69.9003 6.26723L62.452 21.3585C61.9396 22.396 60.9501 23.1149 59.8048 23.2814L43.1509 25.7014L55.202 37.4484C56.0304 38.2559 56.4088 39.4193 56.2133 40.56L53.3687 57.147L68.2644 49.3157C68.7768 49.0468 69.339 48.9119 69.9003 48.9119Z" fill="#414042"/>
</g>
<defs>
<clipPath id="clip0_224_21">
<rect width="110" height="122" fill="white" transform="translate(0 0.5)"/>
</clipPath>
</defs>
</svg>
