<svg width="110" height="120" viewBox="0 0 110 120" fill="none" xmlns="http://www.w3.org/2000/svg">
<mask id="mask0_224_20" style="mask-type:luminance" maskUnits="userSpaceOnUse" x="0" y="0" width="110" height="120">
<path d="M110 0.5H0V119.906H110V0.5Z" fill="white"/>
</mask>
<g mask="url(#mask0_224_20)">
<path d="M70.0752 102.219H39.8937C38.8806 102.219 38.0601 101.398 38.0601 100.385C38.0601 99.3733 38.8806 98.5518 39.8937 98.5518H70.0752C71.0883 98.5518 71.9089 99.3733 71.9089 100.385C71.9089 101.398 71.0883 102.219 70.0752 102.219Z" fill="#414042"/>
<path d="M67.3268 108.383H42.6422C41.6291 108.383 40.8086 107.562 40.8086 106.55C40.8086 105.537 41.6291 104.716 42.6422 104.716H67.3268C68.3399 104.716 69.1604 105.537 69.1604 106.55C69.1604 107.562 68.3399 108.383 67.3268 108.383Z" fill="#414042"/>
<path d="M83.3216 54.2158C83.3216 58.906 82.1697 63.675 79.855 67.7668C76.3606 73.9369 73.3939 84.1908 72.0618 91.1777C71.8612 92.2276 71.6328 93.4136 71.2682 94.5368H38.6856C38.2207 93.1044 37.978 91.554 37.7397 90.2623C36.835 85.3517 34.8437 77.0085 32.6159 72.5629C31.2373 69.8129 29.6016 67.1865 28.5008 64.303C27.2718 61.0881 26.6465 57.6564 26.6465 54.2167C26.6465 38.5659 39.3332 25.8792 54.9841 25.8792C70.6349 25.8801 83.3216 38.5668 83.3216 54.2158Z" fill="#FF5E14"/>
<path d="M71.2691 96.3707H38.6864C37.8919 96.3707 37.1878 95.8592 36.9423 95.1032C36.507 93.7622 36.2598 92.3854 36.0412 91.1716C36.0063 90.9746 35.9713 90.7829 35.9364 90.5957C35.1445 86.2987 33.2079 77.839 30.9765 73.3853C30.5412 72.5164 30.0646 71.6332 29.6042 70.7795C28.6063 68.9288 27.5735 67.0155 26.7879 64.9579C25.4774 61.5289 24.8127 57.9154 24.8127 54.2176C24.8127 37.5814 38.3469 24.0464 54.984 24.0464C71.6211 24.0464 85.1553 37.5805 85.1553 54.2158C85.1553 59.388 83.8743 64.3855 81.4513 68.67C78.1047 74.5793 75.1719 84.6576 73.8632 91.5219C73.6644 92.5619 73.418 93.8563 73.0123 95.1041C72.7677 95.8583 72.0636 96.3707 71.2691 96.3707ZM40.0829 92.7034H69.8744C70.0258 92.0647 70.1476 91.426 70.2604 90.8339C71.6695 83.4447 74.6891 73.1676 78.2597 66.8632C80.3414 63.1834 81.488 58.6911 81.488 54.2158C81.488 39.6023 69.5985 27.7137 54.984 27.7137C40.3696 27.7137 28.48 39.6032 28.48 54.2176C28.48 57.4666 29.0632 60.6394 30.2142 63.6492C30.9147 65.4846 31.8463 67.2107 32.8317 69.0381C33.3055 69.916 33.7955 70.8243 34.255 71.7424C36.6709 76.5635 38.716 85.4432 39.5428 89.9301C39.5777 90.1218 39.6135 90.3198 39.6503 90.5222C39.7757 91.2155 39.9109 91.9662 40.0829 92.7034Z" fill="#414042"/>
<path d="M75.3763 54.2379C74.3918 54.2379 73.5776 53.4559 73.5444 52.4643C73.187 41.6112 61.3756 36.5689 61.2564 36.5188C60.3231 36.13 59.8788 35.0578 60.2657 34.1235C60.6527 33.1892 61.7222 32.744 62.6574 33.1301C62.8016 33.1892 66.2288 34.6206 69.7187 37.651C74.4375 41.7473 77.028 46.8272 77.2099 52.3442C77.243 53.3564 76.4494 54.2038 75.4381 54.237C75.4166 54.2379 75.396 54.2379 75.3763 54.2379Z" fill="#414042"/>
<path d="M67.1206 111.461C67.1206 116.124 61.6878 119.905 54.9856 119.905C48.2834 119.905 42.8496 116.124 42.8496 111.461C42.8496 111.451 42.8496 111.441 42.8505 111.432H67.1188C67.1206 111.44 67.1206 111.451 67.1206 111.461Z" fill="#414042"/>
<path d="M54.9846 19.4551C54.0754 19.4551 53.3391 18.7179 53.3391 17.8096V2.20997C53.3391 1.30077 54.0754 0.564453 54.9846 0.564453C55.8938 0.564453 56.6301 1.30166 56.6301 2.20997V17.8096C56.6301 18.7179 55.8929 19.4551 54.9846 19.4551Z" fill="#414042"/>
<path d="M108.283 53.748H92.6829C91.7737 53.748 91.0374 53.0108 91.0374 52.1025C91.0374 51.1933 91.7746 50.457 92.6829 50.457H108.283C109.192 50.457 109.928 51.1942 109.928 52.1025C109.928 53.0117 109.191 53.748 108.283 53.748Z" fill="#414042"/>
<path d="M17.2844 53.748H1.68483C0.775632 53.748 0.0393066 53.0108 0.0393066 52.1025C0.0393066 51.1933 0.775632 50.457 1.68483 50.457H17.2844C18.1936 50.457 18.93 51.1942 18.93 52.1025C18.9309 53.0117 18.1936 53.748 17.2844 53.748Z" fill="#414042"/>
<path d="M24.6227 31.4488C24.2688 31.4488 23.9123 31.335 23.6114 31.1004L11.3125 21.5057C10.5959 20.9467 10.4678 19.9121 11.0267 19.1955C11.5857 18.4789 12.6194 18.3516 13.3369 18.9105L25.6367 28.5062C26.3533 29.0651 26.4814 30.0997 25.9224 30.8163C25.5973 31.231 25.1127 31.4488 24.6227 31.4488Z" fill="#414042"/>
<path d="M83.8635 31.4486C83.3735 31.4486 82.8898 31.2309 82.5646 30.8153C82.0057 30.0987 82.1329 29.065 82.8495 28.5051L95.1492 18.9096C95.8658 18.3507 96.8995 18.4787 97.4585 19.1945C98.0174 19.9111 97.8902 20.9448 97.1727 21.5047L84.873 31.1001C84.5738 31.3348 84.2173 31.4486 83.8635 31.4486Z" fill="#414042"/>
<path d="M98.4675 85.2007C98.1136 85.2007 97.7571 85.087 97.4561 84.8523L85.1562 75.2569C84.4396 74.6979 84.3115 73.6642 84.8705 72.9467C85.4294 72.2301 86.464 72.1028 87.1798 72.6618L99.4797 82.2573C100.196 82.8162 100.324 83.8499 99.7645 84.5674C99.4412 84.9831 98.9566 85.2007 98.4675 85.2007Z" fill="#414042"/>
<path d="M10.8432 85.2007C10.3532 85.2007 9.86945 84.9831 9.54429 84.5674C8.98533 83.8508 9.11342 82.8171 9.83004 82.2573L22.1298 72.6618C22.8465 72.1028 23.8802 72.2301 24.44 72.9467C24.999 73.6633 24.8709 74.697 24.1543 75.2569L11.8545 84.8523C11.5544 85.087 11.197 85.2007 10.8432 85.2007Z" fill="#414042"/>
<path opacity="0.6" d="M81.2807 54.1327C81.2807 58.6179 80.1789 63.1791 77.9654 67.0946C74.6224 72.9968 71.7846 82.8064 70.5091 89.4889C70.3183 90.4922 70.0988 91.6271 69.7512 92.702H66.5874C66.9367 91.6271 67.1535 90.4922 67.347 89.4889C68.6208 82.8064 71.4586 72.9968 74.8016 67.0946C77.015 63.18 78.1168 58.6179 78.1168 54.1327C78.1168 39.6946 66.5515 28.7402 52.3169 27.9206C52.8391 27.891 53.6032 27.7773 54.1344 27.7773C69.1054 27.7773 81.2807 39.1634 81.2807 54.1327Z" fill="#FF5E14"/>
</g>
</svg>
