<svg width="110" height="110" viewBox="0 0 110 110" fill="none" xmlns="http://www.w3.org/2000/svg">
<mask id="mask0_224_44" style="mask-type:luminance" maskUnits="userSpaceOnUse" x="0" y="0" width="110" height="110">
<path d="M110 0.5H0V109.043H110V0.5Z" fill="white"/>
</mask>
<g mask="url(#mask0_224_44)">
<path d="M88.3391 21.1906L89.7674 11.6718L98.2046 3.13647L98.5344 7.91618L98.2307 7.05781L97.851 3.4947L100.811 0.5L101.432 7.94533L88.3391 21.1906Z" fill="#414042"/>
<path d="M102.485 8.98633L89.3916 22.2308L98.8935 20.6928L102.245 17.3023L105.952 13.552L106.977 12.5157L107.432 12.0554L109.937 9.52098L102.485 8.98633Z" fill="#414042"/>
<path d="M46.0242 80.8307C41.266 80.8307 36.7924 78.9774 33.4279 75.613C30.0635 72.2485 28.2102 67.7749 28.2102 63.0167C28.2102 58.2584 30.0635 53.7848 33.4279 50.4204C36.7924 47.0559 41.266 45.2026 46.0242 45.2026C49.5413 45.2026 52.9418 46.2267 55.8598 48.1628C56.7351 48.7435 56.9728 49.9233 56.3922 50.7985C55.8115 51.6738 54.6317 51.9123 53.7565 51.3309C51.4636 49.809 48.7896 49.0051 46.0235 49.0051C38.2974 49.0051 32.0127 55.2906 32.0127 63.0159C32.0127 70.742 38.2982 77.0267 46.0235 77.0267C53.7488 77.0267 60.0343 70.7412 60.0343 63.0159C60.0343 61.2562 59.7129 59.5425 59.08 57.9217C58.698 56.9436 59.1805 55.8406 60.1593 55.4586C61.1374 55.0766 62.2404 55.5591 62.6224 56.5379C63.4286 58.6021 63.8375 60.7814 63.8375 63.0167C63.8375 67.7749 61.9842 72.2485 58.6198 75.613C55.2561 78.9774 50.7825 80.8307 46.0242 80.8307Z" fill="#414042"/>
<path d="M46.0243 95.8302C41.5951 95.8302 37.2979 94.9626 33.2508 93.2505C29.3433 91.5974 25.8338 89.2317 22.8215 86.2194C19.8092 83.207 17.4427 79.6976 15.7904 75.7901C14.079 71.7437 13.2107 67.4457 13.2107 63.0166C13.2107 58.5874 14.0783 54.2902 15.7904 50.2431C17.4435 46.3355 19.8092 42.8261 22.8215 39.813C25.8346 36.7999 29.3433 34.4342 33.2508 32.7811C37.2972 31.0698 41.5951 30.2014 46.0243 30.2014C49.8628 30.2014 53.623 30.8588 57.1999 32.1544C60.6572 33.4071 63.8621 35.2235 66.7256 37.5555C67.5403 38.2182 67.663 39.4164 66.9995 40.2303C66.3367 41.045 65.1393 41.1677 64.3246 40.5042C59.176 36.3128 52.6764 34.0039 46.0235 34.0039C30.0267 34.0039 17.0124 47.0182 17.0124 63.0158C17.0124 79.0126 30.0267 92.027 46.0235 92.027C62.0203 92.027 75.0354 79.0126 75.0354 63.0158C75.0354 57.367 73.4123 51.8938 70.3409 47.1862C69.7671 46.3064 70.0149 45.1289 70.894 44.5551C71.773 43.9814 72.9513 44.2291 73.5251 45.1082C77.0007 50.4348 78.8379 56.6275 78.8379 63.0158C78.8379 67.445 77.9703 71.7422 76.2582 75.7893C74.6051 79.6968 72.2394 83.2062 69.2263 86.2186C66.2132 89.2317 62.7046 91.5974 58.7963 93.2497C54.7507 94.9626 50.4534 95.8302 46.0243 95.8302Z" fill="#414042"/>
<path d="M46.0243 109.041C39.8117 109.041 33.784 107.824 28.1091 105.423C22.6282 103.105 17.7066 99.787 13.48 95.5611C9.25411 91.3353 5.9357 86.4129 3.61757 80.9321C1.21736 75.2572 0 69.2294 0 63.0168C0 56.8042 1.21736 50.7764 3.61757 45.1015C5.9357 39.6207 9.25411 34.6991 13.48 30.4724C17.7059 26.2458 22.6282 22.9281 28.1091 20.6092C33.7847 18.209 39.8117 16.9917 46.0243 16.9917C51.6563 16.9917 57.1586 17.9981 62.3778 19.9825C67.4199 21.8995 72.0523 24.6702 76.147 28.2172C76.9409 28.9045 77.0268 30.1058 76.3388 30.8989C75.6515 31.6929 74.4502 31.7788 73.657 31.0907C65.9923 24.4508 56.179 20.7941 46.0243 20.7941C22.7433 20.7941 3.80244 39.735 3.80244 63.0168C3.80244 86.2978 22.7433 105.239 46.0243 105.239C69.3061 105.239 88.247 86.2978 88.247 63.0168C88.247 53.8478 85.3582 45.1284 79.8934 37.8012C79.266 36.9597 79.4393 35.7684 80.2808 35.1401C81.1223 34.5119 82.3136 34.686 82.9418 35.5275C85.8414 39.4159 88.0959 43.7085 89.6408 48.2857C91.2386 53.0194 92.0494 57.9755 92.0494 63.0168C92.0494 69.2294 90.8321 75.2572 88.4319 80.9321C86.1137 86.4129 82.7953 91.3345 78.5687 95.5611C74.342 99.787 69.4204 103.105 63.9396 105.423C58.2647 107.824 52.237 109.041 46.0243 109.041Z" fill="#414042"/>
<path d="M46.0764 76.1338C53.3509 76.1338 59.248 70.2366 59.248 62.9621C59.248 55.6876 53.3509 49.7905 46.0764 49.7905C38.8019 49.7905 32.9048 55.6876 32.9048 62.9621C32.9048 70.2366 38.8019 76.1338 46.0764 76.1338Z" fill="#FF5E14"/>
<path d="M46.8634 66.1654C46.4285 66.1654 45.9943 66.0013 45.6606 65.6714C44.9887 65.0071 44.9825 63.9232 45.6468 63.2513L101.519 6.73166C102.183 6.0597 103.267 6.05356 103.939 6.71786C104.611 7.38215 104.617 8.46604 103.953 9.138L48.0808 65.6569C47.7456 65.9959 47.3045 66.1654 46.8634 66.1654Z" fill="#414042"/>
</g>
</svg>
