<svg width="81" height="81" viewBox="0 0 81 81" fill="none" xmlns="http://www.w3.org/2000/svg">
<path d="M72.9727 42.5C73.4344 42.5007 74.0406 42.3892 74.6546 42.2666C74.7781 42.242 74.903 42.2166 75.0291 42.191C75.5519 42.0849 76.0934 41.9749 76.6273 41.8962C77.2921 41.7983 77.9018 41.7562 78.3982 41.8217C78.8155 41.8768 79.0996 42.0001 79.2814 42.181L79.2816 72.4734C79.2798 74.6463 78.6626 76.7082 77.5925 78.2096C76.524 79.7089 75.1179 80.4976 73.7043 80.5H50.9166C49.503 80.4976 48.0969 79.7089 47.0284 78.2096C45.9583 76.7082 45.3411 74.6462 45.3393 72.4733V25.5794C45.3447 18.8853 47.2436 12.4889 50.5922 7.79057C53.9393 3.09432 58.4348 0.507393 63.0708 0.5C63.6786 0.500259 64.3125 0.838814 64.8114 1.53885C65.312 2.24123 65.6085 3.22021 65.6085 4.26316C65.6085 5.30611 65.312 6.28509 64.8114 6.98747C64.3123 7.68777 63.6781 8.02631 63.0701 8.02631H63.0693C59.6496 8.0317 56.4219 9.94039 54.0728 13.2363C51.7271 16.5276 50.422 20.9628 50.4162 25.5676L49.6855 41.9778L49.6623 42.5H50.185H72.9727ZM72.9727 42.5L72.9735 42M72.9727 42.5H72.9735V42M72.9735 42C73.4536 42.0008 74.1511 41.8591 74.9238 41.7022C76.3868 41.405 78.1197 41.053 79.1587 41.5091L72.9735 42ZM6.85856 42.5H35.2232C35.2232 42.6997 35.2232 42.8961 35.2232 43.0866C35.2234 44.306 35.2235 45.2856 35.2237 45.3349L35.2237 45.3388L35.2239 45.3507V72.4733C35.2222 74.6462 34.605 76.7082 33.5348 78.2096C32.4663 79.7089 31.0602 80.4976 29.6466 80.5H6.85896C5.44537 80.4976 4.03928 79.7089 2.97073 78.2096C1.90061 76.7082 1.2834 74.6462 1.28163 72.4733V25.5794C1.28703 18.8853 3.18591 12.4889 6.53451 7.79057C9.88162 3.09432 14.3771 0.507393 19.0131 0.5C19.621 0.500259 20.2548 0.838814 20.7537 1.53885C21.2544 2.24123 21.5509 3.22021 21.5509 4.26316C21.5509 5.30611 21.2544 6.28509 20.7537 6.98747C20.2546 7.68777 19.6205 8.02631 19.0124 8.02631H19.0116C15.5919 8.0317 12.3642 9.94039 10.0152 13.2363C7.66756 16.5302 6.36225 20.9699 6.35856 25.5785V25.5789V42V42.5H6.85856Z" fill="#D8DDFF" stroke="#D8DDFF"/>
</svg>
