<svg width="34" height="61" viewBox="0 0 34 61" fill="none" xmlns="http://www.w3.org/2000/svg">
<path d="M8.9917 13.6379L8.99155 13.6382C8.3878 14.6829 7.39388 15.4451 6.22832 15.7572C5.06276 16.0693 3.82096 15.9058 2.77594 15.3026C1.73091 14.6994 0.968202 13.7058 0.655498 12.5404C0.342822 11.3751 0.505663 10.1333 1.10822 9.08807C2.99881 5.81358 5.91704 3.25441 9.41031 1.80747C12.9036 0.360522 16.7767 0.106661 20.429 1.08526C24.0812 2.06385 27.3085 4.22021 29.6103 7.21991C31.912 10.2194 33.1597 13.8945 33.16 17.6753C33.1465 21.3587 31.947 24.9397 29.7393 27.8881C27.5313 30.8368 24.4323 32.9959 20.9013 34.0455L20.5429 34.1521L20.5438 34.526L20.5515 37.8661C20.5544 39.073 20.0778 40.2315 19.2265 41.0869C18.3753 41.9423 17.2191 42.4246 16.0123 42.4276H16.0013C16.0013 42.4276 16.0012 42.4276 16.0012 42.4276C14.7964 42.4274 13.6408 41.9494 12.7878 41.0985C11.9349 40.2477 11.4541 39.0933 11.4509 37.8885C11.4509 37.8884 11.4509 37.8884 11.4509 37.8883L11.4454 35.4084L11.4452 35.3583L11.4352 35.3093L11.4336 35.3016V30.3286C11.4626 30.067 11.5155 29.8085 11.5918 29.5566L11.6064 29.5084L11.6111 29.4584C11.6404 29.1466 11.701 28.8385 11.792 28.5389C11.913 28.324 12.0518 28.1195 12.2069 27.9276L12.237 27.8903L12.2594 27.848C12.402 27.5799 12.5708 27.3267 12.7634 27.0921C12.9827 26.9138 13.2179 26.7561 13.4662 26.621L13.5082 26.5982L13.5451 26.5678C13.7521 26.3974 13.974 26.246 14.208 26.1155C14.4885 26.0319 14.7762 25.9746 15.0674 25.9443L15.1173 25.9391L15.1652 25.9241C15.4362 25.8392 15.715 25.7814 15.9974 25.7515C18.1343 25.748 20.1829 24.8976 21.6941 23.3863C23.2086 21.8719 24.0594 19.8178 24.0594 17.6761C24.0594 15.5344 23.2086 13.4803 21.6941 11.9659C20.1797 10.4514 18.1257 9.60064 15.9839 9.60064H15.9834C14.5665 9.60228 13.1748 9.97608 11.9478 10.6846C10.7208 11.3932 9.70141 12.4116 8.9917 13.6379ZM11.5327 54.6469C11.7114 53.7677 12.1461 52.961 12.7819 52.3282C13.6556 51.5169 14.8038 51.0659 15.9963 51.0659C17.1875 51.066 18.3346 51.5162 19.2078 52.326C20.0487 53.1898 20.5194 54.3478 20.5194 55.5536C20.5194 56.7607 20.0476 57.92 19.2049 58.7841C18.334 59.6209 17.176 60.093 15.9682 60.1037C15.0695 60.099 14.1923 59.8283 13.4472 59.3257C12.7012 58.8225 12.1212 58.1095 11.7804 57.2767C11.4396 56.4439 11.3534 55.5287 11.5327 54.6469Z" fill="#081131" stroke="black"/>
</svg>
