<svg width="41" height="56" viewBox="0 0 41 56" fill="none" xmlns="http://www.w3.org/2000/svg">
<path d="M40.2443 3.16406C40.2443 1.42383 38.7501 0 36.9239 0H3.32239C1.49622 0 0.00208001 1.42383 0.00208001 3.16406C0.00208001 4.9043 1.49622 6.32812 3.32239 6.32812H12.9513C17.7658 6.35977 22.0157 9.2707 23.5431 13.6055H3.32239C1.49622 13.6055 0.00208001 15.0293 0.00208001 16.7695C0.00208001 18.5098 1.49622 19.9336 3.32239 19.9336H23.5431C23.0118 21.5789 22.049 23.0977 20.7872 24.3316C18.7286 26.3566 15.9064 27.4957 12.9513 27.5273H3.32239C1.56263 27.4641 0.0684863 28.793 0.00208001 30.4699C-0.0311231 31.3559 0.334113 32.2418 1.03138 32.843L25.0704 54.4852C26.3986 55.6875 28.5236 55.6242 29.7521 54.327C30.9806 53.1246 30.9474 51.1945 29.6857 50.0238C29.6525 49.9922 29.6193 49.9922 29.6193 49.9605L11.6564 33.8555H12.9181C17.6329 33.8238 22.1486 32.0203 25.4689 28.8246C28.0255 26.4199 29.7521 23.3191 30.3497 19.9336H36.9239C38.7501 19.9336 40.2443 18.5098 40.2443 16.7695C40.2443 15.0293 38.7501 13.6055 36.9239 13.6055H30.3497C29.8849 10.916 28.6232 8.38477 26.7306 6.32812H36.8908C38.7501 6.32812 40.2443 4.9043 40.2443 3.16406Z" fill="white"/>
</svg>
