<svg width="64" height="64" viewBox="0 0 64 64" fill="none" xmlns="http://www.w3.org/2000/svg">
<path d="M43.3489 50.7004C50.9904 48.6791 55.5465 40.8459 53.5252 33.2044C51.504 25.5629 43.6708 21.0068 36.0293 23.0281C28.3878 25.0493 23.8317 32.8826 25.8529 40.524C27.8742 48.1655 35.7074 52.7217 43.3489 50.7004Z" fill="#FF6D00"/>
<path d="M33.7378 41.7761C41.3793 39.7549 45.9354 31.9217 43.9141 24.2802C41.8929 16.6387 34.0597 12.0826 26.4182 14.1038C18.7767 16.1251 14.2206 23.9583 16.2418 31.5998C18.2631 39.2413 26.0963 43.7974 33.7378 41.7761Z" fill="#AB0738"/>
<path d="M32.0099 53.276L33.5419 53.135L34.8379 55.401L33.4789 56.51L32.2289 55.041L31.9009 53.307L32.0099 53.276Z" fill="#F2F3F4"/>
<path d="M28.479 33.484L32.312 34.401L37.854 35.588L41.687 39.317L45.812 44.359L47.135 47.182L47.271 48.109L45.271 50.692L41.271 52.442L34.713 55.948L33.042 53.026L35.042 51.932L41.042 47.526L39.646 46.442L34.896 44.067L32.979 44.526L30.604 45.734L30.021 47.317L28.323 44.994L25.104 44.859L24.187 44.692L26.396 39.817L27.854 34.609L28.479 33.484Z" fill="#32313C"/>
<path d="M36.146 14.963L37.125 14.088H40.375L43.271 15.38L43.375 16.88L42.208 18.672L44.792 17.151L47.625 14.526L48.062 13.609L49.833 14.901L47.51 18.557L46.979 19.713L47.385 20.151L49.885 20.338L50.854 19.182L51.635 16.119L54.729 16.317L53.896 19.609L52.229 23.609L46.323 24.182L45.729 24.994L39.135 23.932L37.646 20.609L36.437 18.234L36.146 14.963Z" fill="#EDB29F"/>
<path d="M30.604 34.609L28.187 40.817L29.979 39.359L31.729 34.276L30.604 34.609Z" fill="#FF6D00"/>
<path d="M40.4479 23.557L40.5099 19.151L36.7299 18.838L33.8849 19.682L32.0209 22.026L30.5409 29.338L28.2909 34.057C28.2909 34.057 28.1039 33.994 30.0729 34.463C32.0419 34.932 31.3229 34.901 33.1979 35.869C35.0729 36.839 35.6669 36.994 36.7599 36.839C37.8529 36.684 38.2919 36.026 38.2919 36.026L38.0419 35.338L41.3539 29.776L42.8539 24.932L43.8229 24.588L45.7289 24.994L46.3229 24.182C46.3229 24.182 46.9479 22.276 46.8539 21.619C46.7599 20.962 47.0729 20.307 47.0729 20.307L46.0099 20.869L44.0419 21.963L41.0419 22.526L40.4479 23.557ZM32.6459 53.13C32.6459 53.13 33.0419 53.755 33.0209 54.13C32.9999 54.505 32.4369 54.672 32.6669 55.088C32.8959 55.505 33.4999 56.192 33.4999 56.192L33.5199 59.692L34.1669 60.692L33.5829 61.547L32.0419 61.505L30.3329 57.213L29.5829 53.734L30.2289 53.192L31.6459 53.005L32.6459 53.13Z" fill="#AB0738"/>
<path d="M47.135 47.182L47.021 46.026L48.437 45.817L50.458 45.797L51.292 46.567L50.708 47.297L48.5 48.484L47 48.88L47.135 47.182Z" fill="#E6E7E8"/>
<path d="M34.7301 58.484L32.8381 58.807L32.5581 57.291L33.9791 56.276L35.5621 55.067L40.0211 53.567L42.2711 52.067C42.2711 52.067 44.4371 50.901 44.9791 50.526C45.5211 50.151 47.6041 49.026 47.6041 49.026C47.6041 49.026 51.1871 46.942 51.4791 47.234C51.7711 47.526 50.6041 48.317 50.6041 48.317L47.9171 51.119L46.7711 52.234C46.7711 52.234 45.1461 53.026 44.9791 53.026C44.8121 53.026 43.3121 52.901 43.3121 52.901L37.3961 56.692L34.7301 58.484Z" fill="#FF6D00"/>
<path d="M50.7599 46.088C50.8699 46.198 51.2129 46.369 50.8699 46.744C50.5269 47.119 48.9799 48.041 48.5419 48.182C48.1039 48.323 46.4789 49.151 46.1979 49.322C45.9169 49.493 45.1509 50.292 45.1509 50.292L45.1669 50.572L50.6969 47.854L51.6969 47.041L51.0879 46.198L50.7599 46.088Z" fill="#AB0738"/>
<path d="M51.5 16.838L54.187 17.317L54.583 14.817L55.125 12.255L55.271 10.817L53.604 10.172L52.729 9.69199L51.5 10.797L51.542 12.567L51.458 14.588L51.771 16.067L51.5 16.838Z" fill="#E6E7E8"/>
<path d="M54.272 16.79C54.272 16.79 53.564 17.07 53.073 17.015C52.583 16.96 51.627 16.525 51.627 16.525L52.029 15.193C52.029 15.193 52.535 15.468 53.249 15.523C53.964 15.578 54.363 15.573 54.363 15.573L54.272 16.79Z" fill="#546187"/>
<path d="M7.52004 62.193C7.38744 62.1933 7.26015 62.1408 7.1662 62.0473C7.07224 61.9537 7.01931 61.8266 7.01904 61.694C7.01878 61.5614 7.0712 61.4341 7.16478 61.3401C7.25836 61.2462 7.38544 61.1933 7.51804 61.193L42.593 61.056C42.905 61.026 43.093 61.278 43.095 61.554C43.0953 61.6197 43.0826 61.6847 43.0578 61.7455C43.0329 61.8063 42.9963 61.8615 42.95 61.9081C42.9038 61.9547 42.8488 61.9918 42.7882 62.0172C42.7277 62.0425 42.6627 62.0557 42.597 62.056L7.52204 62.193H7.52004Z" fill="#231F20"/>
<path d="M47.833 51.395C47.8128 51.3952 47.793 51.3892 47.7763 51.3777C47.7597 51.3663 47.747 51.3499 47.74 51.331C47.5689 50.8957 47.2927 50.5095 46.936 50.207C46.9161 50.1898 46.9038 50.1654 46.9018 50.1392C46.8997 50.113 46.908 50.0871 46.925 50.067C46.942 50.047 46.9663 50.0345 46.9925 50.0323C47.0187 50.03 47.0447 50.0382 47.065 50.055C47.449 50.38 47.747 50.797 47.925 51.259C47.9301 51.2712 47.9328 51.2843 47.9327 51.2975C47.9327 51.3107 47.93 51.3238 47.9247 51.3359C47.9195 51.3481 47.9119 51.3591 47.9023 51.3682C47.8927 51.3773 47.8814 51.3844 47.869 51.389C47.8575 51.3933 47.8453 51.3953 47.833 51.395ZM45.052 53.035C45.0319 53.0353 45.0122 53.0294 44.9956 53.0181C44.9789 53.0069 44.9661 52.9908 44.959 52.972C44.7879 52.5367 44.5117 52.1505 44.155 51.848C44.135 51.8309 44.1225 51.8067 44.1202 51.7805C44.118 51.7542 44.1262 51.7282 44.143 51.708C44.1514 51.6979 44.1618 51.6896 44.1735 51.6836C44.1851 51.6776 44.1979 51.6739 44.211 51.6728C44.2241 51.6716 44.2373 51.6731 44.2498 51.6771C44.2623 51.6811 44.2739 51.6875 44.284 51.696C44.668 52.021 44.966 52.438 45.144 52.9C45.149 52.9121 45.1515 52.9251 45.1514 52.9382C45.1512 52.9513 45.1485 52.9643 45.1433 52.9763C45.138 52.9884 45.1304 52.9992 45.121 53.0083C45.1115 53.0173 45.1002 53.0244 45.088 53.029C45.0765 53.0336 45.0643 53.035 45.052 53.035ZM36.655 57.431C36.6349 57.4313 36.6152 57.4254 36.5986 57.4141C36.5819 57.4029 36.5691 57.3868 36.562 57.368C36.3915 56.9326 36.1156 56.5464 35.759 56.244C35.7489 56.2355 35.7406 56.2252 35.7346 56.2135C35.7285 56.2018 35.7249 56.1891 35.7237 56.176C35.7226 56.1629 35.7241 56.1497 35.7281 56.1372C35.7321 56.1246 35.7385 56.113 35.747 56.103C35.764 56.083 35.7883 56.0705 35.8145 56.0683C35.8407 56.066 35.8668 56.0742 35.887 56.091C36.154 56.317 36.52 56.708 36.748 57.295C36.7531 57.3072 36.7557 57.3204 36.7556 57.3337C36.7555 57.3469 36.7527 57.36 36.7473 57.3722C36.742 57.3844 36.7343 57.3953 36.7246 57.4044C36.7149 57.4135 36.7035 57.4205 36.691 57.425C36.6795 57.4293 36.6672 57.4313 36.655 57.431Z" fill="#AB0738"/>
<path d="M46.23 25.495C46.2021 25.4952 46.1744 25.4928 46.147 25.488C45.477 25.376 43.649 25.08 43.261 25.056C43.1286 25.0478 43.005 24.9873 42.9172 24.8879C42.8294 24.7885 42.7847 24.6583 42.793 24.526C42.81 24.251 43.021 24.026 43.323 24.058C43.703 24.081 45.033 24.292 45.793 24.416L45.826 24.124C45.8397 24.007 45.8942 23.8987 45.98 23.818C46.0658 23.7373 46.1774 23.6895 46.295 23.683C46.575 23.666 47.992 23.591 48.431 23.657C48.756 23.694 51.035 23.442 51.676 23.289C52.02 23.207 52.027 23.205 52.416 22.413L52.595 22.053C53.027 21.187 53.565 18.062 53.735 16.931C53.738 16.895 53.885 15.466 54.102 14.684C54.227 14.234 54.46 13.587 54.654 13.052C54.784 12.697 54.894 12.395 54.935 12.246C54.986 12.06 54.939 11.724 54.909 11.6C54.8978 11.5525 54.8934 11.5037 54.896 11.455C54.8987 11.3903 54.898 11.3256 54.894 11.261C54.7803 11.3177 54.6498 11.3312 54.527 11.299C54.346 11.246 54.191 11.111 54.154 10.929C54.0878 10.9844 54.0084 11.0216 53.9236 11.0373C53.8387 11.0529 53.7513 11.0462 53.6698 11.0181C53.5882 10.9899 53.5154 10.9411 53.4583 10.8764C53.4012 10.8117 53.3618 10.7334 53.344 10.649C53.3272 10.5767 53.3013 10.5068 53.267 10.441C53.262 10.458 53.232 10.468 53.225 10.473C53.123 10.5242 53.0067 10.539 52.8952 10.515C52.7837 10.491 52.6838 10.4296 52.612 10.341L52.342 10.008C52.2211 10.0704 52.0809 10.0836 51.9506 10.0448C51.8202 10.006 51.71 9.91829 51.643 9.8C51.513 9.556 51.585 9.254 51.829 9.125C52.194 8.932 52.753 8.93 53.117 9.377L53.181 9.455C53.407 9.41961 53.6381 9.46989 53.829 9.596C53.8742 9.628 53.9164 9.66416 53.955 9.704C54.063 9.66674 54.1785 9.65665 54.2913 9.67461C54.4042 9.69257 54.5108 9.73804 54.602 9.807C54.733 9.9 54.832 10.013 54.909 10.13C55.0678 10.1042 55.2307 10.1276 55.376 10.197C55.864 10.422 55.909 11.095 55.897 11.442C55.935 11.629 56.011 12.109 55.899 12.513C55.853 12.676 55.734 13.006 55.595 13.393C55.409 13.905 55.185 14.523 55.065 14.952C54.87 15.652 54.728 17.042 54.727 17.056C54.659 17.512 54.07 21.337 53.489 22.499L53.314 22.853C52.892 23.713 52.717 24.07 51.908 24.263C51.281 24.412 48.793 24.724 48.278 24.645C48.08 24.615 47.378 24.631 46.771 24.66L46.727 25.052C46.7129 25.1742 46.6544 25.2869 46.5625 25.3686C46.4707 25.4503 46.3529 25.4953 46.23 25.495Z" fill="#231F20"/>
<path d="M34.0259 52.557C34.0259 52.557 35.0419 54.823 35.1819 54.979C35.3219 55.135 36.6509 54.729 36.6509 54.729L35.4169 51.854L34.0259 52.557Z" fill="#282728"/>
<path d="M34.5549 52.895C34.5549 52.895 35.1799 54.287 35.2659 54.383C35.3519 54.48 36.1689 54.23 36.1689 54.23L35.4099 52.463L34.5549 52.895Z" fill="#A7A9AC"/>
<path d="M37.5569 50.09C37.5569 50.09 39.2919 52.921 39.4869 53.1C39.6829 53.28 40.9899 52.43 40.9899 52.43L38.8459 48.826L37.5559 50.091L37.5569 50.09Z" fill="#282728"/>
<path d="M38.22 50.428C38.22 50.428 39.287 52.167 39.407 52.278C39.527 52.388 40.33 51.865 40.33 51.865L39.013 49.65L38.22 50.428Z" fill="#A7A9AC"/>
<path d="M45.1041 50.984C44.9962 50.9839 44.8912 50.949 44.8048 50.8843C44.7184 50.8197 44.6552 50.7288 44.6248 50.6253C44.5943 50.5218 44.5981 50.4112 44.6356 50.31C44.6732 50.2089 44.7424 50.1225 44.8331 50.064C46.8321 48.774 46.7271 47.942 46.6431 47.273C46.5631 46.633 46.3561 46.007 44.2571 42.999C42.2541 40.13 37.5711 36.005 37.5241 35.964C37.4244 35.8746 37.3643 35.7493 37.357 35.6156C37.3496 35.4819 37.3957 35.3507 37.4851 35.251C37.5011 35.235 39.0351 33.531 40.4251 30.267C40.6651 29.707 41.0201 28.627 41.3651 27.581C41.8811 26.013 42.2101 25.035 42.4251 24.675C42.7731 24.096 43.4071 23.783 43.7861 23.595C43.8571 23.56 43.9151 23.533 43.9511 23.51C44.1481 23.313 44.4411 23.333 44.6371 23.529C44.8331 23.725 44.8101 24.059 44.6141 24.254C44.5211 24.347 44.4051 24.404 44.2291 24.492C43.9491 24.63 43.4791 24.862 43.2831 25.189C43.1091 25.479 42.6681 26.819 42.3141 27.894C41.9641 28.958 41.6021 30.06 41.3461 30.66C40.2561 33.212 39.0991 34.84 38.5481 35.537C39.7101 36.582 43.3151 39.904 45.0781 42.427C47.2381 45.524 47.5251 46.265 47.6321 47.12C47.7351 47.943 47.9021 49.274 45.3761 50.904C45.2952 50.9567 45.2006 50.9845 45.1041 50.984Z" fill="#231F20"/>
<path d="M33.32 59.42C33.061 59.42 32.806 59.369 32.584 59.237C32.306 59.073 32.108 58.763 32.013 58.342C31.918 57.921 31.919 57.347 32.142 57.014C32.338 56.72 33.283 56.088 34.082 55.587C34.285 55.276 34.887 54.522 36.069 54.286C37.289 54.041 41.943 51.65 42.367 51.276C42.4162 51.2325 42.4736 51.1992 42.5357 51.1779C42.5978 51.1566 42.6636 51.1477 42.7291 51.1518C42.7947 51.1559 42.8588 51.1728 42.9178 51.2017C42.9768 51.2306 43.0295 51.2708 43.073 51.32C43.1165 51.3693 43.1498 51.4266 43.1711 51.4887C43.1924 51.5508 43.2013 51.6166 43.1972 51.6821C43.1931 51.7477 43.1762 51.8118 43.1473 51.8708C43.1185 51.9298 43.0782 51.9825 43.029 52.026C42.394 52.586 37.572 55.004 36.265 55.266C35.28 55.463 34.897 56.167 34.893 56.174C34.8522 56.2549 34.7899 56.3231 34.713 56.371C33.978 56.831 33.099 57.428 32.96 57.587C32.908 57.723 32.968 58.273 33.098 58.379C33.279 58.487 33.819 58.38 34.143 58.169C34.211 58.125 43.653 52.499 43.976 52.352C44.0502 52.3158 44.1328 52.3006 44.215 52.308C44.667 52.338 45.209 52.364 45.337 52.355C45.553 52.288 47.013 51.483 47.307 51.227C47.3471 51.1936 47.3839 51.1564 47.417 51.116C47.4176 51.0237 47.4436 50.9334 47.4923 50.8551C47.5411 50.7767 47.6105 50.7133 47.693 50.672L47.691 50.673C47.684 50.673 47.97 50.446 48.623 49.441C49.187 48.573 49.886 48.155 50.446 47.818C50.738 47.643 50.99 47.493 51.128 47.328C51.265 47.168 51.297 47.128 50.901 46.775C50.677 46.585 49.629 46.307 49.104 46.307C48.737 46.307 47.657 46.529 47.062 46.668C46.9981 46.6838 46.9318 46.6867 46.8668 46.6765C46.8018 46.6663 46.7395 46.6432 46.6836 46.6085C46.6277 46.5738 46.5792 46.5283 46.5412 46.4747C46.5031 46.421 46.4762 46.3602 46.462 46.296C46.4469 46.2322 46.4445 46.166 46.455 46.1012C46.4655 46.0365 46.4887 45.9745 46.5233 45.9187C46.5579 45.8629 46.6031 45.8146 46.6564 45.7764C46.7098 45.7381 46.7701 45.7108 46.834 45.696C47.003 45.656 48.501 45.307 49.104 45.307C49.674 45.307 51.064 45.576 51.534 45.997C51.844 46.277 52.686 47.031 51.894 47.973C51.647 48.264 51.314 48.464 50.961 48.676C50.463 48.974 49.899 49.312 49.461 49.986C48.954 50.766 48.613 51.168 48.393 51.376C48.343 51.549 48.222 51.757 47.963 51.981C47.66 52.246 45.846 53.324 45.403 53.353C45.193 53.363 44.593 53.333 44.296 53.315C43.273 53.903 35.042 58.777 34.69 59.007C34.384 59.207 33.845 59.42 33.32 59.42Z" fill="#231F20"/>
<path d="M33.3781 62.084C33.0451 62.084 32.5781 62.044 32.0711 61.875C30.7831 61.445 28.7901 54.365 28.7731 54.295C28.6531 53.775 28.8161 53.26 29.2091 52.917C29.7011 52.487 30.4421 52.397 31.1971 52.683C31.8111 52.915 32.2911 52.783 32.7161 52.663L32.8511 52.625C33.3371 52.496 34.4241 52.207 36.0181 50.469C37.7801 48.545 40.4911 47.225 40.6051 47.169C40.7244 47.1112 40.8618 47.1032 40.9871 47.1467C41.1124 47.1902 41.2152 47.2817 41.2731 47.401C41.3309 47.5204 41.3389 47.6578 41.2954 47.7831C41.2519 47.9083 41.1604 48.0112 41.0411 48.069C41.0151 48.082 38.3861 49.366 36.7541 51.145C34.9641 53.099 33.6321 53.453 33.1301 53.586L32.9831 53.626C32.4981 53.761 31.7631 53.966 30.8431 53.619C30.3721 53.439 30.0291 53.529 29.8671 53.67C29.8109 53.7182 29.7698 53.7815 29.7487 53.8525C29.7276 53.9234 29.7273 53.999 29.7481 54.07C30.0281 55.287 31.8021 60.489 32.4341 60.948C32.8201 61.074 33.1881 61.093 33.4331 61.085C33.5301 60.775 33.5781 60.465 33.5341 60.365C32.8941 59.955 32.9611 58.876 32.9811 58.665C32.9856 58.5991 33.0035 58.5347 33.0337 58.476C33.064 58.4172 33.1059 58.3652 33.1569 58.3232C33.2079 58.2812 33.267 58.25 33.3304 58.2315C33.3939 58.2131 33.4605 58.2078 33.5261 58.216C33.658 58.2284 33.7796 58.2927 33.8641 58.3947C33.9487 58.4967 33.9893 58.6281 33.9771 58.76C33.9471 59.101 34.0231 59.506 34.1321 59.579C34.8871 60.081 34.4151 61.369 34.2521 61.752C34.2196 61.8289 34.1683 61.8964 34.103 61.9483C34.0376 62.0002 33.9603 62.0348 33.8781 62.049C33.7126 62.0742 33.5454 62.0859 33.3781 62.084Z" fill="#231F20"/>
<path d="M13.1251 55.192C13.1251 55.192 10.7501 56.901 10.6451 57.338C10.5421 57.776 10.4171 58.297 10.8551 58.255C11.2931 58.213 13.3551 57.901 13.8751 58.588C14.3951 59.276 14.7711 60.338 14.6871 60.505C14.6041 60.672 22.9581 53.525 23.4371 53.234C23.9171 52.942 24.3331 53.088 24.6461 52.714C24.9591 52.34 26.8541 50.776 26.9161 50.588C26.9781 50.4 28.8541 48.838 29.2921 48.432C29.7301 48.026 30.4481 47.619 30.1041 46.932C29.7601 46.245 29.0101 45.463 28.3231 44.994C27.6361 44.525 26.6041 44.026 25.6671 44.526C24.7301 45.026 23.1971 46.057 23.0421 46.119C22.8871 46.181 22.5721 46.026 22.0421 46.557C21.5121 47.088 20.3221 47.869 20.1671 48.088C20.0121 48.307 19.9791 48.869 19.9791 48.869L13.1251 55.192Z" fill="#FF6D00"/>
<path d="M10.4169 59.005L12.1249 57.922L13.6249 58.505L14.6039 59.734V61.463L11.1459 61.838L9.43188 61.619L9.60388 60.255L10.1459 59.422L10.4169 59.005Z" fill="#AB0738"/>
<path d="M14.602 61.006C14.512 61.006 14.453 60.96 14.378 60.901C14.3058 60.8437 14.2507 60.7678 14.2187 60.6814C14.1866 60.595 14.1787 60.5015 14.196 60.411C14.164 60.181 13.88 59.423 13.476 58.891C13.406 58.798 13.023 58.512 11.074 58.734L10.902 58.754C10.541 58.788 10.33 58.617 10.238 58.511C9.93599 58.164 10.054 57.667 10.158 57.229C10.195 57.069 10.307 56.607 12.808 54.805L19.498 48.633C19.528 48.381 19.597 48.026 19.76 47.797C19.873 47.64 20.108 47.458 20.59 47.097C20.964 46.813 21.43 46.461 21.688 46.204C22.16 45.732 22.537 45.654 22.875 45.64C22.915 45.623 23.145 45.476 23.448 45.284C24.034 44.912 24.837 44.402 25.432 44.084C26.06 43.751 27.116 43.567 28.604 44.581C29.406 45.128 30.188 45.983 30.552 46.708C31.015 47.634 30.257 48.269 29.851 48.61C29.774 48.673 29.699 48.736 29.631 48.798C29.493 48.928 29.211 49.171 28.888 49.453C28.41 49.866 27.534 50.623 27.356 50.829C27.266 51.004 27.029 51.228 26.092 52.056C25.672 52.427 25.15 52.889 25.029 53.034C24.744 53.375 24.406 53.451 24.135 53.51C23.975 53.546 23.835 53.577 23.697 53.662C23.432 53.834 20.933 55.941 18.925 57.633C15.638 60.403 14.923 61.006 14.602 61.006ZM12.322 57.649C13.16 57.649 13.902 57.795 14.273 58.287C14.463 58.537 14.789 59.089 14.997 59.624C15.739 59.011 17.067 57.891 18.28 56.869C21.152 54.448 22.914 52.967 23.178 52.807C23.458 52.637 23.714 52.58 23.918 52.535C24.138 52.485 24.201 52.465 24.262 52.393C24.419 52.203 24.808 51.857 25.43 51.307C25.798 50.982 26.346 50.497 26.478 50.347C26.58 50.152 26.878 49.867 28.233 48.696C28.546 48.426 28.817 48.19 28.953 48.066C29.031 47.993 29.118 47.918 29.208 47.843C29.721 47.413 29.738 47.318 29.658 47.156C29.368 46.579 28.704 45.86 28.042 45.408C27.179 44.818 26.46 44.668 25.902 44.968C25.341 45.267 24.557 45.764 23.984 46.128C23.446 46.469 23.321 46.546 23.227 46.583C23.109 46.631 23.002 46.635 22.916 46.639C22.788 46.644 22.656 46.649 22.396 46.911C22.088 47.218 21.612 47.578 21.192 47.894C20.955 48.073 20.63 48.319 20.562 48.394C20.515 48.5583 20.4868 48.7274 20.478 48.898C20.4705 49.0275 20.4132 49.149 20.318 49.237L13.464 55.56C13.4492 55.5741 13.4335 55.5871 13.417 55.599C12.422 56.314 11.257 57.254 11.111 57.512C11.104 57.556 11.086 57.642 11.071 57.729C11.489 57.683 11.918 57.649 12.322 57.649Z" fill="#231F20"/>
<path d="M14.573 62.15H14.57L9.42995 62.12C9.36038 62.1195 9.29166 62.1046 9.22815 62.0762C9.16463 62.0478 9.1077 62.0065 9.06095 61.955C9.0149 61.9034 8.97995 61.8428 8.95828 61.7771C8.9366 61.7114 8.92866 61.6419 8.93495 61.573C8.93895 61.523 9.05295 60.33 9.30495 59.623C9.58295 58.846 10.669 58.027 10.792 57.936C10.8987 57.8571 11.0324 57.8238 11.1637 57.8435C11.295 57.8632 11.413 57.9342 11.492 58.041C11.5709 58.1477 11.6041 58.2815 11.5844 58.4127C11.5647 58.544 11.4937 58.6621 11.387 58.741C10.989 59.035 10.373 59.608 10.247 59.959C10.137 60.266 10.053 60.738 9.99695 61.123L14.205 61.149C14.259 60.955 14.312 60.733 14.325 60.579C14.311 60.425 14.007 59.771 13.673 59.201C13.6397 59.1443 13.618 59.0817 13.609 59.0166C13.6 58.9515 13.6039 58.8853 13.6204 58.8218C13.637 58.7582 13.6659 58.6985 13.7056 58.6462C13.7452 58.5938 13.7948 58.5497 13.8515 58.5165C13.9081 58.4833 13.9708 58.4615 14.0358 58.4525C14.1009 58.4435 14.1671 58.4474 14.2307 58.464C14.2942 58.4806 14.3539 58.5095 14.4063 58.5491C14.4587 58.5888 14.5027 58.6383 14.536 58.695C14.914 59.341 15.357 60.207 15.321 60.66C15.286 61.1 15.071 61.74 15.047 61.812C15.0133 61.911 14.9495 61.9969 14.8644 62.0577C14.7794 62.1185 14.6775 62.1501 14.573 62.15Z" fill="#231F20"/>
<path d="M47.635 14.338L49.521 15.172L50.937 13.755L51.187 12.317L52.062 10.088L52.292 9.10401L50.771 8.73401L49.448 8.08801L48.521 8.85901L47.583 10.213L47.812 11.901L48.135 12.885L47.635 14.338Z" fill="#E6E7E8"/>
<path d="M49.93 8.66101C49.93 8.66101 49.217 9.30101 49.048 9.86101C48.684 11.073 48.036 11.002 48.036 11.002L47.719 10.696L48.378 8.90801L49.142 8.32001L49.778 7.96701L49.93 8.66101Z" fill="#546187"/>
<path d="M43.104 8.92201C43.104 8.92201 34.854 6.19201 34.75 6.13001L30.583 3.60901L29.75 3.69201L32.125 6.29701L37.271 8.31701L47.167 11.234L47.625 10.838L47.042 10.005L43.104 8.92201Z" fill="#D3CABE"/>
<path d="M48.135 12.885C48.135 12.885 48.885 12.76 49.355 12.916C49.825 13.072 50.667 13.698 50.667 13.698L49.995 14.916C49.995 14.916 49.557 14.541 48.87 14.338C48.183 14.135 47.792 14.057 47.792 14.057L48.135 12.885Z" fill="#546187"/>
<path d="M35.4479 23.307C35.4479 23.307 34.1979 24.713 34.6349 27.963C35.0719 31.213 36.8549 32.682 36.8549 32.682C36.8549 32.682 35.1349 29.713 35.4479 27.401C35.7609 25.089 36.1669 23.557 36.1669 23.557L35.4469 23.307H35.4479Z" fill="#FF6D00"/>
<path d="M34.9689 25.4C34.9689 25.4 33.7189 26.807 34.1559 30.057C34.5929 33.307 36.3749 34.776 36.3749 34.776C36.3749 34.776 34.6559 31.807 34.9689 29.494C35.2819 27.181 35.6869 25.651 35.6869 25.651L34.9689 25.4Z" fill="#FF6D00"/>
<path d="M42.7919 48.963C42.759 48.9631 42.7261 48.9597 42.6939 48.953C42.6319 48.941 42.2839 48.861 41.5439 48.508C40.9619 48.228 40.5889 47.842 40.3159 47.559C40.2179 47.456 40.1279 47.362 40.0379 47.288C39.7529 47.059 37.0609 45.685 35.4169 45.021C34.4529 44.631 34.1999 44.711 33.6939 44.873C33.4459 44.953 33.1369 45.051 32.7079 45.115C31.7979 45.247 30.6019 46.335 30.2179 46.744C30.1269 46.8405 30.0013 46.897 29.8688 46.9009C29.7362 46.9049 29.6074 46.856 29.5109 46.765C29.4144 46.674 29.3579 46.5484 29.354 46.4159C29.35 46.2833 29.3989 46.1545 29.4899 46.058C29.6559 45.882 31.1499 44.331 32.5629 44.124C32.9109 44.074 33.1539 43.996 33.3899 43.92C34.0749 43.7 34.5789 43.604 35.7919 44.093C37.3159 44.709 40.2339 46.157 40.6709 46.514C40.7889 46.61 40.9069 46.731 41.0369 46.866C41.2799 47.119 41.5569 47.406 41.9769 47.606C42.6069 47.908 42.8929 47.974 42.8949 47.974C43.1629 48.034 43.3349 48.298 43.2779 48.567C43.2545 48.6787 43.1935 48.779 43.105 48.8511C43.0166 48.9232 42.906 48.9627 42.7919 48.963Z" fill="#231F20"/>
<path d="M40.5 9.338L41.604 8.547L46.542 9.984L46.292 10.88L40.5 9.338Z" fill="#3D4760"/>
<path d="M40.833 8.151L40.083 9.172L41.25 9.567L41.917 8.651L40.833 8.151Z" fill="#AB0738"/>
<path d="M23.51 46.37C23.4244 46.37 23.3402 46.348 23.2655 46.3061C23.1908 46.2642 23.1281 46.2038 23.0834 46.1308C23.0387 46.0577 23.0136 45.9744 23.0104 45.8888C23.0071 45.8032 23.026 45.7182 23.065 45.642C23.077 45.619 24.255 43.314 25.166 41.66C25.751 40.596 25.922 39.665 26.073 38.844C26.148 38.433 26.22 38.044 26.335 37.671C27.115 35.128 27.965 33.189 28.86 31.907C30.028 30.232 30.81 25.026 30.818 24.973C30.812 21.289 33.868 18.233 37.625 18.233C39.611 18.519 41.777 18.788 42.111 18.753C42.159 18.723 42.352 18.488 42.494 18.317C42.774 17.98 43.12 17.56 43.608 17.235C44.441 16.679 47.008 14.338 47.232 14.043C47.33 13.908 47.505 13.339 47.623 12.843L47.067 11.772C47.0191 11.6798 47.0013 11.5749 47.016 11.472C47.066 11.111 47.345 9.27699 47.886 8.66299C48.41 8.06999 49.185 7.66299 49.216 7.64499C49.275 7.61415 49.3395 7.59542 49.4058 7.58993C49.4721 7.58443 49.5388 7.59228 49.602 7.61299C49.825 7.68399 50.085 7.79899 50.265 7.97599C50.486 7.95999 50.797 7.98499 51.014 8.25299C51.07 8.25099 51.142 8.24899 51.192 8.24599C51.4 8.23499 51.652 8.21699 51.868 8.35499H51.938C52.108 8.35999 52.395 8.36499 52.605 8.58899C52.6711 8.66043 52.7218 8.7447 52.754 8.83656C52.7862 8.92842 52.7991 9.02592 52.792 9.12299C52.782 9.38899 52.615 9.83499 52.323 10.601C52.137 11.093 51.903 11.705 51.87 11.932C51.76 12.68 51.542 13.76 50.929 14.509C50.451 15.093 49.464 16.3 49.28 16.666C49.26 16.707 46.478 21.284 46.007 21.598C45.99 21.608 44.328 22.682 43.667 22.682C43.399 22.682 41.962 22.889 41.118 23.02L40.888 23.08L41.036 24.01C41.0481 24.0853 41.0426 24.1623 41.0201 24.2352C40.9975 24.308 40.9585 24.3747 40.906 24.43C40.8533 24.4844 40.7892 24.5266 40.7183 24.5535C40.6475 24.5805 40.5716 24.5916 40.496 24.586C40.184 24.557 37.434 24.296 36.846 24.132C36.237 23.963 35.216 23.368 35.101 23.3C35.0416 23.2682 34.9893 23.2247 34.9471 23.1722C34.905 23.1196 34.8739 23.0591 34.8557 22.9943C34.8375 22.9294 34.8326 22.8615 34.8413 22.7947C34.85 22.7279 34.8721 22.6636 34.9063 22.6055C34.9405 22.5475 34.986 22.497 35.0402 22.457C35.0944 22.417 35.1561 22.3883 35.2217 22.3728C35.2872 22.3572 35.3552 22.3551 35.4216 22.3664C35.488 22.3778 35.5514 22.4025 35.608 22.439C35.888 22.603 36.705 23.055 37.113 23.169C37.428 23.256 38.826 23.415 39.946 23.528L39.829 22.791C39.8099 22.6685 39.837 22.5433 39.905 22.4396C39.973 22.3359 40.077 22.2612 40.197 22.23L40.916 22.042C41.343 21.973 43.244 21.682 43.666 21.682C43.922 21.652 45.038 21.042 45.452 20.766C45.749 20.457 48.165 16.661 48.386 16.219C48.602 15.789 49.344 14.868 50.151 13.88C50.664 13.254 50.827 12.149 50.88 11.786C50.926 11.475 51.111 10.974 51.389 10.246C51.493 9.97099 51.634 9.60199 51.719 9.34599C51.6016 9.33293 51.4881 9.29546 51.386 9.23599H51.384C51.344 9.23599 51.301 9.24199 51.256 9.24499C51.015 9.25999 50.585 9.28699 50.309 8.97699C49.799 9.02299 49.619 8.82999 49.538 8.67199C49.521 8.662 49.5037 8.65266 49.486 8.64399C49.265 8.77999 48.898 9.02799 48.636 9.32599C48.421 9.56899 48.163 10.586 48.029 11.455L48.595 12.545C48.649 12.649 48.665 12.768 48.64 12.882C48.572 13.192 48.329 14.235 48.04 14.632C47.724 15.067 45.006 17.505 44.163 18.067C43.797 18.311 43.515 18.653 43.265 18.955C42.956 19.328 42.688 19.651 42.303 19.734C41.848 19.829 39.13 19.458 37.553 19.229C34.42 19.234 31.813 21.841 31.813 25.046C31.774 25.343 30.983 30.612 29.681 32.479C28.845 33.676 28.041 35.522 27.29 37.964C27.19 38.292 27.126 38.644 27.057 39.024C26.9 39.876 26.705 40.936 26.043 42.142C25.14 43.782 23.968 46.075 23.956 46.097C23.9142 46.1791 23.8505 46.248 23.772 46.2962C23.6935 46.3444 23.6021 46.3699 23.51 46.37Z" fill="#231F20"/>
<path d="M30.073 2.39999L46.948 9.80699L47.583 10.213C47.583 10.213 45.073 9.86899 44.635 9.58799C44.197 9.30699 36.26 7.36899 34.792 6.52599C33.324 5.68299 29.979 3.55699 29.979 3.55699L29.292 2.58799L30.072 2.40099L30.073 2.39999Z" fill="#FFF3E3"/>
<path d="M49.2701 20.924C49.2271 20.924 49.1841 20.924 49.1401 20.92C48.3741 20.88 46.5521 20.838 46.5501 20.838L46.5741 19.838C46.5741 19.838 48.4181 19.88 49.1941 19.922C49.7611 19.946 50.1321 19.633 50.2181 19.397C50.4181 18.847 51.3741 15.644 51.3951 15.227C51.3951 15.037 51.3191 14.885 51.1741 14.612C51.1056 14.4877 51.0415 14.3609 50.9821 14.232C50.7481 13.716 50.6581 12.917 50.6481 12.829C50.6412 12.7637 50.6472 12.6976 50.6658 12.6346C50.6844 12.5716 50.7153 12.5129 50.7566 12.4618C50.798 12.4107 50.8489 12.3683 50.9067 12.3369C50.9644 12.3055 51.0278 12.2859 51.0931 12.279C51.3531 12.255 51.6131 12.448 51.6431 12.723C51.6641 12.921 51.7501 13.505 51.8931 13.819C51.9461 13.936 52.0021 14.041 52.0561 14.141C52.2231 14.455 52.3961 14.778 52.3961 15.234C52.3961 15.834 51.2491 19.486 51.1571 19.739C50.9371 20.341 50.2271 20.924 49.2701 20.924ZM47.5121 11.776C47.487 11.776 47.4619 11.774 47.4371 11.77C46.6661 11.656 46.3651 11.51 46.2371 11.415C45.6071 11.17 40.3051 9.8 38.5531 9.387C36.9031 9 33.5601 7.674 32.2761 6.56C31.8381 6.18 31.3731 5.825 30.9311 5.486C30.1641 4.901 29.4411 4.348 28.9911 3.77C28.6141 3.286 28.6291 2.884 28.7081 2.632C28.8871 2.061 29.5101 1.852 29.5801 1.83C29.6942 1.79488 29.817 1.8009 29.9271 1.847L47.9271 9.566C48.1811 9.676 48.2971 9.969 48.1891 10.223C48.1359 10.3442 48.0373 10.4396 47.9144 10.4888C47.7915 10.538 47.6542 10.537 47.5321 10.486L29.7401 2.856C29.7001 2.884 29.6691 2.913 29.6621 2.931C29.6621 2.931 29.6601 3.001 29.7801 3.157C30.1501 3.632 30.8241 4.146 31.5371 4.691C31.9971 5.042 32.4771 5.41 32.9331 5.804C34.0431 6.77 37.2471 8.054 38.7811 8.414C38.8581 8.432 46.5111 10.288 46.8641 10.641C46.9011 10.648 47.2691 10.735 47.5841 10.781C47.7081 10.8003 47.8203 10.8656 47.8984 10.9638C47.9765 11.062 48.0148 11.186 48.0057 11.3112C47.9967 11.4363 47.9409 11.5535 47.8494 11.6394C47.758 11.7253 47.6376 11.7737 47.5121 11.775V11.776Z" fill="#231F20"/>
<path d="M36.604 13.547L36.833 12.297L38.5 11.234L40.437 11.109L42.333 11.901L43.458 14.234L43.062 14.901L40.833 14.442L36.604 13.547Z" fill="#546187"/>
<path d="M36.458 15.109C36.458 15.109 36.854 14.339 37.938 14.505C39.021 14.672 41.479 14.984 41.812 15.422C42.146 15.859 43.104 15.547 43.104 15.547L40.979 14.526L37.312 13.817L35.875 13.588L35.958 14.588L36.458 15.109Z" fill="#3D4760"/>
<path d="M53.057 13.088L52.448 12.791L52.745 11.823L56.651 12.932L56.073 14.416L53.057 13.088Z" fill="#AB0738"/>
<path d="M42.51 15.432C42.51 15.432 41.8701 16.276 42.0421 16.885C42.2141 17.494 42.8381 17.463 42.8381 17.463L43.4791 16.073L42.51 15.432Z" fill="#E6E7E8"/>
<path d="M56.0729 14.916C56.0231 14.9163 55.9735 14.9089 55.9259 14.894L53.9569 14.284C53.7809 14.231 53.2369 13.918 52.3389 13.356C52.2265 13.2856 52.1466 13.1734 52.1169 13.0441C52.0872 12.9148 52.11 12.779 52.1804 12.6665C52.2509 12.5541 52.3631 12.4742 52.4924 12.4445C52.6217 12.4147 52.7575 12.4376 52.8699 12.508C53.4349 12.862 54.1289 13.278 54.2679 13.335L55.7579 13.796L56.0069 13.08C56.0558 12.9619 56.148 12.8669 56.2646 12.8145C56.3812 12.7621 56.5134 12.7563 56.6342 12.7982C56.7549 12.8401 56.8551 12.9266 56.9142 13.04C56.9733 13.1534 56.9868 13.285 56.9519 13.408L56.5459 14.58C56.5118 14.6782 56.4479 14.7634 56.3632 14.8236C56.2784 14.8839 56.1769 14.9161 56.0729 14.916ZM36.9349 19.123C36.7881 19.123 36.6471 19.0656 36.5419 18.963C36.3639 18.785 36.2389 18.475 36.0079 17.198C35.9339 16.786 35.9449 15.714 35.9539 15.274C35.6969 14.935 35.2129 14.219 35.3299 13.789C35.3549 13.648 35.3999 13.396 35.6469 13.225C35.7636 13.1473 35.8975 13.0992 36.0369 13.085C36.1569 12.665 36.4469 11.899 37.0529 11.44C37.6129 11.015 38.7299 10.331 39.9549 10.533L40.3209 10.587C41.1759 10.711 42.2389 10.866 42.8849 11.644C43.6669 12.587 43.7759 13.752 43.7909 14.086C43.8109 14.553 43.8719 15.16 43.8719 15.163C43.8851 15.2878 43.8507 15.4129 43.7756 15.5133C43.7005 15.6138 43.5903 15.6823 43.4669 15.705L42.7999 15.83C42.729 15.8428 42.6561 15.8402 42.5862 15.8224C42.5164 15.8046 42.4512 15.7719 42.395 15.7267C42.3389 15.6814 42.2931 15.6247 42.2608 15.5602C42.2286 15.4957 42.2105 15.4251 42.2079 15.353C42.1507 15.3104 42.0894 15.2736 42.0249 15.243C41.7289 15.128 38.8149 14.523 36.9469 14.163C36.7584 14.1236 36.5678 14.0953 36.3759 14.078C36.4989 14.31 36.7379 14.665 36.8299 14.775C36.9079 14.869 36.9599 15 36.9579 15.122C36.9419 15.699 36.9379 16.723 36.9919 17.02C37.1719 18.014 37.2639 18.254 37.2939 18.312C37.4889 18.507 37.4669 18.795 37.2709 18.991C37.2265 19.0342 37.1739 19.0681 37.1162 19.0907C37.0585 19.1134 36.9969 19.1243 36.9349 19.123ZM37.0609 13.166L37.1369 13.18C37.3369 13.22 42.0349 14.13 42.4729 14.349C42.6099 14.419 42.7249 14.489 42.8179 14.562C42.8075 14.4181 42.7989 14.2741 42.7919 14.13C42.7839 13.95 42.7119 13.004 42.1149 12.283C41.7149 11.8 40.9339 11.687 40.1779 11.577L39.7949 11.519C38.9079 11.379 38.0039 11.974 37.6559 12.237C37.3709 12.454 37.1749 12.85 37.0609 13.166Z" fill="#231F20"/>
<path d="M41.1529 19.792C41.0055 19.7948 40.8603 19.756 40.7339 19.68C40.6545 19.6321 40.5858 19.5681 40.5325 19.4922C40.4791 19.4162 40.4421 19.33 40.4239 19.239C40.4057 19.1395 40.4181 19.0369 40.4595 18.9447C40.5008 18.8524 40.5691 18.7748 40.6555 18.7222C40.7418 18.6696 40.842 18.6443 40.943 18.6498C41.0439 18.6553 41.1408 18.6913 41.2209 18.753C41.6299 18.467 42.6269 17.156 42.7789 16.731C42.8909 16.422 42.8969 15.653 42.8759 15.24C42.8724 15.1744 42.8819 15.1087 42.9037 15.0468C42.9256 14.9849 42.9595 14.9278 43.0034 14.879C43.0473 14.8301 43.1005 14.7904 43.1598 14.7621C43.219 14.7338 43.2833 14.7174 43.3489 14.714C43.6339 14.677 43.8599 14.912 43.8739 15.187C43.8809 15.317 43.9349 16.472 43.7209 17.071C43.5499 17.545 42.2029 19.529 41.5179 19.734C41.3879 19.773 41.2669 19.792 41.1529 19.792Z" fill="#231F20"/>
<path d="M50.4479 12.038C50.4194 12.0381 50.3916 12.0297 50.3679 12.014C49.8184 11.6562 49.1711 11.4783 48.5159 11.505C48.4239 11.513 48.3639 11.444 48.3599 11.36C48.3591 11.3202 48.3739 11.2816 48.4012 11.2527C48.4285 11.2237 48.4661 11.2066 48.5059 11.205C48.9839 11.194 49.4339 11.263 49.8659 11.426C50.0959 11.513 50.3189 11.626 50.5289 11.762C50.5623 11.7835 50.5857 11.8174 50.5942 11.8562C50.6026 11.895 50.5953 11.9356 50.5739 11.969C50.5605 11.9903 50.5419 12.0079 50.5199 12.0201C50.4978 12.0323 50.4731 12.0378 50.4479 12.038Z" fill="#546187"/>
<path d="M11.6011 45.474C12.5394 45.474 13.3001 44.7133 13.3001 43.775C13.3001 42.8367 12.5394 42.076 11.6011 42.076C10.6628 42.076 9.9021 42.8367 9.9021 43.775C9.9021 44.7133 10.6628 45.474 11.6011 45.474Z" fill="#F1F2F2"/>
<path d="M11.6019 45.974C11.0302 45.9567 10.4877 45.7175 10.0894 45.307C9.69104 44.8965 9.46826 44.347 9.46826 43.775C9.46826 43.203 9.69104 42.6535 10.0894 42.243C10.4877 41.8325 11.0302 41.5932 11.6019 41.576C12.8139 41.576 13.8009 42.562 13.8009 43.775C13.8009 44.988 12.8139 45.974 11.6009 45.974H11.6019ZM11.6019 42.576C10.9399 42.576 10.4019 43.114 10.4019 43.775C10.4019 44.436 10.9399 44.974 11.6019 44.974C11.9115 44.9613 12.2041 44.8295 12.4186 44.606C12.6332 44.3825 12.753 44.0848 12.753 43.775C12.753 43.4652 12.6332 43.1674 12.4186 42.944C12.2041 42.7205 11.9115 42.5886 11.6019 42.576Z" fill="#231F20"/>
<path d="M22.9949 51.938C22.9713 51.9381 22.9484 51.9298 22.9302 51.9146C22.9121 51.8994 22.9 51.8783 22.8959 51.855C22.8016 51.2875 22.5389 50.7614 22.1419 50.345C21.8159 50.0095 21.4114 49.7607 20.9649 49.621C20.9396 49.6132 20.9184 49.5956 20.9061 49.5721C20.8937 49.5487 20.8911 49.5213 20.8989 49.496C20.9159 49.445 20.9689 49.416 21.0249 49.43C21.3579 49.535 21.8479 49.754 22.2859 50.206C22.8529 50.792 23.0359 51.47 23.0939 51.822C23.0983 51.8481 23.0921 51.8749 23.0767 51.8964C23.0613 51.918 23.038 51.9326 23.0119 51.937L22.9949 51.938ZM15.7029 58.521C15.6793 58.5211 15.6564 58.5128 15.6382 58.4976C15.6201 58.4824 15.608 58.4613 15.6039 58.438C15.5096 57.8705 15.2469 57.3444 14.8499 56.928C14.5235 56.5933 14.1191 56.3448 13.6729 56.205C13.6199 56.188 13.5909 56.131 13.6069 56.079C13.6229 56.027 13.6809 55.999 13.7329 56.013C14.2129 56.164 14.6479 56.433 14.9939 56.789C15.5609 57.375 15.7439 58.053 15.8019 58.405C15.8063 58.4311 15.8001 58.4579 15.7847 58.4794C15.7693 58.501 15.746 58.5156 15.7199 58.52L15.7029 58.521ZM26.0579 49.469C26.0341 49.4693 26.0109 49.4612 25.9926 49.4459C25.9743 49.4307 25.962 49.4095 25.9579 49.386C25.8636 48.8185 25.6009 48.2924 25.2039 47.876C24.8778 47.5409 24.4733 47.2924 24.0269 47.153C24.0144 47.149 24.0027 47.1426 23.9926 47.1341C23.9826 47.1256 23.9743 47.1152 23.9682 47.1035C23.9622 47.0918 23.9585 47.079 23.9575 47.0659C23.9564 47.0527 23.9579 47.0395 23.9619 47.027C23.9789 46.975 24.0289 46.947 24.0879 46.961C24.4209 47.066 24.9099 47.286 25.3479 47.738C25.9159 48.324 26.0979 49.001 26.1559 49.353C26.1603 49.3791 26.1541 49.4059 26.1387 49.4274C26.1233 49.449 26.1 49.4636 26.0739 49.468L26.0579 49.469ZM14.8949 55.5C14.8808 55.5001 14.8668 55.4972 14.8539 55.4915C14.841 55.4858 14.8294 55.4775 14.8199 55.467C14.8027 55.447 14.794 55.421 14.7957 55.3947C14.7974 55.3683 14.8093 55.3436 14.8289 55.326L20.1629 50.618C20.1727 50.6091 20.1842 50.6023 20.1967 50.5979C20.2092 50.5935 20.2224 50.5916 20.2356 50.5923C20.2488 50.5931 20.2617 50.5964 20.2736 50.6022C20.2855 50.608 20.2962 50.6161 20.3049 50.626C20.3223 50.6462 20.3311 50.6724 20.3292 50.699C20.3273 50.7257 20.315 50.7504 20.2949 50.768L14.9619 55.476C14.9432 55.4918 14.9194 55.5003 14.8949 55.5ZM21.7349 49.036C21.7144 49.0358 21.6945 49.0294 21.6778 49.0175C21.661 49.0056 21.6484 48.9888 21.6415 48.9695C21.6346 48.9502 21.6339 48.9292 21.6393 48.9095C21.6448 48.8897 21.6561 48.8721 21.6719 48.859L23.5409 47.334C23.5614 47.3174 23.5876 47.3096 23.6138 47.3122C23.64 47.3148 23.6641 47.3277 23.6809 47.348C23.6976 47.3683 23.7056 47.3944 23.7032 47.4207C23.7008 47.4469 23.6881 47.4711 23.6679 47.488L21.7979 49.013C21.7801 49.0281 21.7573 49.0363 21.7339 49.036H21.7349ZM22.5319 49.51C22.5114 49.5098 22.4915 49.5034 22.4748 49.4915C22.458 49.4796 22.4454 49.4628 22.4385 49.4435C22.4316 49.4242 22.4309 49.4032 22.4363 49.3835C22.4418 49.3637 22.4531 49.3461 22.4689 49.333L24.3389 47.809C24.349 47.8007 24.3607 47.7944 24.3732 47.7906C24.3857 47.7868 24.3988 47.7855 24.4119 47.7868C24.4249 47.7881 24.4375 47.792 24.449 47.7982C24.4605 47.8044 24.4707 47.8128 24.4789 47.823C24.4956 47.8433 24.5036 47.8694 24.5012 47.8957C24.4988 47.9219 24.4861 47.9461 24.4659 47.963L22.5959 49.488C22.5779 49.5028 22.5552 49.5106 22.5319 49.51ZM23.1589 50.226C23.1384 50.2258 23.1185 50.2194 23.1018 50.2075C23.085 50.1956 23.0724 50.1788 23.0655 50.1595C23.0586 50.1402 23.0579 50.1192 23.0633 50.0995C23.0688 50.0797 23.0801 50.0621 23.0959 50.049L24.9659 48.524C24.9864 48.5074 25.0126 48.4996 25.0388 48.5022C25.065 48.5048 25.0891 48.5177 25.1059 48.538C25.1226 48.5583 25.1306 48.5845 25.1282 48.6107C25.1258 48.6369 25.1131 48.6611 25.0929 48.678L23.2229 50.204C23.2049 50.2188 23.1822 50.2266 23.1589 50.226ZM23.6429 51.414C23.6224 51.4138 23.6025 51.4074 23.5858 51.3955C23.569 51.3836 23.5564 51.3668 23.5495 51.3475C23.5426 51.3282 23.5419 51.3072 23.5473 51.2875C23.5528 51.2677 23.5641 51.2501 23.5799 51.237L25.4499 49.713C25.4704 49.6964 25.4966 49.6886 25.5228 49.6912C25.549 49.6938 25.5731 49.7067 25.5899 49.727C25.6066 49.7473 25.6146 49.7734 25.6122 49.7997C25.6098 49.8259 25.5971 49.8501 25.5769 49.867L23.7069 51.392C23.6889 51.4068 23.6662 51.4146 23.6429 51.414ZM15.7389 56.157C15.7247 56.157 15.7107 56.1539 15.6978 56.1481C15.6848 56.1422 15.6733 56.1337 15.6639 56.123C15.6467 56.103 15.638 56.077 15.6397 56.0506C15.6414 56.0243 15.6533 55.9996 15.6729 55.982L21.0069 51.274C21.0168 51.2653 21.0283 51.2585 21.0407 51.2542C21.0531 51.2499 21.0663 51.2481 21.0794 51.2489C21.0926 51.2497 21.1054 51.2531 21.1173 51.2588C21.1291 51.2646 21.1397 51.2726 21.1484 51.2825C21.1572 51.2923 21.1639 51.3038 21.1682 51.3163C21.1725 51.3287 21.1743 51.3419 21.1735 51.355C21.1727 51.3681 21.1693 51.381 21.1636 51.3928C21.1578 51.4047 21.1498 51.4153 21.1399 51.424L15.8059 56.132C15.7873 56.1481 15.7636 56.157 15.7389 56.157ZM16.4269 57.063C16.4128 57.0631 16.3988 57.0602 16.3859 57.0545C16.373 57.0488 16.3614 57.0405 16.3519 57.03C16.3343 57.01 16.3252 56.9839 16.3267 56.9573C16.3282 56.9307 16.3401 56.9058 16.3599 56.888L21.6939 52.18C21.7038 52.1712 21.7153 52.1644 21.7278 52.1601C21.7404 52.1558 21.7536 52.154 21.7668 52.1548C21.78 52.1557 21.7929 52.1591 21.8048 52.165C21.8167 52.1708 21.8272 52.179 21.8359 52.189C21.8532 52.209 21.8619 52.235 21.8602 52.2613C21.8585 52.2877 21.8466 52.3123 21.8269 52.33L16.4929 57.038C16.4746 57.0539 16.4512 57.0628 16.4269 57.063ZM36.6469 56.329C36.6293 56.3291 36.612 56.3245 36.5967 56.3157C36.5814 56.3069 36.5687 56.2942 36.5599 56.279C36.5534 56.2675 36.5491 56.2549 36.5475 56.2417C36.5458 56.2286 36.5468 56.2153 36.5503 56.2026C36.5539 56.1898 36.5599 56.1779 36.5681 56.1675C36.5762 56.1571 36.5864 56.1484 36.5979 56.142L42.7579 52.584C42.7811 52.5712 42.8084 52.5679 42.8339 52.5748C42.8595 52.5817 42.8814 52.5982 42.8949 52.621C42.9015 52.6324 42.9058 52.645 42.9076 52.6581C42.9093 52.6712 42.9084 52.6845 42.9049 52.6972C42.9015 52.7099 42.8956 52.7218 42.8875 52.7323C42.8794 52.7427 42.8694 52.7515 42.8579 52.758L36.6979 56.316C36.6827 56.3245 36.6644 56.329 36.6469 56.329Z" fill="#AB0738"/>
<path d="M42.413 17.891C42.3935 17.8911 42.3744 17.8855 42.358 17.875C42.1731 17.7532 41.9829 17.6398 41.788 17.535C41.3824 17.3225 40.9583 17.1475 40.521 17.012C39.8831 16.8158 39.2241 16.6966 38.558 16.657C37.8111 16.6117 37.0615 16.6634 36.328 16.811C36.273 16.827 36.221 16.788 36.21 16.733C36.2072 16.7202 36.207 16.7069 36.2095 16.694C36.2119 16.6812 36.2169 16.6689 36.2242 16.658C36.2315 16.6471 36.2409 16.6377 36.2518 16.6305C36.2628 16.6233 36.2751 16.6184 36.288 16.616C37.0383 16.4653 37.805 16.4118 38.569 16.457C39.252 16.4979 39.9278 16.6201 40.582 16.821C41.2496 17.0254 41.8847 17.3241 42.468 17.708C42.4857 17.7199 42.4991 17.7372 42.5063 17.7573C42.5135 17.7774 42.5141 17.7993 42.508 17.8198C42.5018 17.8402 42.4893 17.8582 42.4722 17.871C42.4551 17.8838 42.4343 17.8908 42.413 17.891ZM42.526 18.829C42.5068 18.8289 42.4881 18.8233 42.472 18.813C42.2871 18.6912 42.0969 18.5778 41.902 18.473C41.4964 18.2605 41.0723 18.0854 40.635 17.95C39.9967 17.7539 39.3374 17.6344 38.671 17.594C37.9234 17.5485 37.1732 17.6003 36.439 17.748C36.4261 17.751 36.4128 17.7514 36.3998 17.7491C36.3868 17.7468 36.3744 17.7418 36.3635 17.7345C36.3525 17.7272 36.3431 17.7177 36.336 17.7066C36.3289 17.6955 36.3241 17.683 36.322 17.67C36.3192 17.6572 36.319 17.6439 36.3215 17.631C36.3239 17.6182 36.3289 17.6059 36.3362 17.595C36.3435 17.5841 36.3529 17.5747 36.3638 17.5675C36.3748 17.5603 36.3871 17.5554 36.4 17.553C37.1509 17.4014 37.9183 17.3483 38.683 17.395C39.3653 17.4358 40.0404 17.5577 40.694 17.758C41.362 17.9623 41.9974 18.261 42.581 18.645C42.5991 18.6567 42.613 18.6741 42.6205 18.6944C42.628 18.7147 42.6287 18.7369 42.6225 18.7576C42.6163 18.7784 42.6035 18.7965 42.5861 18.8094C42.5687 18.8223 42.5476 18.8291 42.526 18.829Z" fill="#231F20"/>
<path d="M38.6979 18.72C38.6784 18.7201 38.6593 18.7144 38.6429 18.7038C38.6266 18.6931 38.6137 18.6779 38.6059 18.66L38.1059 17.536C38.1002 17.5224 38.0978 17.5077 38.0989 17.493L38.1139 16.508C38.1139 16.453 38.1729 16.408 38.2159 16.411C38.2421 16.4118 38.2669 16.4228 38.285 16.4417C38.3032 16.4606 38.3132 16.4858 38.3129 16.512L38.2989 17.474L38.7899 18.579C38.8004 18.6032 38.8011 18.6305 38.7918 18.6552C38.7824 18.6799 38.7638 18.6999 38.7399 18.711C38.7266 18.7166 38.7123 18.7203 38.6979 18.72ZM39.4009 18.813C39.389 18.8129 39.3772 18.8109 39.3659 18.807C39.3536 18.8023 39.3424 18.7953 39.3328 18.7863C39.3233 18.7773 39.3156 18.7665 39.3102 18.7545C39.3048 18.7425 39.3018 18.7296 39.3014 18.7165C39.301 18.7034 39.3032 18.6903 39.3079 18.678L39.7289 17.553L39.8489 16.684C39.8559 16.629 39.9089 16.584 39.9619 16.599C39.9749 16.6007 39.9873 16.605 39.9986 16.6116C40.0099 16.6181 40.0198 16.6269 40.0277 16.6373C40.0356 16.6477 40.0414 16.6596 40.0447 16.6722C40.048 16.6849 40.0487 16.6981 40.0469 16.711L39.9219 17.602L39.4949 18.748C39.4877 18.7671 39.4749 18.7836 39.4581 18.7953C39.4413 18.8069 39.4213 18.8131 39.4009 18.813Z" fill="#231F20"/>
</svg>
