<svg width="21" height="20" viewBox="0 0 21 20" fill="none" xmlns="http://www.w3.org/2000/svg">
<path d="M20 8.1C20.1 7.6 19.7 7 19.2 7L13.5 6.2L10.9 0.999999C10.8 0.799999 10.7 0.699999 10.5 0.599999C10 0.299999 9.4 0.499999 9.1 0.999999L6.6 6.2L0.9 7C0.6 7 0.4 7.1 0.3 7.3C-0.1 7.7 -0.1 8.3 0.3 8.7L4.4 12.7L3.4 18.4C3.4 18.6 3.4 18.8 3.5 19C3.8 19.5 4.4 19.7 4.9 19.4L10 16.7L15.1 19.4C15.2 19.5 15.4 19.5 15.6 19.5C15.7 19.5 15.7 19.5 15.8 19.5C16.3 19.4 16.7 18.9 16.6 18.3L15.6 12.6L19.7 8.6C19.9 8.5 20 8.3 20 8.1Z" fill="#FF5E14"/>
</svg>
